%TF.GenerationSoftware,Altium Limited,Altium Designer,20.2.3 (150)*%
G04 Layer_Color=32896*
%FSLAX26Y26*%
%MOIN*%
%TF.SameCoordinates,1E0D65CC-F0FE-4DFC-A0D5-6D9DD74121E6*%
%TF.FilePolarity,Positive*%
%TF.FileFunction,Legend,Bot*%
%TF.Part,Single*%
G01*
G75*
%TA.AperFunction,NonConductor*%
%ADD54C,0.009842*%
%ADD55C,0.007874*%
%ADD56C,0.059055*%
%ADD57C,0.005000*%
%ADD58C,0.006000*%
D54*
X1214480Y1150795D02*
G03*
X1214480Y1150795I-4921J0D01*
G01*
Y1932622D02*
G03*
X1214480Y1932622I-4921J0D01*
G01*
D55*
X1316386Y1800000D02*
G03*
X1316386Y1800000I-3937J0D01*
G01*
X376725Y1442197D02*
G03*
X376725Y1442197I-3937J0D01*
G01*
Y1214197D02*
G03*
X376725Y1214197I-3937J0D01*
G01*
Y1999197D02*
G03*
X376725Y1999197I-3937J0D01*
G01*
X1968417Y1363803D02*
G03*
X1968417Y1363803I-3937J0D01*
G01*
Y1591803D02*
G03*
X1968417Y1591803I-3937J0D01*
G01*
Y2148803D02*
G03*
X1968417Y2148803I-3937J0D01*
G01*
X1322386Y993000D02*
G03*
X1322386Y993000I-3937J0D01*
G01*
X376803Y986197D02*
G03*
X376803Y986197I-3937J0D01*
G01*
X376725Y757197D02*
G03*
X376725Y757197I-3937J0D01*
G01*
Y252197D02*
G03*
X376725Y252197I-3937J0D01*
G01*
X1967417Y906803D02*
G03*
X1967417Y906803I-3937J0D01*
G01*
X1968417Y1135803D02*
G03*
X1968417Y1135803I-3937J0D01*
G01*
X1967417Y401803D02*
G03*
X1967417Y401803I-3937J0D01*
G01*
X817055Y257661D02*
G03*
X817055Y257661I-3937J0D01*
G01*
D56*
X1881635Y1781606D02*
G03*
X1881635Y1781606I-112222J0D01*
G01*
X680823Y1781617D02*
G03*
X680823Y1781617I-112222J0D01*
G01*
X680639Y580957D02*
G03*
X680639Y580957I-112222J0D01*
G01*
X1881639D02*
G03*
X1881639Y580957I-112222J0D01*
G01*
D57*
X1108402Y1379465D02*
Y1412535D01*
X1033598Y1379465D02*
Y1412535D01*
X849598Y581465D02*
Y614535D01*
X924402Y581465D02*
Y614535D01*
X1012402Y1379465D02*
Y1412535D01*
X937598Y1379465D02*
Y1412535D01*
X918402Y1379465D02*
Y1412535D01*
X843598Y1379465D02*
Y1412535D01*
X942598Y581465D02*
Y614535D01*
X1017402Y581465D02*
Y614535D01*
X1076598Y581465D02*
Y614535D01*
X1151402Y581465D02*
Y614535D01*
X1167598Y581465D02*
Y614535D01*
X1242402Y581465D02*
Y614535D01*
X1261598Y581465D02*
Y614535D01*
X1336402Y581465D02*
Y614535D01*
X1349598Y581465D02*
Y614535D01*
X1424402Y581465D02*
Y614535D01*
X1418465Y1213598D02*
X1451535D01*
X1418465Y1288402D02*
X1451535D01*
X313598Y1777465D02*
Y1810535D01*
X388402Y1777465D02*
Y1810535D01*
X1949598Y1777465D02*
Y1810535D01*
X2024402Y1777465D02*
Y1810535D01*
X1949598Y560465D02*
Y593535D01*
X2024402Y560465D02*
Y593535D01*
X313598Y560465D02*
Y593535D01*
X388402Y560465D02*
Y593535D01*
X1369535Y1824606D02*
X1436465D01*
X1369535Y1775394D02*
X1436465D01*
Y1822441D02*
Y1824606D01*
Y1775394D02*
Y1777559D01*
X1369535Y1822441D02*
Y1824606D01*
Y1775394D02*
Y1777559D01*
X431843Y1617394D02*
X628693D01*
X431843Y1416606D02*
X628693D01*
X431843Y1389394D02*
X628693D01*
X431843Y1188606D02*
X628693D01*
X431843Y2174394D02*
X628693D01*
X431843Y1973606D02*
X628693D01*
X1708575Y1188606D02*
X1905425D01*
X1708575Y1389394D02*
X1905425D01*
X1708575Y1416606D02*
X1905425D01*
X1708575Y1617394D02*
X1905425D01*
X1708575Y1973606D02*
X1905425D01*
X1708575Y2174394D02*
X1905425D01*
X1375535Y1017606D02*
X1442465D01*
X1375535Y968394D02*
X1442465D01*
Y1015441D02*
Y1017606D01*
Y968394D02*
Y970559D01*
X1375535Y1015441D02*
Y1017606D01*
Y968394D02*
Y970559D01*
X431921Y1161394D02*
X628772D01*
X431921Y960606D02*
X628772D01*
X431843Y932394D02*
X628693D01*
X431843Y731606D02*
X628693D01*
X431843Y427394D02*
X628693D01*
X431843Y226606D02*
X628693D01*
X1707575Y932394D02*
X1904425D01*
X1707575Y731606D02*
X1904425D01*
X1708575Y1161394D02*
X1905425D01*
X1708575Y960606D02*
X1905425D01*
X1707575Y427394D02*
X1904425D01*
X1707575Y226606D02*
X1904425D01*
X895008Y241913D02*
X920992D01*
X939496Y285811D02*
Y312189D01*
X895008Y356087D02*
X920992D01*
X1322110Y324441D02*
Y379559D01*
X1185890Y324441D02*
Y379559D01*
X1172110Y324441D02*
Y379559D01*
X1035890Y324441D02*
Y379559D01*
D58*
X1312000Y1671116D02*
Y1714884D01*
X1444000Y1671116D02*
Y1714884D01*
X1296000Y863116D02*
Y906884D01*
X1428000Y863116D02*
Y906884D01*
%TF.MD5,70ece645f4c933efc619889580906c39*%
M02*
