%TF.GenerationSoftware,Altium Limited,Altium Designer,20.2.3 (150)*%
G04 Layer_Physical_Order=1*
G04 Layer_Color=255*
%FSLAX26Y26*%
%MOIN*%
%TF.SameCoordinates,1E0D65CC-F0FE-4DFC-A0D5-6D9DD74121E6*%
%TF.FilePolarity,Positive*%
%TF.FileFunction,Copper,L1,Top,Signal*%
%TF.Part,Single*%
G01*
G75*
%TA.AperFunction,SMDPad,SMDef*%
G04:AMPARAMS|DCode=10|XSize=98.425mil|YSize=1811.024mil|CornerRadius=24.606mil|HoleSize=0mil|Usage=FLASHONLY|Rotation=0.000|XOffset=0mil|YOffset=0mil|HoleType=Round|Shape=RoundedRectangle|*
%AMROUNDEDRECTD10*
21,1,0.098425,1.761811,0,0,0.0*
21,1,0.049213,1.811024,0,0,0.0*
1,1,0.049213,0.024606,-0.880905*
1,1,0.049213,-0.024606,-0.880905*
1,1,0.049213,-0.024606,0.880905*
1,1,0.049213,0.024606,0.880905*
%
%ADD10ROUNDEDRECTD10*%
G04:AMPARAMS|DCode=11|XSize=98.425mil|YSize=590.551mil|CornerRadius=24.606mil|HoleSize=0mil|Usage=FLASHONLY|Rotation=90.000|XOffset=0mil|YOffset=0mil|HoleType=Round|Shape=RoundedRectangle|*
%AMROUNDEDRECTD11*
21,1,0.098425,0.541339,0,0,90.0*
21,1,0.049213,0.590551,0,0,90.0*
1,1,0.049213,0.270669,0.024606*
1,1,0.049213,0.270669,-0.024606*
1,1,0.049213,-0.270669,-0.024606*
1,1,0.049213,-0.270669,0.024606*
%
%ADD11ROUNDEDRECTD11*%
%TA.AperFunction,SMDPad,CuDef*%
%ADD12R,0.023622X0.021260*%
%ADD13R,0.075197X0.053937*%
%TA.AperFunction,SMDPad,SMDef*%
G04:AMPARAMS|DCode=14|XSize=98.425mil|YSize=157.48mil|CornerRadius=24.606mil|HoleSize=0mil|Usage=FLASHONLY|Rotation=180.000|XOffset=0mil|YOffset=0mil|HoleType=Round|Shape=RoundedRectangle|*
%AMROUNDEDRECTD14*
21,1,0.098425,0.108268,0,0,180.0*
21,1,0.049213,0.157480,0,0,180.0*
1,1,0.049213,-0.024606,0.054134*
1,1,0.049213,0.024606,0.054134*
1,1,0.049213,0.024606,-0.054134*
1,1,0.049213,-0.024606,-0.054134*
%
%ADD14ROUNDEDRECTD14*%
G04:AMPARAMS|DCode=15|XSize=31.496mil|YSize=31.496mil|CornerRadius=7.874mil|HoleSize=0mil|Usage=FLASHONLY|Rotation=90.000|XOffset=0mil|YOffset=0mil|HoleType=Round|Shape=RoundedRectangle|*
%AMROUNDEDRECTD15*
21,1,0.031496,0.015748,0,0,90.0*
21,1,0.015748,0.031496,0,0,90.0*
1,1,0.015748,0.007874,0.007874*
1,1,0.015748,0.007874,-0.007874*
1,1,0.015748,-0.007874,-0.007874*
1,1,0.015748,-0.007874,0.007874*
%
%ADD15ROUNDEDRECTD15*%
%TA.AperFunction,SMDPad,CuDef*%
%ADD16R,0.020000X0.036614*%
%ADD17R,0.147638X0.185039*%
%ADD18R,0.041339X0.033465*%
%ADD19R,0.057087X0.033465*%
%TA.AperFunction,SMDPad,SMDef*%
G04:AMPARAMS|DCode=20|XSize=98.425mil|YSize=1850.394mil|CornerRadius=24.606mil|HoleSize=0mil|Usage=FLASHONLY|Rotation=0.000|XOffset=0mil|YOffset=0mil|HoleType=Round|Shape=RoundedRectangle|*
%AMROUNDEDRECTD20*
21,1,0.098425,1.801181,0,0,0.0*
21,1,0.049213,1.850394,0,0,0.0*
1,1,0.049213,0.024606,-0.900591*
1,1,0.049213,-0.024606,-0.900591*
1,1,0.049213,-0.024606,0.900591*
1,1,0.049213,0.024606,0.900591*
%
%ADD20ROUNDEDRECTD20*%
G04:AMPARAMS|DCode=21|XSize=196.85mil|YSize=275.591mil|CornerRadius=49.213mil|HoleSize=0mil|Usage=FLASHONLY|Rotation=90.000|XOffset=0mil|YOffset=0mil|HoleType=Round|Shape=RoundedRectangle|*
%AMROUNDEDRECTD21*
21,1,0.196850,0.177165,0,0,90.0*
21,1,0.098425,0.275591,0,0,90.0*
1,1,0.098425,0.088583,0.049213*
1,1,0.098425,0.088583,-0.049213*
1,1,0.098425,-0.088583,-0.049213*
1,1,0.098425,-0.088583,0.049213*
%
%ADD21ROUNDEDRECTD21*%
%TA.AperFunction,SMDPad,CuDef*%
%ADD22R,0.047244X0.070866*%
%ADD23R,0.023622X0.061024*%
%ADD24R,0.016000X0.023622*%
%ADD25R,0.033465X0.011811*%
%ADD26R,0.011811X0.033465*%
%ADD27R,0.106299X0.106299*%
%ADD28R,0.106000X0.039000*%
%ADD29R,0.019685X0.041339*%
%ADD30R,0.023622X0.016000*%
%ADD31R,0.021260X0.023622*%
%TA.AperFunction,Conductor*%
%ADD32C,0.010000*%
%ADD33C,0.012000*%
%ADD34C,0.014000*%
%ADD35C,0.008000*%
%ADD36C,0.020000*%
%ADD37C,0.022000*%
%ADD38C,0.011000*%
%ADD39C,0.060000*%
%ADD40C,0.030000*%
%ADD41C,0.009000*%
%TA.AperFunction,ViaPad*%
%ADD42C,0.022000*%
%ADD43C,0.023622*%
%ADD44C,0.070866*%
G36*
X605000Y1978000D02*
X573000Y1946000D01*
X295000D01*
X275715Y1965285D01*
Y2121715D01*
X285000Y2131000D01*
X285776D01*
X288262Y2129338D01*
X295992Y2127801D01*
X303722Y2129338D01*
X306209Y2131000D01*
X309000D01*
X322000Y2144000D01*
Y2160000D01*
X329000Y2167000D01*
X605000D01*
Y1978000D01*
D02*
G37*
G36*
X942000Y2182000D02*
Y2046000D01*
X955000Y2033000D01*
X1049000D01*
X1053000Y2029000D01*
Y1959000D01*
X1046000Y1952000D01*
X863000D01*
X848000Y1967000D01*
Y2066038D01*
X852028Y2063347D01*
X859441Y2061873D01*
X866854Y2063347D01*
X873139Y2067547D01*
X877338Y2073831D01*
X878813Y2081245D01*
X877338Y2088658D01*
X873139Y2094943D01*
X866854Y2099142D01*
X859441Y2100617D01*
X852028Y2099142D01*
X848000Y2096451D01*
Y2123254D01*
X849689Y2125782D01*
X851164Y2133195D01*
X849689Y2140608D01*
X848000Y2143136D01*
Y2183000D01*
X856000Y2191000D01*
X933000D01*
X942000Y2182000D01*
D02*
G37*
G36*
X1715000Y2189000D02*
Y2029000D01*
X1624000D01*
Y2048000D01*
X1602000Y2070000D01*
X1356000D01*
X1315000Y2111000D01*
X1211501D01*
X1209698Y2113698D01*
X1203413Y2117898D01*
X1196000Y2119372D01*
X1188587Y2117898D01*
X1182302Y2113698D01*
X1180499Y2111000D01*
X1169501D01*
X1167698Y2113698D01*
X1161413Y2117898D01*
X1154000Y2119372D01*
X1146587Y2117898D01*
X1140302Y2113698D01*
X1138499Y2111000D01*
X1117506D01*
X1113698Y2116698D01*
X1107413Y2120898D01*
X1100000Y2122372D01*
X1092587Y2120898D01*
X1086302Y2116698D01*
X1082494Y2111000D01*
D01*
X1082102Y2110413D01*
X1080628Y2103000D01*
X1082102Y2095587D01*
X1082494Y2095000D01*
Y2092506D01*
X1091000Y2084000D01*
Y1966000D01*
X1066000D01*
X1065000Y1967000D01*
Y2039000D01*
X1060000Y2044000D01*
X972000D01*
X956000Y2060000D01*
Y2115000D01*
Y2186000D01*
X962000Y2192000D01*
X1712000D01*
X1715000Y2189000D01*
D02*
G37*
G36*
X2059173Y2162827D02*
X2060470Y2159697D01*
X2062000Y2152004D01*
Y2012000D01*
X2030000Y1980000D01*
X1741000D01*
X1738000Y1983000D01*
Y2166000D01*
X1742000Y2170000D01*
X2052000D01*
X2059173Y2162827D01*
D02*
G37*
G36*
X2028000Y1866000D02*
X2028000Y1797000D01*
X2020000Y1789000D01*
X1942000D01*
X1939000Y1786000D01*
Y1678000D01*
X1896000Y1635000D01*
X1728000D01*
X1716000Y1623000D01*
Y1475000D01*
X1710000Y1469000D01*
X1618000D01*
X1618000Y1948000D01*
X1639814D01*
X1641264Y1940712D01*
X1645463Y1934427D01*
X1651748Y1930228D01*
X1659162Y1928753D01*
X1666575Y1930228D01*
X1672860Y1934427D01*
X1677059Y1940712D01*
X1678509Y1948000D01*
X1867599D01*
X1871416Y1943000D01*
X1870620Y1939000D01*
X1872094Y1931587D01*
X1876294Y1925302D01*
X1882579Y1921102D01*
X1889992Y1919628D01*
X1897406Y1921102D01*
X1903690Y1925302D01*
X1907890Y1931587D01*
X1909364Y1939000D01*
X1908569Y1943000D01*
X1912385Y1948000D01*
X1946000D01*
X2028000Y1866000D01*
D02*
G37*
G36*
X1352359Y1901923D02*
X1353587Y1901102D01*
X1361000Y1899628D01*
X1368413Y1901102D01*
X1369520Y1901842D01*
X1548000Y1901000D01*
Y1767000D01*
X1585000D01*
X1595000Y1757000D01*
Y1732000D01*
X1585000Y1722000D01*
X1307216D01*
X1306405Y1722161D01*
X1305595Y1722000D01*
X1295000D01*
X1286000Y1713000D01*
Y1696000D01*
X1281000Y1691000D01*
Y1661000D01*
X1279000Y1659000D01*
X1254000D01*
Y1783000D01*
X1284000D01*
X1300000Y1767000D01*
X1376000D01*
Y1841000D01*
X1365000Y1852000D01*
X1363849D01*
X1359965Y1854595D01*
X1352552Y1856070D01*
X1345138Y1854595D01*
X1342900Y1853100D01*
X1336000Y1860000D01*
Y1902000D01*
X1352359Y1901923D01*
D02*
G37*
G36*
X810000Y2098000D02*
Y1689000D01*
X841000D01*
X853000Y1701000D01*
Y1826000D01*
X876000Y1849000D01*
X943517Y1848473D01*
X942628Y1844000D01*
X944102Y1836587D01*
X948302Y1830302D01*
X954587Y1826102D01*
X962000Y1824628D01*
X969413Y1826102D01*
X975698Y1830302D01*
X979898Y1836587D01*
X981372Y1844000D01*
X980540Y1848183D01*
X1004000Y1848000D01*
X1110000D01*
X1130000Y1828000D01*
Y1814205D01*
X1127270Y1813661D01*
X1120717Y1809283D01*
X1116339Y1802730D01*
X1114801Y1795000D01*
X1116339Y1787270D01*
X1120717Y1780717D01*
X1127270Y1776339D01*
X1130000Y1775795D01*
Y1628841D01*
X1128989Y1627328D01*
X1127514Y1619915D01*
X1128989Y1612501D01*
X1130000Y1610988D01*
Y1591000D01*
X1121000Y1582000D01*
X1094000D01*
X1072000Y1604000D01*
X970000D01*
X939000Y1573000D01*
Y1537000D01*
Y1533696D01*
X936911Y1530570D01*
X935436Y1523156D01*
X936911Y1515743D01*
X941110Y1509458D01*
X947395Y1505259D01*
X954808Y1503784D01*
X962222Y1505259D01*
X968507Y1509458D01*
X969476Y1510909D01*
X974367Y1511882D01*
X978998Y1514976D01*
X985022Y1521000D01*
X1002000D01*
X1003354Y1522354D01*
X1005811D01*
Y1524811D01*
X1009000Y1528000D01*
Y1552000D01*
X1035000D01*
Y1527000D01*
X1030000Y1522000D01*
Y1430000D01*
X1027056Y1427056D01*
X1012311D01*
X1012030Y1427000D01*
X990871D01*
X989000Y1427372D01*
X987129Y1427000D01*
X978000D01*
X973000Y1422000D01*
Y1418253D01*
X971102Y1415413D01*
X969628Y1408000D01*
X971102Y1400587D01*
X975302Y1394302D01*
X981587Y1390102D01*
X989000Y1388628D01*
X996413Y1390102D01*
X1002698Y1394302D01*
X1003165Y1395000D01*
X1015000D01*
X1021566Y1401566D01*
X1045434D01*
X1046000Y1401000D01*
Y1379000D01*
X1044157Y1377157D01*
X929843D01*
X922000Y1385000D01*
Y1392087D01*
X922598D01*
Y1462024D01*
X831402D01*
Y1459000D01*
X798000D01*
Y1547000D01*
X801000D01*
Y1667000D01*
X444000D01*
X421000Y1690000D01*
Y1778000D01*
X413000Y1786000D01*
X311000D01*
X299000Y1799000D01*
Y1800000D01*
Y1905000D01*
X324000Y1930000D01*
X593000D01*
X629000Y1966000D01*
Y2115000D01*
X632000Y2118000D01*
X790000D01*
X810000Y2098000D01*
D02*
G37*
G36*
X1244000Y1464000D02*
X1240000Y1460000D01*
X1216000D01*
X1215000Y1461000D01*
Y1508000D01*
X1229921Y1522921D01*
X1232693D01*
Y1565000D01*
X1244000D01*
Y1464000D01*
D02*
G37*
G36*
X2062000Y1597000D02*
Y1464000D01*
X2051000Y1453000D01*
X2036000D01*
X2004000Y1421000D01*
X1744000D01*
X1738000Y1427000D01*
Y1609000D01*
X1741000Y1612000D01*
X2047000D01*
X2062000Y1597000D01*
D02*
G37*
G36*
X611000Y1608000D02*
Y1425000D01*
X605000Y1419000D01*
X281000Y1419000D01*
X275715Y1424285D01*
Y1605715D01*
X282000Y1612000D01*
X607000D01*
X611000Y1608000D01*
D02*
G37*
G36*
X1720000Y1384000D02*
Y1243000D01*
X1716000Y1239000D01*
X1594000D01*
Y1389000D01*
X1646813D01*
X1649591Y1387143D01*
X1657005Y1385669D01*
X1664418Y1387143D01*
X1667197Y1389000D01*
X1715000D01*
X1720000Y1384000D01*
D02*
G37*
G36*
X606000Y1195000D02*
X600000Y1189000D01*
X286000D01*
X275715Y1199285D01*
Y1355715D01*
X280000Y1360000D01*
X289272D01*
X290262Y1359339D01*
X297992Y1357801D01*
X305722Y1359339D01*
X312275Y1363717D01*
X316654Y1370270D01*
X316997Y1371997D01*
X328000Y1383000D01*
X605000D01*
X606000Y1195000D01*
D02*
G37*
G36*
X1107441Y1368394D02*
X1149000D01*
Y1356835D01*
X1107441D01*
Y1356000D01*
X1056000D01*
X1031000Y1331000D01*
Y1308000D01*
X1028000Y1305000D01*
X920000D01*
X911869Y1296869D01*
X834131D01*
X831000Y1300000D01*
Y1340000D01*
X860000Y1369000D01*
X1107441D01*
Y1368394D01*
D02*
G37*
G36*
X2062000Y1375000D02*
Y1233000D01*
X2044000Y1215000D01*
X2043871D01*
X2042000Y1215372D01*
X2040129Y1215000D01*
X2016000D01*
X2011000Y1210000D01*
Y1198000D01*
X2004000Y1191000D01*
X1742000D01*
X1737000Y1196000D01*
Y1379000D01*
X1743000Y1385000D01*
X2052000D01*
X2062000Y1375000D01*
D02*
G37*
G36*
X1418000Y1172000D02*
X1421000Y1169000D01*
X1421189D01*
Y1165362D01*
X1460811D01*
Y1169000D01*
X1530000D01*
X1538000Y1161000D01*
X1538000Y993000D01*
X1500894Y993000D01*
X1492999Y1000894D01*
X1492999Y1017159D01*
X1493068Y1017173D01*
X1498319Y1020682D01*
X1501827Y1025932D01*
X1503059Y1032126D01*
Y1047874D01*
X1501827Y1054068D01*
X1498319Y1059319D01*
X1493068Y1062827D01*
X1493000Y1062841D01*
X1493000Y1088000D01*
X1474000Y1107000D01*
X1464745D01*
X1458372Y1113372D01*
X1454072Y1116246D01*
X1453675Y1116325D01*
X1453000Y1117000D01*
X1450280D01*
X1449000Y1117255D01*
X1391030D01*
X1393550Y1121026D01*
X1395024Y1128439D01*
X1393550Y1135852D01*
X1389350Y1142137D01*
X1383066Y1146337D01*
X1375652Y1147811D01*
X1368239Y1146337D01*
X1361954Y1142137D01*
X1357755Y1135852D01*
X1356280Y1128439D01*
X1357755Y1121026D01*
X1360274Y1117255D01*
X1313545D01*
X1312265Y1117000D01*
X1305000D01*
X1276000Y1088000D01*
Y1059000D01*
X1273000Y1056000D01*
X1248000D01*
X1247000Y1057000D01*
Y1089000D01*
X1231000Y1105000D01*
Y1146000D01*
X1256000Y1171000D01*
X1347719D01*
X1349000Y1170745D01*
X1351189D01*
Y1165370D01*
X1390811D01*
Y1171000D01*
X1393000D01*
Y1195000D01*
X1418000D01*
Y1172000D01*
D02*
G37*
G36*
X1716000Y1159000D02*
Y1011000D01*
X1616000D01*
Y1165000D01*
X1637835D01*
X1638302Y1164302D01*
X1644587Y1160102D01*
X1652000Y1158628D01*
X1659413Y1160102D01*
X1665698Y1164302D01*
X1666165Y1165000D01*
X1710000D01*
X1716000Y1159000D01*
D02*
G37*
G36*
X607000Y1153000D02*
Y968000D01*
X596000Y957000D01*
X282000D01*
X275715Y963285D01*
Y1110715D01*
X284000Y1119000D01*
X286776D01*
X289262Y1117339D01*
X296992Y1115801D01*
X304722Y1117339D01*
X307209Y1119000D01*
X314000D01*
X351000Y1156000D01*
X604000D01*
X607000Y1153000D01*
D02*
G37*
G36*
X2062000Y1141000D02*
Y1005000D01*
X2050000Y993000D01*
X2049000D01*
X2030000Y974000D01*
X1993000D01*
X1983000Y964000D01*
X1741000D01*
X1737000Y968000D01*
Y1152000D01*
X1741000Y1156000D01*
X2047000D01*
X2062000Y1141000D01*
D02*
G37*
G36*
X769000Y1520000D02*
Y1328000D01*
X750000D01*
X757000Y1321000D01*
Y1104000D01*
X787000D01*
Y920000D01*
X819782D01*
X825262Y916338D01*
X832992Y914801D01*
X840722Y916338D01*
X846202Y920000D01*
X851000D01*
Y926292D01*
X851654Y927270D01*
X853191Y935000D01*
X851654Y942730D01*
X851000Y943708D01*
Y960658D01*
X851662Y961648D01*
X853199Y969378D01*
X851662Y977108D01*
X851000Y978098D01*
Y1005000D01*
Y1012292D01*
X851654Y1013270D01*
X853191Y1021000D01*
X851654Y1028730D01*
X851000Y1029708D01*
Y1047292D01*
X851654Y1048270D01*
X853191Y1056000D01*
X851654Y1063730D01*
X851000Y1064708D01*
Y1098292D01*
X851654Y1099270D01*
X853191Y1107000D01*
X851654Y1114730D01*
X851000Y1115708D01*
Y1133292D01*
X851654Y1134270D01*
X853191Y1142000D01*
X851654Y1149730D01*
X851000Y1150708D01*
Y1160000D01*
X846000Y1165000D01*
X797000D01*
X794000Y1168000D01*
Y1256000D01*
X909000D01*
X913000Y1252000D01*
Y1212500D01*
X915500D01*
X923000Y1205000D01*
X940000D01*
Y1156000D01*
X947315Y1148685D01*
Y1144693D01*
X951307D01*
X954000Y1142000D01*
X969842D01*
X971331Y1141006D01*
X978354Y1139609D01*
X1040284D01*
X1046142Y1140774D01*
X1047307Y1141006D01*
X1048796Y1142000D01*
X1081000D01*
Y1180150D01*
X1081316Y1180361D01*
X1083352Y1182398D01*
X1087698Y1185302D01*
X1091898Y1191587D01*
X1093372Y1199000D01*
X1091898Y1206413D01*
X1087698Y1212698D01*
X1081413Y1216898D01*
X1074000Y1218372D01*
X1070229Y1217622D01*
X1069000Y1223800D01*
Y1286000D01*
X1070000Y1287000D01*
X1094000D01*
X1108594Y1272406D01*
X1108000Y1271516D01*
X1106525Y1264102D01*
X1108000Y1256689D01*
X1109000Y1255192D01*
Y1253000D01*
X1119000Y1243000D01*
Y1026811D01*
X1118008D01*
Y1025008D01*
X1113000Y1020000D01*
X1110000D01*
Y967000D01*
X1104000Y961000D01*
X1086303D01*
X1079000Y968303D01*
Y977000D01*
X1063000Y993000D01*
X950000D01*
Y923000D01*
X959000Y914000D01*
X985000D01*
X994000Y923000D01*
Y950000D01*
X996000Y952000D01*
X1019000D01*
X1020000Y951000D01*
Y837000D01*
X1019000Y836000D01*
Y835000D01*
X1017000Y833000D01*
X998515D01*
X996071Y834633D01*
X988341Y836171D01*
X985000Y835506D01*
X982455Y835000D01*
X980611Y834633D01*
X978167Y833000D01*
X974058Y830255D01*
X969679Y823702D01*
X968142Y815972D01*
X969679Y808242D01*
X974058Y801689D01*
X978082Y799000D01*
X885000Y799000D01*
D01*
X848000D01*
X846302Y800698D01*
X846110Y801661D01*
X841911Y807946D01*
X835626Y812145D01*
X834663Y812337D01*
X833000Y814000D01*
X809000D01*
X809000Y726000D01*
X887000D01*
X898000Y715000D01*
Y656000D01*
X907000Y647000D01*
X933000D01*
X957778Y622222D01*
Y590446D01*
X961315Y586912D01*
Y585693D01*
X997315D01*
Y590489D01*
X1097436Y590598D01*
X1098302Y589302D01*
X1104587Y585102D01*
X1112000Y583628D01*
X1119413Y585102D01*
X1125698Y589302D01*
X1126586Y590630D01*
X1143649Y590649D01*
X1162000Y609000D01*
Y616189D01*
X1164638D01*
Y631638D01*
X1169000Y636000D01*
X1322000D01*
X1325685Y632315D01*
Y616595D01*
X1326617Y611913D01*
X1327000Y611339D01*
Y609000D01*
X1341000Y595000D01*
X1342213D01*
X1342872Y594341D01*
X1346841Y591688D01*
X1348677Y591323D01*
X1353183Y586817D01*
X1353189Y586812D01*
Y586811D01*
Y584362D01*
X1392811D01*
Y590921D01*
X1419651Y590950D01*
X1423189Y587417D01*
Y584362D01*
X1462811D01*
Y590757D01*
X1463000D01*
Y595352D01*
X1466695Y596087D01*
X1470664Y598739D01*
X1482388Y610463D01*
X1485040Y614432D01*
X1485971Y619114D01*
Y649820D01*
X1512659Y676509D01*
X1515312Y680478D01*
X1516243Y685160D01*
Y720189D01*
X1520008D01*
Y724197D01*
X1524713Y729000D01*
X1626000Y729000D01*
Y946467D01*
X1630619Y948381D01*
X1635188Y943812D01*
X1635581Y941837D01*
X1639960Y935284D01*
X1646513Y930905D01*
X1654243Y929368D01*
X1661973Y930905D01*
X1663611Y932000D01*
X1709000D01*
X1715000Y926000D01*
Y781732D01*
X1648189D01*
Y747647D01*
X1647915Y746268D01*
X1647915Y746267D01*
Y728419D01*
X1644717Y726283D01*
X1640339Y719730D01*
X1638801Y712000D01*
X1640339Y704270D01*
X1644717Y697717D01*
X1651270Y693338D01*
X1659000Y691801D01*
X1666730Y693338D01*
D01*
X1673283Y697717D01*
X1674698Y699835D01*
X1677661Y704270D01*
X1679199Y712000D01*
X1677661Y719730D01*
X1676463Y721523D01*
Y732268D01*
X1715000D01*
Y732000D01*
X1726000D01*
X1736000Y722000D01*
X1847770D01*
X1849287Y717000D01*
X1846717Y715283D01*
X1842339Y708730D01*
X1840801Y701000D01*
X1842339Y693270D01*
X1846717Y686717D01*
X1853270Y682338D01*
X1861000Y680801D01*
X1868730Y682338D01*
X1875283Y686717D01*
X1879661Y693270D01*
X1881199Y701000D01*
X1879661Y708730D01*
X1875283Y715283D01*
X1872713Y717000D01*
X1874230Y722000D01*
X2015000D01*
X2042000Y695000D01*
Y608000D01*
X2030000Y596000D01*
X1962000D01*
X1939000Y573000D01*
Y490000D01*
X1891000Y442000D01*
X1709000D01*
X1709000Y285000D01*
X1702000Y278000D01*
X1514000D01*
Y351000D01*
X1473000Y392000D01*
X1235000D01*
X1171000Y328000D01*
X1138000D01*
X1120000Y310000D01*
Y257000D01*
X1121000Y172000D01*
X823833D01*
X826898Y176587D01*
X828372Y184000D01*
X826898Y191413D01*
X822698Y197698D01*
X820483Y199178D01*
X824283Y201717D01*
X828662Y208270D01*
X830199Y216000D01*
X828662Y223730D01*
X824283Y230283D01*
X817730Y234661D01*
X810000Y236199D01*
X802270Y234661D01*
X795717Y230283D01*
X791338Y223730D01*
X789801Y216000D01*
X791338Y208270D01*
X795717Y201717D01*
X798517Y199846D01*
X795302Y197698D01*
X791102Y191413D01*
X789628Y184000D01*
X791102Y176587D01*
X794167Y172000D01*
X636000D01*
X627000Y181000D01*
Y367000D01*
X632000Y372000D01*
X695000D01*
X710000Y387000D01*
Y417000D01*
X710000Y466000D01*
X679697D01*
X679603Y465906D01*
X679462Y466000D01*
D01*
X673318Y470105D01*
X665905Y471580D01*
X658491Y470105D01*
X652206Y465906D01*
X648007Y459621D01*
X646532Y452207D01*
X646716Y451283D01*
X645726Y446303D01*
X645726Y446302D01*
Y439000D01*
X482000Y439000D01*
X458007Y462993D01*
X457661Y464730D01*
X453283Y471283D01*
X446730Y475661D01*
X439000Y477199D01*
X431270Y475661D01*
X427287Y473000D01*
X422000D01*
X413000Y482000D01*
Y571000D01*
X409000Y575000D01*
X318000D01*
X304000Y589000D01*
Y678000D01*
X319000Y693000D01*
X469000D01*
X497000Y721000D01*
X630000D01*
X630000Y876000D01*
X702000D01*
Y936078D01*
X703533Y938373D01*
X705008Y945787D01*
X703533Y953200D01*
X699334Y959485D01*
X693049Y963684D01*
X685636Y965159D01*
X679811Y964000D01*
X632000D01*
X630000Y966000D01*
Y1104000D01*
X703000D01*
Y1161597D01*
X704814Y1164312D01*
X706289Y1171726D01*
X704814Y1179139D01*
X700615Y1185424D01*
X694330Y1189623D01*
X686917Y1191098D01*
X679503Y1189623D01*
X675578Y1187000D01*
X638164D01*
X630000Y1195164D01*
Y1333000D01*
X694000Y1333561D01*
Y1339268D01*
X696543D01*
Y1372251D01*
X697091Y1375006D01*
Y1388806D01*
X700714Y1394228D01*
X702189Y1401642D01*
X700714Y1409055D01*
X696515Y1415340D01*
X690230Y1419539D01*
X682817Y1421014D01*
X675403Y1419539D01*
X669119Y1415340D01*
X668223Y1414000D01*
X640000D01*
X630000Y1424000D01*
Y1560000D01*
X729000D01*
X769000Y1520000D01*
D02*
G37*
G36*
X1244252Y931095D02*
X1271906D01*
X1289000Y914000D01*
Y872000D01*
X1284000Y867000D01*
X1247000D01*
Y887250D01*
X1249898Y891587D01*
X1251372Y899000D01*
X1249898Y906413D01*
X1245698Y912698D01*
X1239413Y916898D01*
X1239025Y916975D01*
X1236000Y920000D01*
X1231000D01*
Y931095D01*
X1232693D01*
Y973000D01*
X1244252D01*
Y931095D01*
D02*
G37*
G36*
X1033000Y777000D02*
X1107441D01*
Y776567D01*
X1149000D01*
Y765008D01*
X1107441D01*
Y765000D01*
X1034000D01*
X1018000Y749000D01*
X913000D01*
X911000Y751000D01*
Y789000D01*
X912000Y790000D01*
X1020000D01*
X1033000Y777000D01*
D02*
G37*
G36*
X2062000Y917000D02*
Y746000D01*
X2054000Y738000D01*
X1741000D01*
X1738000Y741000D01*
Y923000D01*
X1742000Y927000D01*
X2052000D01*
X2062000Y917000D01*
D02*
G37*
G36*
X606000Y924000D02*
Y739000D01*
X604000Y737000D01*
X450000D01*
X436000Y723000D01*
X282000D01*
X275715Y729285D01*
Y730715D01*
X276000Y731000D01*
Y888000D01*
X284000Y896000D01*
X311000D01*
X342000Y927000D01*
X603000D01*
X606000Y924000D01*
D02*
G37*
G36*
X2062000Y412000D02*
Y241000D01*
X2053000Y232000D01*
X1733000D01*
X1730000Y235000D01*
Y418000D01*
X1734000Y422000D01*
X2052000D01*
X2062000Y412000D01*
D02*
G37*
G36*
X608000Y420000D02*
Y216936D01*
X596064Y205000D01*
X299000D01*
X275715Y228285D01*
Y414715D01*
X282000Y421000D01*
X602000Y422000D01*
X606000D01*
X608000Y420000D01*
D02*
G37*
G36*
X1497000Y344000D02*
Y202000D01*
X1465085Y170085D01*
X1141000D01*
Y309000D01*
X1146000Y314000D01*
X1184000D01*
X1245000Y375000D01*
X1466000D01*
X1497000Y344000D01*
D02*
G37*
%LPC*%
G36*
X1777141Y1872841D02*
X1761630D01*
X1760449Y1872606D01*
X1759244D01*
X1744031Y1869580D01*
X1742918Y1869119D01*
X1741736Y1868884D01*
X1727406Y1862948D01*
X1726404Y1862279D01*
X1725291Y1861818D01*
X1712394Y1853201D01*
X1711542Y1852349D01*
X1710540Y1851679D01*
X1699573Y1840711D01*
X1698903Y1839710D01*
X1698051Y1838858D01*
X1689434Y1825961D01*
X1688973Y1824848D01*
X1688303Y1823846D01*
X1682368Y1809516D01*
X1682133Y1808334D01*
X1681671Y1807221D01*
X1678646Y1792008D01*
Y1790803D01*
X1678410Y1789621D01*
Y1774111D01*
X1678646Y1772929D01*
Y1771724D01*
X1681671Y1756512D01*
X1682133Y1755398D01*
X1682368Y1754216D01*
X1688303Y1739886D01*
X1688973Y1738884D01*
X1689434Y1737771D01*
X1698051Y1724875D01*
X1698903Y1724023D01*
X1699573Y1723021D01*
X1710540Y1712053D01*
X1711542Y1711384D01*
X1712394Y1710531D01*
X1725291Y1701914D01*
X1726404Y1701453D01*
X1727406Y1700784D01*
X1741736Y1694848D01*
X1742918Y1694613D01*
X1744031Y1694152D01*
X1759244Y1691126D01*
X1760448D01*
X1761630Y1690891D01*
X1777141D01*
X1778323Y1691126D01*
X1779528D01*
X1794740Y1694152D01*
X1795853Y1694613D01*
X1797035Y1694848D01*
X1811365Y1700784D01*
X1812367Y1701453D01*
X1813481Y1701914D01*
X1826377Y1710531D01*
X1827229Y1711383D01*
X1828231Y1712053D01*
X1839199Y1723021D01*
X1839868Y1724022D01*
X1840720Y1724875D01*
X1849338Y1737771D01*
X1849799Y1738884D01*
X1850468Y1739886D01*
X1856404Y1754216D01*
X1856639Y1755398D01*
X1857100Y1756511D01*
X1860126Y1771724D01*
Y1772929D01*
X1860361Y1774111D01*
Y1789621D01*
X1860126Y1790803D01*
Y1792008D01*
X1857100Y1807221D01*
X1856639Y1808334D01*
X1856404Y1809516D01*
X1850468Y1823846D01*
X1849799Y1824848D01*
X1849338Y1825961D01*
X1840720Y1838857D01*
X1839868Y1839709D01*
X1839199Y1840711D01*
X1828231Y1851679D01*
X1827229Y1852349D01*
X1826377Y1853201D01*
X1813481Y1861818D01*
X1812367Y1862279D01*
X1811365Y1862948D01*
X1797036Y1868884D01*
X1795854Y1869119D01*
X1794740Y1869580D01*
X1779528Y1872606D01*
X1778323D01*
X1777141Y1872841D01*
D02*
G37*
G36*
X963000Y1784372D02*
X955587Y1782898D01*
X949302Y1778698D01*
X945102Y1772413D01*
X943628Y1765000D01*
X945102Y1757587D01*
X949302Y1751302D01*
X955587Y1747102D01*
X963000Y1745628D01*
X970413Y1747102D01*
X976698Y1751302D01*
X980898Y1757587D01*
X982372Y1765000D01*
X980898Y1772413D01*
X976698Y1778698D01*
X970413Y1782898D01*
X963000Y1784372D01*
D02*
G37*
G36*
X576354Y1872841D02*
X560843D01*
X559661Y1872606D01*
X558456D01*
X543244Y1869580D01*
X542131Y1869119D01*
X540949Y1868884D01*
X526619Y1862948D01*
X525617Y1862279D01*
X524504Y1861818D01*
X511607Y1853201D01*
X510755Y1852349D01*
X509753Y1851679D01*
X498785Y1840711D01*
X498116Y1839710D01*
X497264Y1838858D01*
X488647Y1825961D01*
X488185Y1824848D01*
X487516Y1823846D01*
X481580Y1809516D01*
X481345Y1808334D01*
X480884Y1807221D01*
X477858Y1792008D01*
Y1790803D01*
X477623Y1789621D01*
Y1781866D01*
Y1774111D01*
X477858Y1772929D01*
Y1771724D01*
X480884Y1756512D01*
X481345Y1755398D01*
X481580Y1754216D01*
X487516Y1739886D01*
X488185Y1738884D01*
X488647Y1737771D01*
X497264Y1724875D01*
X498116Y1724023D01*
X498785Y1723021D01*
X509753Y1712053D01*
X510755Y1711384D01*
X511607Y1710531D01*
X524504Y1701914D01*
X525617Y1701453D01*
X526619Y1700784D01*
X540948Y1694848D01*
X542131Y1694613D01*
X543244Y1694152D01*
X558456Y1691126D01*
X559661D01*
X560843Y1690891D01*
X576354D01*
X577536Y1691126D01*
X578740D01*
X593953Y1694152D01*
X595066Y1694613D01*
X596248Y1694848D01*
X610578Y1700784D01*
X611580Y1701453D01*
X612693Y1701914D01*
X625590Y1710531D01*
X626442Y1711383D01*
X627444Y1712053D01*
X638000Y1722609D01*
X638411Y1723021D01*
X639081Y1724022D01*
X639933Y1724875D01*
X648550Y1737771D01*
X649011Y1738884D01*
X649681Y1739886D01*
X655616Y1754216D01*
Y1754216D01*
X655851Y1755398D01*
X656313Y1756511D01*
X659339Y1771724D01*
Y1772929D01*
D01*
X659574Y1774111D01*
Y1781866D01*
Y1789621D01*
X659339Y1790803D01*
Y1792008D01*
X656313Y1807221D01*
X655851Y1808334D01*
X655616Y1809516D01*
X649681Y1823846D01*
X649011Y1824848D01*
X648550Y1825961D01*
X639933Y1838857D01*
X639933Y1838858D01*
X639081Y1839709D01*
X638411Y1840711D01*
X638000Y1841123D01*
X627444Y1851679D01*
X626442Y1852349D01*
X625590Y1853201D01*
X612693Y1861818D01*
X611580Y1862279D01*
X610578Y1862948D01*
X596248Y1868884D01*
X595066Y1869119D01*
X593953Y1869580D01*
X578741Y1872606D01*
X577535D01*
X576354Y1872841D01*
D02*
G37*
G36*
X876000Y1678372D02*
X868587Y1676898D01*
X862302Y1672698D01*
X858102Y1666413D01*
X856628Y1659000D01*
X858102Y1651587D01*
X862302Y1645302D01*
X868587Y1641102D01*
X876000Y1639628D01*
X883413Y1641102D01*
X889698Y1645302D01*
X893898Y1651587D01*
X895372Y1659000D01*
X893898Y1666413D01*
X889698Y1672698D01*
X883413Y1676898D01*
X876000Y1678372D01*
D02*
G37*
G36*
X1261000Y1152199D02*
X1253270Y1150661D01*
X1246717Y1146283D01*
X1242339Y1139730D01*
X1240801Y1132000D01*
X1242339Y1124270D01*
X1246717Y1117717D01*
X1253270Y1113339D01*
X1261000Y1111801D01*
X1268730Y1113339D01*
X1275283Y1117717D01*
X1279661Y1124270D01*
X1281199Y1132000D01*
X1279661Y1139730D01*
X1275283Y1146283D01*
X1268730Y1150661D01*
X1261000Y1152199D01*
D02*
G37*
G36*
X973535Y1114683D02*
X966121Y1113208D01*
X959837Y1109009D01*
X955637Y1102724D01*
X954163Y1095311D01*
X955637Y1087897D01*
X959837Y1081613D01*
X966121Y1077413D01*
X973535Y1075939D01*
X980948Y1077413D01*
X987233Y1081613D01*
X991432Y1087897D01*
X992907Y1095311D01*
X991432Y1102724D01*
X987233Y1109009D01*
X980948Y1113208D01*
X973535Y1114683D01*
D02*
G37*
G36*
X975000Y1045138D02*
X967587Y1043663D01*
X961302Y1039464D01*
X957102Y1033179D01*
X955628Y1025765D01*
X957102Y1018352D01*
X961302Y1012067D01*
X967587Y1007868D01*
X975000Y1006393D01*
X982413Y1007868D01*
X988698Y1012067D01*
X992898Y1018352D01*
X994372Y1025765D01*
X992898Y1033179D01*
X988698Y1039464D01*
X982413Y1043663D01*
X975000Y1045138D01*
D02*
G37*
G36*
X880000Y891372D02*
X872587Y889898D01*
X866302Y885698D01*
X862102Y879413D01*
X860628Y872000D01*
X862102Y864587D01*
X866302Y858302D01*
X872587Y854102D01*
X880000Y852628D01*
X887000Y854020D01*
D01*
X887413Y854102D01*
X893698Y858302D01*
X897898Y864587D01*
X899372Y872000D01*
X897898Y879413D01*
X893698Y885698D01*
X887413Y889898D01*
X880000Y891372D01*
D02*
G37*
G36*
X832000Y892199D02*
X824270Y890662D01*
X817717Y886283D01*
X813338Y879730D01*
X811801Y872000D01*
X813338Y864270D01*
X817717Y857717D01*
X824270Y853338D01*
X832000Y851801D01*
X839730Y853338D01*
X846283Y857717D01*
X850662Y864270D01*
X852199Y872000D01*
X850662Y879730D01*
X846283Y886283D01*
X839730Y890662D01*
X832000Y892199D01*
D02*
G37*
G36*
X1777141Y672054D02*
X1761630D01*
X1760449Y671819D01*
X1759244D01*
X1744031Y668793D01*
X1742918Y668332D01*
X1741736Y668097D01*
X1727406Y662161D01*
X1726404Y661492D01*
X1725291Y661030D01*
X1715000Y654154D01*
D01*
X1712394Y652413D01*
X1711542Y651561D01*
X1710540Y650892D01*
X1708649Y649000D01*
X1699573Y639924D01*
X1698903Y638922D01*
X1698051Y638070D01*
X1689434Y625173D01*
X1688973Y624060D01*
X1688303Y623058D01*
X1682368Y608729D01*
X1682133Y607546D01*
X1681671Y606433D01*
X1678646Y591221D01*
Y590016D01*
X1678410Y588834D01*
Y573323D01*
X1678646Y572141D01*
Y570937D01*
X1681671Y555724D01*
X1682133Y554611D01*
X1682368Y553429D01*
X1688303Y539099D01*
X1688973Y538097D01*
X1689434Y536984D01*
X1698051Y524087D01*
X1698903Y523235D01*
X1699573Y522233D01*
X1710540Y511266D01*
X1711542Y510596D01*
X1712394Y509744D01*
X1725291Y501127D01*
X1726404Y500666D01*
X1727406Y499996D01*
X1741736Y494061D01*
X1742918Y493825D01*
X1744031Y493364D01*
X1759244Y490339D01*
X1760448D01*
X1761630Y490103D01*
X1777141D01*
X1778323Y490339D01*
X1779528D01*
X1794740Y493364D01*
X1795853Y493825D01*
X1797035Y494061D01*
X1811365Y499996D01*
X1812367Y500666D01*
X1813481Y501127D01*
X1826377Y509744D01*
X1827229Y510596D01*
X1828231Y511266D01*
X1839199Y522233D01*
X1839868Y523235D01*
X1840720Y524087D01*
X1849338Y536984D01*
X1849799Y538097D01*
X1850468Y539099D01*
X1856404Y553429D01*
X1856639Y554611D01*
X1857100Y555724D01*
X1860126Y570936D01*
Y572141D01*
X1860361Y573323D01*
Y588834D01*
X1860126Y590016D01*
Y591221D01*
X1857100Y606433D01*
X1856639Y607546D01*
X1856404Y608728D01*
X1850468Y623058D01*
X1849799Y624060D01*
X1849338Y625173D01*
X1840720Y638070D01*
X1839868Y638922D01*
X1839199Y639924D01*
X1828231Y650892D01*
X1827229Y651561D01*
X1826377Y652413D01*
X1813481Y661030D01*
X1812367Y661492D01*
X1811365Y662161D01*
X1797036Y668097D01*
X1795854Y668332D01*
X1794740Y668793D01*
X1779528Y671819D01*
X1778323D01*
X1777141Y672054D01*
D02*
G37*
G36*
X576354D02*
X560843D01*
X559661Y671819D01*
X558456D01*
X543244Y668793D01*
X542131Y668332D01*
X540949Y668097D01*
X526619Y662161D01*
X525617Y661492D01*
X524504Y661030D01*
X511607Y652413D01*
X510755Y651561D01*
X509753Y650892D01*
X498785Y639924D01*
X498116Y638922D01*
X497264Y638070D01*
X488647Y625173D01*
X488185Y624060D01*
X487516Y623058D01*
X481580Y608729D01*
X481345Y607546D01*
X480884Y606433D01*
X477858Y591221D01*
Y590016D01*
X477623Y588834D01*
Y581079D01*
Y573323D01*
X477858Y572141D01*
Y570937D01*
X480884Y555724D01*
X481345Y554611D01*
X481580Y553429D01*
X487516Y539099D01*
X488185Y538097D01*
X488647Y536984D01*
X497264Y524087D01*
X498116Y523235D01*
X498785Y522233D01*
X509753Y511266D01*
X510755Y510596D01*
X511607Y509744D01*
X524504Y501127D01*
X525617Y500666D01*
X526619Y499996D01*
X540948Y494061D01*
X542131Y493825D01*
X543244Y493364D01*
X558456Y490339D01*
X559661D01*
X560843Y490103D01*
X576354D01*
X577536Y490339D01*
X578740D01*
X593953Y493364D01*
X595066Y493825D01*
X596248Y494061D01*
X610578Y499996D01*
X611580Y500666D01*
X612693Y501127D01*
X625590Y509744D01*
X626442Y510596D01*
X627444Y511266D01*
X630000Y513822D01*
X638411Y522233D01*
X639081Y523235D01*
X639933Y524087D01*
X648550Y536984D01*
X649011Y538097D01*
X649681Y539099D01*
X655616Y553429D01*
Y553429D01*
X655851Y554611D01*
X656313Y555724D01*
X659339Y570936D01*
Y572141D01*
X659574Y573323D01*
Y581079D01*
Y588834D01*
X659339Y590016D01*
Y591221D01*
X656313Y606433D01*
X655851Y607546D01*
D01*
X655616Y608728D01*
X649681Y623058D01*
X649011Y624060D01*
X648550Y625173D01*
X639933Y638070D01*
X639081Y638922D01*
D01*
X638411Y639924D01*
X630000Y648336D01*
X627444Y650892D01*
X626442Y651561D01*
X625590Y652413D01*
X612693Y661030D01*
X611580Y661492D01*
X610578Y662161D01*
X596248Y668097D01*
X595066Y668332D01*
X593953Y668793D01*
X578741Y671819D01*
X577535D01*
X576354Y672054D01*
D02*
G37*
%LPD*%
D10*
X760000Y1181102D02*
D03*
D11*
X1165000Y511000D02*
D03*
D12*
X1316000Y1868992D02*
D03*
Y1903008D02*
D03*
X1441000Y1183992D02*
D03*
Y1218008D02*
D03*
X1371000Y1218016D02*
D03*
Y1184000D02*
D03*
X986000Y1540984D02*
D03*
Y1575000D02*
D03*
X1058000Y1575008D02*
D03*
Y1540992D02*
D03*
X1302000Y1671000D02*
D03*
Y1636984D02*
D03*
X1232000Y1636992D02*
D03*
Y1671008D02*
D03*
X1337000D02*
D03*
Y1636992D02*
D03*
X1406000Y1218008D02*
D03*
Y1183992D02*
D03*
X1022000Y1575008D02*
D03*
Y1540992D02*
D03*
X1267000Y1636992D02*
D03*
Y1671008D02*
D03*
X1144000Y1180992D02*
D03*
Y1215008D02*
D03*
X1443000Y602992D02*
D03*
Y637008D02*
D03*
X1373000D02*
D03*
Y602992D02*
D03*
X972000Y939992D02*
D03*
Y974008D02*
D03*
X1043000D02*
D03*
Y939992D02*
D03*
X1296000Y1069008D02*
D03*
Y1034992D02*
D03*
X1226000D02*
D03*
Y1069008D02*
D03*
X1331000D02*
D03*
Y1034992D02*
D03*
X1408000Y637008D02*
D03*
Y602992D02*
D03*
X1007000Y974008D02*
D03*
Y939992D02*
D03*
X1261000Y1034992D02*
D03*
Y1069008D02*
D03*
D13*
X1987000Y1849945D02*
D03*
Y1738055D02*
D03*
X351000Y1849945D02*
D03*
Y1738055D02*
D03*
Y632945D02*
D03*
Y521055D02*
D03*
X1987000Y632945D02*
D03*
Y521055D02*
D03*
X1464000Y2136945D02*
D03*
Y2025055D02*
D03*
X877000Y1538945D02*
D03*
Y1427055D02*
D03*
D14*
X325000Y2045000D02*
D03*
Y339000D02*
D03*
Y816000D02*
D03*
Y1037000D02*
D03*
Y1270000D02*
D03*
Y1532000D02*
D03*
X2012000Y2088000D02*
D03*
Y1532000D02*
D03*
Y1304000D02*
D03*
Y339000D02*
D03*
Y843000D02*
D03*
Y1073000D02*
D03*
D15*
X1459275Y1648338D02*
D03*
X1417000Y1649000D02*
D03*
X1439000Y1040000D02*
D03*
X1479000D02*
D03*
D16*
X1052315Y1484000D02*
D03*
X991685D02*
D03*
X1043315Y888000D02*
D03*
X982685D02*
D03*
X965315Y1171000D02*
D03*
X904685D02*
D03*
X979315Y612000D02*
D03*
X918685D02*
D03*
D17*
X530078Y1061000D02*
D03*
Y832000D02*
D03*
X530079Y327000D02*
D03*
X1814921Y1061000D02*
D03*
X530078Y1289000D02*
D03*
Y1517000D02*
D03*
Y2074000D02*
D03*
X1814653Y1289000D02*
D03*
Y1517000D02*
D03*
X1814921Y2074000D02*
D03*
X1806653Y327000D02*
D03*
X1814653Y832000D02*
D03*
D18*
X435590Y986000D02*
D03*
Y1036000D02*
D03*
Y1086000D02*
D03*
Y1136000D02*
D03*
Y757000D02*
D03*
Y807000D02*
D03*
Y857000D02*
D03*
Y907000D02*
D03*
X435591Y252000D02*
D03*
Y302000D02*
D03*
Y352000D02*
D03*
Y402000D02*
D03*
X1909409Y986000D02*
D03*
Y1036000D02*
D03*
Y1086000D02*
D03*
Y1136000D02*
D03*
X435590Y1364000D02*
D03*
Y1314000D02*
D03*
Y1264000D02*
D03*
Y1214000D02*
D03*
Y1592000D02*
D03*
Y1542000D02*
D03*
Y1492000D02*
D03*
Y1442000D02*
D03*
Y2149000D02*
D03*
Y2099000D02*
D03*
Y2049000D02*
D03*
Y1999000D02*
D03*
X1909142Y1214000D02*
D03*
Y1264000D02*
D03*
Y1314000D02*
D03*
Y1364000D02*
D03*
Y1442000D02*
D03*
Y1492000D02*
D03*
Y1542000D02*
D03*
Y1592000D02*
D03*
X1909409Y1999000D02*
D03*
Y2049000D02*
D03*
Y2099000D02*
D03*
Y2149000D02*
D03*
X1901142Y252000D02*
D03*
Y302000D02*
D03*
Y352000D02*
D03*
Y402000D02*
D03*
X1909142Y757000D02*
D03*
Y807000D02*
D03*
Y857000D02*
D03*
Y907000D02*
D03*
D19*
X660000Y1136000D02*
D03*
Y1086000D02*
D03*
Y1036000D02*
D03*
Y986000D02*
D03*
Y907000D02*
D03*
Y857000D02*
D03*
Y807000D02*
D03*
Y757000D02*
D03*
X660000Y402000D02*
D03*
Y352000D02*
D03*
Y302000D02*
D03*
Y252000D02*
D03*
X1685000Y1136000D02*
D03*
Y1086000D02*
D03*
Y1036000D02*
D03*
Y986000D02*
D03*
X660000Y1214000D02*
D03*
Y1264000D02*
D03*
Y1314000D02*
D03*
Y1364000D02*
D03*
Y1442000D02*
D03*
Y1492000D02*
D03*
Y1542000D02*
D03*
Y1592000D02*
D03*
Y1999000D02*
D03*
Y2049000D02*
D03*
Y2099000D02*
D03*
Y2149000D02*
D03*
X1684732Y1364000D02*
D03*
Y1314000D02*
D03*
Y1264000D02*
D03*
Y1214000D02*
D03*
Y1592000D02*
D03*
Y1542000D02*
D03*
Y1492000D02*
D03*
Y1442000D02*
D03*
X1685000Y2149000D02*
D03*
Y2099000D02*
D03*
Y2049000D02*
D03*
Y1999000D02*
D03*
X1676732Y402000D02*
D03*
Y352000D02*
D03*
Y302000D02*
D03*
Y252000D02*
D03*
X1684732Y907000D02*
D03*
Y857000D02*
D03*
Y807000D02*
D03*
Y757000D02*
D03*
D20*
X1580000Y1220472D02*
D03*
D21*
X980000Y275000D02*
D03*
X1356000D02*
D03*
D22*
X987598Y2152559D02*
D03*
X1365551D02*
D03*
D23*
X1314370Y2000000D02*
D03*
X1275000D02*
D03*
X1235630D02*
D03*
X1196260D02*
D03*
X1156890D02*
D03*
X1117520D02*
D03*
X1078150D02*
D03*
X1038780D02*
D03*
D24*
X1021992Y1443000D02*
D03*
X1056008D02*
D03*
X1035992Y1390000D02*
D03*
X1070008D02*
D03*
X1111992Y1596000D02*
D03*
X1146008D02*
D03*
X1502008Y1510000D02*
D03*
X1467992D02*
D03*
X1502008Y1419000D02*
D03*
X1467992D02*
D03*
X1503008Y1329000D02*
D03*
X1468992D02*
D03*
X1008992Y847000D02*
D03*
X1043008D02*
D03*
X1050992Y797000D02*
D03*
X1085008D02*
D03*
X1099992Y1007000D02*
D03*
X1134008D02*
D03*
X1504008Y919000D02*
D03*
X1469992D02*
D03*
X1504008Y830000D02*
D03*
X1469992D02*
D03*
X1504008Y740000D02*
D03*
X1469992D02*
D03*
D25*
X1132173Y1520094D02*
D03*
Y1500409D02*
D03*
Y1480724D02*
D03*
Y1461039D02*
D03*
Y1441354D02*
D03*
Y1421669D02*
D03*
Y1401984D02*
D03*
Y1382299D02*
D03*
Y1362614D02*
D03*
Y1342929D02*
D03*
Y1323244D02*
D03*
Y1303559D02*
D03*
X1403827D02*
D03*
Y1323244D02*
D03*
Y1342929D02*
D03*
Y1362614D02*
D03*
Y1382299D02*
D03*
Y1401984D02*
D03*
Y1421669D02*
D03*
Y1441354D02*
D03*
Y1461039D02*
D03*
Y1480724D02*
D03*
Y1500409D02*
D03*
Y1520094D02*
D03*
X1132173Y928268D02*
D03*
Y908583D02*
D03*
Y888898D02*
D03*
Y869213D02*
D03*
Y849528D02*
D03*
Y829842D02*
D03*
Y810158D02*
D03*
Y790472D02*
D03*
Y770787D02*
D03*
Y751102D02*
D03*
Y731417D02*
D03*
Y711732D02*
D03*
X1403827D02*
D03*
Y731417D02*
D03*
Y751102D02*
D03*
Y770787D02*
D03*
Y790472D02*
D03*
Y810158D02*
D03*
Y829842D02*
D03*
Y849528D02*
D03*
Y869213D02*
D03*
Y888898D02*
D03*
Y908583D02*
D03*
Y928268D02*
D03*
D26*
X1159732Y1276000D02*
D03*
X1179417D02*
D03*
X1199102D02*
D03*
X1218787D02*
D03*
X1238472D02*
D03*
X1258158D02*
D03*
X1277842D02*
D03*
X1297528D02*
D03*
X1317213D02*
D03*
X1336898D02*
D03*
X1356583D02*
D03*
X1376268D02*
D03*
Y1547654D02*
D03*
X1356583D02*
D03*
X1336898D02*
D03*
X1317213D02*
D03*
X1297528D02*
D03*
X1277842D02*
D03*
X1258158D02*
D03*
X1238472D02*
D03*
X1218787D02*
D03*
X1199102D02*
D03*
X1179417D02*
D03*
X1159732D02*
D03*
Y684173D02*
D03*
X1179417D02*
D03*
X1199102D02*
D03*
X1218787D02*
D03*
X1238472D02*
D03*
X1258158D02*
D03*
X1277842D02*
D03*
X1297528D02*
D03*
X1317213D02*
D03*
X1336898D02*
D03*
X1356583D02*
D03*
X1376268D02*
D03*
Y955827D02*
D03*
X1356583D02*
D03*
X1336898D02*
D03*
X1317213D02*
D03*
X1297528D02*
D03*
X1277842D02*
D03*
X1258158D02*
D03*
X1238472D02*
D03*
X1218787D02*
D03*
X1199102D02*
D03*
X1179417D02*
D03*
X1159732D02*
D03*
D27*
X1268000Y1411827D02*
D03*
Y820000D02*
D03*
D28*
X974000Y1326000D02*
D03*
Y1240000D02*
D03*
X965000Y770000D02*
D03*
Y684000D02*
D03*
D29*
X849385Y1320366D02*
D03*
Y1227059D02*
D03*
X847000Y755654D02*
D03*
Y662346D02*
D03*
D30*
X1082000Y1276992D02*
D03*
Y1311008D02*
D03*
X1084000Y690992D02*
D03*
Y725008D02*
D03*
D31*
X1503008Y1364000D02*
D03*
X1468992D02*
D03*
X1502008Y1454000D02*
D03*
X1467992D02*
D03*
X1502008Y1545000D02*
D03*
X1467992D02*
D03*
X1111992Y636000D02*
D03*
X1146008D02*
D03*
X1504008Y775000D02*
D03*
X1469992D02*
D03*
X1504008Y865000D02*
D03*
X1469992D02*
D03*
X1504008Y954000D02*
D03*
X1469992D02*
D03*
D32*
X1078833Y1510343D02*
X1082519D01*
X1092453Y1500409D01*
X1078833Y1510343D02*
Y1521340D01*
X1059181Y1540992D02*
X1078833Y1521340D01*
X1500008Y1307008D02*
Y1324016D01*
X1504000Y1328008D01*
X1497000Y1304000D02*
X1500008Y1307008D01*
X1449000Y1104000D02*
X1471000Y1082000D01*
X1313545Y1104000D02*
X1449000D01*
X1298325Y1088780D02*
X1313545Y1104000D01*
X1432000Y1284112D02*
X1434328Y1281784D01*
X1432000Y1284112D02*
Y1296796D01*
X1426142Y1302654D02*
X1432000Y1296796D01*
X1403827Y1303559D02*
X1404732Y1302654D01*
X1426142D01*
X1434328Y1278537D02*
Y1281784D01*
X1363631Y1382369D02*
X1403757D01*
X1363000Y1383000D02*
X1363631Y1382369D01*
X1403757D02*
X1403827Y1382299D01*
X1277842Y1547654D02*
Y1576873D01*
X1307969Y1607000D02*
X1317958D01*
X1277842Y1576873D02*
X1307969Y1607000D01*
X1159732Y1229559D02*
Y1276000D01*
X1145181Y1215008D02*
X1159732Y1229559D01*
X1144000Y1215008D02*
X1145181D01*
X1109924Y1521000D02*
X1131268D01*
X1089606Y1541318D02*
X1109924Y1521000D01*
X1089606Y1541318D02*
Y1567462D01*
X1131268Y1521000D02*
X1132173Y1520094D01*
X1146447Y1619475D02*
X1146887Y1619915D01*
X1146447Y1596439D02*
Y1619475D01*
X1146008Y1596000D02*
X1146447Y1596439D01*
X1330189Y1619231D02*
Y1631362D01*
X1335819Y1636992D02*
X1337000D01*
X1317958Y1607000D02*
X1330189Y1619231D01*
Y1631362D02*
X1335819Y1636992D01*
X1336898Y1196102D02*
Y1276000D01*
Y1327102D01*
X1324000Y1340000D02*
X1336898Y1327102D01*
X1215143Y1340000D02*
X1324000D01*
X1199102Y1356041D02*
Y1547654D01*
Y1356041D02*
X1215143Y1340000D01*
X1403807Y1461020D02*
X1403827Y1461039D01*
X1364020Y1461020D02*
X1403807D01*
X1364000Y1461000D02*
X1364020Y1461020D01*
X1496000Y1303000D02*
X1497000Y1304000D01*
X1496000Y1192000D02*
Y1303000D01*
X1441000Y1183992D02*
X1487992D01*
X1496000Y1192000D01*
X1406000Y1218008D02*
X1441000D01*
X1371000Y1218016D02*
X1371004Y1218012D01*
X1405996D01*
X1406000Y1218008D01*
X1349000Y1184000D02*
X1371000D01*
X1336898Y1196102D02*
X1349000Y1184000D01*
X1317213Y1244071D02*
Y1276000D01*
X1311142Y1238000D02*
X1317213Y1244071D01*
X1244330Y1238000D02*
X1311142D01*
X1356583Y1231252D02*
Y1276000D01*
Y1231252D02*
X1369819Y1218016D01*
X1371000D01*
X1022000Y1575008D02*
X1058000D01*
X986000Y1575000D02*
X986004Y1575004D01*
X1021996D01*
X1022000Y1575008D01*
X1058000Y1540992D02*
X1059181D01*
X1058000Y1575008D02*
X1082060D01*
X1089606Y1567462D01*
X1092453Y1500409D02*
X1132173D01*
X1267000Y1636992D02*
X1267004Y1636988D01*
X1301996D01*
X1302000Y1636984D01*
X1232000Y1636992D02*
X1267000D01*
X1210008Y1671008D02*
X1232000D01*
X1199102Y1660102D02*
X1210008Y1671008D01*
X1199102Y1547654D02*
Y1660102D01*
X1218787Y1547654D02*
Y1624961D01*
X1230819Y1636992D01*
X1232000D01*
X1238472Y1243858D02*
Y1276000D01*
Y1243858D02*
X1244330Y1238000D01*
X1159732Y1547654D02*
Y1579386D01*
X1149929Y1589189D02*
X1159732Y1579386D01*
X1149008Y1589189D02*
X1149929D01*
X1146008Y1592189D02*
X1149008Y1589189D01*
X1146008Y1592189D02*
Y1596000D01*
X1132173Y1461039D02*
Y1480724D01*
X1052000Y1217000D02*
Y1305000D01*
X1058008Y1311008D02*
X1082000D01*
X1052000Y1305000D02*
X1058008Y1311008D01*
X1089858Y1342929D02*
X1132173D01*
X1082000Y1311008D02*
Y1335071D01*
X1089858Y1342929D01*
X1296000Y1069008D02*
X1298325Y1071333D01*
Y1088780D01*
X1327000Y1008000D02*
X1333000Y1014000D01*
X1285000Y1008000D02*
X1327000D01*
X1277842Y1000842D02*
X1285000Y1008000D01*
X1333000Y1014000D02*
Y1032992D01*
X1331000Y1034992D02*
X1333000Y1032992D01*
X1218787Y955827D02*
Y1028961D01*
X1224819Y1034992D01*
X1226000D01*
X1277842Y955827D02*
Y1000842D01*
X1261000Y1034992D02*
X1296000D01*
X1226000D02*
X1261000D01*
X1084000Y725008D02*
Y745000D01*
X1090102Y751102D01*
X1132173D01*
X1088008Y790472D02*
X1132173D01*
X1085008Y793472D02*
X1088008Y790472D01*
X1085008Y793472D02*
Y797000D01*
D33*
X791114Y2155963D02*
X828254Y2118822D01*
X660000Y2155963D02*
X791114D01*
X1356438Y1072438D02*
X1364000Y1080000D01*
X1334430Y1072438D02*
X1356438D01*
X956722Y1525070D02*
X968904D01*
X954808Y1523156D02*
X956722Y1525070D01*
X968904D02*
X984819Y1540984D01*
X986000D01*
X1144000Y1180992D02*
X1191192D01*
X1197407Y1187208D01*
X1331000Y1069008D02*
X1334430Y1072438D01*
X1657005Y1426083D02*
X1672921Y1442000D01*
X1657005Y1405041D02*
Y1426083D01*
X1317368Y1836698D02*
X1352552D01*
X1314000Y1840066D02*
X1317368Y1836698D01*
X1314000Y1840066D02*
Y1866992D01*
X1316000Y1868992D01*
X1079000Y567000D02*
Y613000D01*
X1073000Y561000D02*
X1079000Y567000D01*
X1084000Y618000D02*
Y690992D01*
X1079000Y613000D02*
X1084000Y618000D01*
X1408000Y565000D02*
Y602992D01*
Y565000D02*
X1409000Y564000D01*
X1117520Y2000000D02*
Y2085480D01*
X1100000Y2103000D02*
X1117520Y2085480D01*
X1235630Y2000000D02*
Y2064370D01*
X1232000Y2068000D02*
X1235630Y2064370D01*
X1156890Y2000000D02*
Y2094404D01*
X1154000Y2097294D02*
Y2100000D01*
Y2097294D02*
X1156890Y2094404D01*
X1111992Y603008D02*
Y636000D01*
Y603008D02*
X1112000Y603000D01*
X1196130Y2000130D02*
X1196260Y2000000D01*
X1196130Y2000130D02*
Y2099870D01*
X1196000Y2100000D02*
X1196130Y2099870D01*
X1275000Y2000000D02*
Y2068000D01*
X660000Y402000D02*
Y446303D01*
X665905Y452207D01*
X685636Y912636D02*
Y945787D01*
X681500Y908500D02*
X685636Y912636D01*
X682817Y1375006D02*
Y1401642D01*
X671811Y1364000D02*
X682817Y1375006D01*
X650232Y2149000D02*
X660000D01*
X650232D02*
X655116Y2144116D01*
X654134Y1597866D02*
X660000Y1592000D01*
X654134Y1597866D02*
Y1647255D01*
X660000Y1364000D02*
X671811D01*
X668543Y1132249D02*
X686917Y1150623D01*
Y1171726D01*
X660000Y1129000D02*
X668543D01*
Y1132249D01*
X1306405Y1675405D02*
Y1702789D01*
X1302000Y1671000D02*
X1306405Y1675405D01*
X1674000Y1999000D02*
X1685000D01*
X1663268Y1988268D02*
X1674000Y1999000D01*
X1663268Y1954937D02*
Y1988268D01*
X1659162Y1950831D02*
X1663268Y1954937D01*
X1659162Y1948125D02*
Y1950831D01*
X1672921Y1214000D02*
X1684732D01*
X1662189Y1203268D02*
X1672921Y1214000D01*
X1662189Y1191457D02*
Y1203268D01*
X1653913Y1183181D02*
X1662189Y1191457D01*
X1653913Y1179913D02*
Y1183181D01*
X1652000Y1178000D02*
X1653913Y1179913D01*
X1672921Y1442000D02*
X1684732D01*
X1052315Y1484000D02*
X1054161Y1482153D01*
Y1444846D02*
Y1482153D01*
Y1444846D02*
X1056008Y1443000D01*
Y1441363D02*
X1058008Y1439363D01*
X1056008Y1441363D02*
Y1443000D01*
X1073637Y1439363D02*
X1091331Y1421669D01*
X1058008Y1439363D02*
X1073637D01*
X660000Y402000D02*
X671811D01*
X682543Y412732D01*
X1043008Y847000D02*
X1043161Y847154D01*
Y887846D01*
X1043315Y888000D01*
X1627628Y214706D02*
X1664921Y252000D01*
X1620119Y214706D02*
X1627628D01*
X1408000Y637008D02*
X1443000D01*
X1373000D02*
X1408000D01*
X1664921Y252000D02*
X1676732D01*
X1659000Y712000D02*
X1662189Y715189D01*
Y746268D01*
X1672921Y757000D02*
X1684732D01*
X1662189Y746268D02*
X1672921Y757000D01*
D34*
X1134008Y1007000D02*
X1134295Y1006713D01*
X1133550Y1007458D02*
X1134008Y1007000D01*
X1050719Y657273D02*
Y715807D01*
X1058920Y724008D02*
X1083000D01*
X1050719Y715807D02*
X1058920Y724008D01*
X1049899Y654288D02*
X1050719Y655108D01*
X979315Y612000D02*
X1041698D01*
X1049899Y620201D02*
Y654288D01*
X1041698Y612000D02*
X1049899Y620201D01*
X1083000Y724008D02*
X1084000Y725008D01*
D35*
X1075118Y920519D02*
Y925882D01*
X1337920Y616595D02*
X1351523Y602992D01*
X1336898Y684173D02*
X1337920Y683150D01*
Y616595D02*
Y683150D01*
X1356583Y652244D02*
Y684173D01*
Y652244D02*
X1371819Y637008D01*
X1238472Y654875D02*
Y684173D01*
X1317213Y654875D02*
Y684173D01*
X1312526Y650189D02*
X1317213Y654875D01*
X1243159Y650189D02*
X1312526D01*
X1238472Y654875D02*
X1243159Y650189D01*
X1499000Y1506992D02*
X1502008Y1510000D01*
X1494314Y1393518D02*
X1498008Y1397212D01*
X1493724Y1480724D02*
X1499000Y1486000D01*
Y1506992D01*
X1450922Y1393518D02*
X1494314D01*
X1498008Y1415000D02*
X1502008Y1419000D01*
X1498008Y1397212D02*
Y1415000D01*
X1403620Y1602133D02*
X1429053D01*
X1453339Y1626419D01*
X1380954Y1579467D02*
X1403620Y1602133D01*
X1453339Y1626419D02*
Y1642402D01*
X1459275Y1648338D01*
X1444000Y1545000D02*
X1467992D01*
X1435000Y1536000D02*
X1444000Y1545000D01*
X1435000Y1526000D02*
Y1536000D01*
X1085008Y797000D02*
Y815314D01*
X1462013Y607391D02*
X1473736Y619114D01*
X1504008Y685160D02*
Y716189D01*
X1473736Y654888D02*
X1504008Y685160D01*
X1473736Y619114D02*
Y654888D01*
X1504008Y716189D02*
Y720008D01*
X1443000Y602992D02*
X1447399Y607391D01*
X1462013D01*
X1415000Y997000D02*
X1424000Y1006000D01*
X1356583Y983583D02*
X1370000Y997000D01*
X1415000D01*
X1402000Y1071212D02*
Y1075000D01*
X1223000Y908000D02*
X1232000Y899000D01*
X1199102Y908000D02*
X1223000D01*
X1364175Y1017175D02*
Y1031744D01*
X1396453Y1065664D02*
X1402000Y1071212D01*
X1396453Y1064021D02*
Y1065664D01*
X1364175Y1031744D02*
X1396453Y1064021D01*
X1338000Y991000D02*
X1364175Y1017175D01*
X1355642Y881313D02*
X1367848Y869106D01*
X1355642Y881313D02*
Y883880D01*
X1367848Y869106D02*
X1403720D01*
X1297000Y1495000D02*
X1307000D01*
X1317213Y1505213D02*
Y1547654D01*
X1307000Y1495000D02*
X1317213Y1505213D01*
X1380954Y1579467D02*
X1380954D01*
X1376268Y1574781D02*
X1380954Y1579467D01*
X1407643Y1630706D02*
Y1639643D01*
X1417000Y1649000D01*
X1356583Y1547654D02*
Y1579645D01*
X1407643Y1630706D01*
X1376268Y1547654D02*
Y1574781D01*
X1170000Y1441000D02*
X1179417Y1450417D01*
Y1547654D01*
X1465323Y1421669D02*
X1467992Y1419000D01*
X1403827Y1421669D02*
X1465323D01*
X1441573Y1342929D02*
X1453542Y1330960D01*
X1467032D01*
X1468992Y1329000D01*
X1405606Y1321465D02*
X1435975D01*
X1452250Y1305189D01*
X1495811D01*
X1403827Y1323244D02*
X1405606Y1321465D01*
X1403827Y1342929D02*
X1441573D01*
X1495811Y1305189D02*
X1497000Y1304000D01*
X1654243Y967054D02*
X1673189Y986000D01*
X1654243Y949567D02*
Y967054D01*
X1503008Y1329000D02*
X1504000Y1328008D01*
X1467992Y1363000D02*
X1468992Y1364000D01*
X1404213Y1363000D02*
X1467992D01*
X1403827Y1362614D02*
X1404213Y1363000D01*
X1442456Y1401984D02*
X1450922Y1393518D01*
X1403827Y1401984D02*
X1442456D01*
X1444000Y1454000D02*
X1467992D01*
X1431354Y1441354D02*
X1444000Y1454000D01*
X1403827Y1441354D02*
X1431354D01*
X1403827Y1480724D02*
X1493724D01*
X1449000Y1510000D02*
X1467992D01*
X1439409Y1500409D02*
X1449000Y1510000D01*
X1403827Y1500409D02*
X1439409D01*
X1403827Y1520094D02*
X1429094D01*
X1435000Y1526000D01*
X1424000Y1025000D02*
X1439000Y1040000D01*
X1438000Y976000D02*
X1479000Y1017000D01*
Y1040000D01*
X1132173Y1441354D02*
X1132528Y1441000D01*
X1170000D01*
X1385614Y976000D02*
X1438000D01*
X1376268Y955827D02*
Y966654D01*
X1385614Y976000D01*
X1424000Y1006000D02*
Y1025000D01*
X1356583Y955827D02*
Y983583D01*
X1317213Y984213D02*
X1324000Y991000D01*
X1338000D01*
X1317213Y955827D02*
Y984213D01*
X1223992Y1067000D02*
X1226000Y1069008D01*
X1206000Y1067000D02*
X1223992D01*
X1199102Y955827D02*
Y1060102D01*
X1206000Y1067000D01*
X1061202Y968798D02*
X1101732Y928268D01*
X1132173D01*
X1061008Y939992D02*
X1075118Y925882D01*
X1048210Y968798D02*
X1061202D01*
X1085154Y915846D02*
X1092417Y908583D01*
X1132173D01*
X1043000Y974008D02*
X1048210Y968798D01*
X1199102Y750223D02*
X1224475Y724850D01*
X1325953D01*
X1336898Y713905D01*
Y684173D02*
Y713905D01*
X1199102Y750223D02*
Y908000D01*
Y955827D01*
X1165528Y849528D02*
X1179417Y863417D01*
Y955827D01*
X1043008Y843189D02*
X1047008Y839189D01*
X1099812D02*
X1108861Y830139D01*
X1047008Y839189D02*
X1099812D01*
X1131877Y830139D02*
X1132173Y829842D01*
X1108861Y830139D02*
X1131877D01*
X1132173Y849528D02*
X1165528D01*
X1132173Y869213D02*
Y888898D01*
X1159732Y650905D02*
Y684173D01*
X1146008Y637181D02*
X1159732Y650905D01*
X1146008Y636000D02*
Y637181D01*
X1500189Y716189D02*
X1504008Y720008D01*
Y740000D01*
X1351523Y602992D02*
X1373000D01*
X1371819Y637008D02*
X1373000D01*
X1428084Y928268D02*
X1452049Y952232D01*
X1403827Y928268D02*
X1428084D01*
X1452049Y952232D02*
X1468224D01*
X1469992Y954000D01*
X1403827Y849528D02*
X1432208D01*
X1447681Y865000D02*
X1469992D01*
X1432208Y849528D02*
X1447681Y865000D01*
X1458000Y695000D02*
X1463000Y690000D01*
Y689000D02*
Y690000D01*
X1446000Y695000D02*
X1458000D01*
X1433583Y731417D02*
X1448811Y716189D01*
X1500189D01*
X1429268Y711732D02*
X1446000Y695000D01*
X1403827Y711732D02*
X1429268D01*
X1403827Y731417D02*
X1433583D01*
X1403827Y751102D02*
X1438898D01*
X1450000Y740000D02*
X1469992D01*
X1438898Y751102D02*
X1450000Y740000D01*
X1449000Y806000D02*
X1499322D01*
X1504008Y810686D02*
Y830000D01*
X1499322Y806000D02*
X1504008Y810686D01*
X1360472Y790472D02*
X1403827D01*
X1360000Y790000D02*
X1360472Y790472D01*
X1403720Y869106D02*
X1403827Y869213D01*
X1673189Y986000D02*
X1685000D01*
X1443000Y775000D02*
X1469992D01*
X1438787Y770787D02*
X1443000Y775000D01*
X1403827Y770787D02*
X1438787D01*
X1403827Y810158D02*
X1444842D01*
X1449000Y806000D01*
X1403827Y829842D02*
X1403906Y829921D01*
X1469913D01*
X1469992Y830000D01*
X1502000Y916992D02*
X1504008Y919000D01*
X1502000Y897000D02*
Y916992D01*
X1403827Y888898D02*
X1493898D01*
X1502000Y897000D01*
X1450000Y919000D02*
X1469992D01*
X1439583Y908583D02*
X1450000Y919000D01*
X1403827Y908583D02*
X1439583D01*
X1043000Y939992D02*
X1061008D01*
X1159732Y955827D02*
Y1000197D01*
X1134008Y1007000D02*
X1152929D01*
X1159732Y1000197D01*
X1007000Y974008D02*
X1043000D01*
X972000D02*
X1007000D01*
D36*
X1580000Y1220472D02*
Y1574615D01*
X1541899Y1612716D02*
X1580000Y1574615D01*
X1456000Y1576000D02*
X1492716Y1612716D01*
X1541899D01*
X1418000Y1565000D02*
X1418541D01*
X1429541Y1576000D01*
X1456000D01*
X1337000Y1671008D02*
Y1746000D01*
X1336000Y1747000D02*
X1337000Y1746000D01*
X782941Y1227059D02*
X849385D01*
X760000Y1250000D02*
X782941Y1227059D01*
X849385D02*
X849542Y1226901D01*
Y1189458D02*
Y1226901D01*
Y1189458D02*
X868000Y1171000D01*
X904685D01*
X760000Y700447D02*
X798101Y662346D01*
X760000Y700447D02*
Y1250000D01*
X918685Y562315D02*
Y612000D01*
Y562315D02*
X919000Y562000D01*
X1052000Y1193339D02*
Y1217000D01*
Y1169677D02*
Y1193339D01*
X1068339D02*
X1074000Y1199000D01*
X1052000Y1193339D02*
X1068339D01*
X965315Y1162693D02*
Y1231315D01*
X973622Y1162693D02*
X978354Y1157961D01*
X1040284D01*
X1052000Y1169677D01*
X965315Y1162693D02*
X973622D01*
X965315Y1231315D02*
X974000Y1240000D01*
X847158Y763000D02*
X886000D01*
X847000Y755654D02*
Y762842D01*
X893000Y770000D02*
X965000D01*
X847000Y762842D02*
X847158Y763000D01*
X886000D02*
X893000Y770000D01*
X965000Y684000D02*
X969815D01*
X979315Y674500D01*
Y612000D02*
Y674500D01*
D37*
X1580000Y1030177D02*
Y1220472D01*
X1542823Y993000D02*
X1580000Y1030177D01*
X1511787Y993000D02*
X1542823D01*
X1489000Y994000D02*
X1510787D01*
X1511787Y993000D01*
D38*
X1315685Y1903323D02*
Y1998685D01*
Y1903323D02*
X1316000Y1903008D01*
X1314370Y2000000D02*
X1315685Y1998685D01*
X1268000Y820000D02*
X1270000Y822000D01*
Y894992D01*
X1267585Y897407D02*
X1270000Y894992D01*
X1267585Y897407D02*
Y913415D01*
X1260000Y921000D02*
X1267585Y913415D01*
X1247000Y921000D02*
X1260000D01*
X1238472Y955827D02*
X1238752Y955547D01*
Y929248D02*
Y955547D01*
Y929248D02*
X1247000Y921000D01*
X1091331Y1421669D02*
X1132173D01*
D39*
X779213Y1538945D02*
X877000D01*
X760000Y1519732D02*
X779213Y1538945D01*
X760000Y1250000D02*
Y1519732D01*
D40*
X798101Y662346D02*
X847000D01*
D41*
X1006000Y1408000D02*
X1012311Y1414311D01*
X1055473D01*
X989000Y1408000D02*
X1006000D01*
X1055473Y1414311D02*
X1066508Y1403276D01*
Y1389689D02*
X1073898Y1382299D01*
X1066508Y1389689D02*
Y1403276D01*
X1073898Y1382299D02*
X1132173D01*
D42*
X1438409Y2011432D02*
D03*
X973535Y1095311D02*
D03*
X1097000Y974000D02*
D03*
X1099000Y1008000D02*
D03*
X880000Y872000D02*
D03*
X975000Y1025765D02*
D03*
X1097910Y1033505D02*
D03*
X996000Y1192000D02*
D03*
X1076000Y1009000D02*
D03*
X828212Y794248D02*
D03*
X859441Y2081245D02*
D03*
X828254Y2118822D02*
D03*
X990000Y2058008D02*
D03*
X1375652Y1128439D02*
D03*
X1133557Y1007171D02*
D03*
X1008141Y1891300D02*
D03*
X1060000Y2058008D02*
D03*
X1350462Y1887735D02*
D03*
X1364000Y1080000D02*
D03*
X954808Y1523156D02*
D03*
X1347000Y2111000D02*
D03*
X1909142Y1492000D02*
D03*
X1418000Y1565000D02*
D03*
X1257385Y1210576D02*
D03*
X1197407Y1187208D02*
D03*
X1260386Y1598765D02*
D03*
X1279000Y1394000D02*
D03*
Y1370000D02*
D03*
X1915268Y1314000D02*
D03*
X1489000Y994000D02*
D03*
X1511787Y993000D02*
D03*
X1455721Y1152750D02*
D03*
X1434328Y1278537D02*
D03*
X1402000Y1075000D02*
D03*
X1049078Y1800830D02*
D03*
X1074000Y1801000D02*
D03*
Y1826000D02*
D03*
X1049000D02*
D03*
X1251772Y796139D02*
D03*
X1251459Y821588D02*
D03*
X1228235Y795373D02*
D03*
X1228000Y822000D02*
D03*
X1306000Y1370000D02*
D03*
Y1394000D02*
D03*
X1507000Y1128000D02*
D03*
X1481000D02*
D03*
X1456000D02*
D03*
X1506809Y1153370D02*
D03*
X1480491Y1153060D02*
D03*
X898000Y1413000D02*
D03*
X876000D02*
D03*
X851000D02*
D03*
X898000Y1442000D02*
D03*
X876000D02*
D03*
X851000D02*
D03*
X1657005Y1405041D02*
D03*
X1889992Y1939000D02*
D03*
X1274000Y1702000D02*
D03*
Y1771000D02*
D03*
X1361000Y1867000D02*
D03*
X1374000Y1886000D02*
D03*
X1489000Y2012000D02*
D03*
X1464000D02*
D03*
X1489000Y2040000D02*
D03*
X1464000D02*
D03*
X1439000D02*
D03*
X809000Y184000D02*
D03*
X858591Y299000D02*
D03*
X2012000Y506000D02*
D03*
X1988000D02*
D03*
X1962000D02*
D03*
X2012000Y535000D02*
D03*
X1989000D02*
D03*
X1962000D02*
D03*
X2011000Y619000D02*
D03*
X1986000D02*
D03*
X1962000D02*
D03*
X1985783Y647947D02*
D03*
X2011000Y648000D02*
D03*
X1961000D02*
D03*
X2011000Y1724000D02*
D03*
X1987000D02*
D03*
X1963000D02*
D03*
X2011000Y1752000D02*
D03*
X1986000D02*
D03*
X1962000D02*
D03*
X2010000Y1838000D02*
D03*
X1986000D02*
D03*
X1962000D02*
D03*
X2009000Y1865000D02*
D03*
X1986000D02*
D03*
X1961000D02*
D03*
X1352552Y1836698D02*
D03*
X1232000Y899000D02*
D03*
X1324184Y1214272D02*
D03*
X1361000Y1919000D02*
D03*
X1100000Y2103000D02*
D03*
X1180000Y733000D02*
D03*
X1232000Y2068000D02*
D03*
X1154000Y2100000D02*
D03*
X1014000Y1280008D02*
D03*
X1112000Y603000D02*
D03*
X1196000Y2100000D02*
D03*
X1275000Y2068000D02*
D03*
X989000Y1408000D02*
D03*
X665905Y452207D02*
D03*
X685636Y945787D02*
D03*
X682817Y1401642D02*
D03*
X686917Y1171726D02*
D03*
X1306405Y1702789D02*
D03*
X1146887Y1619915D02*
D03*
X654134Y1647255D02*
D03*
X876000Y1659000D02*
D03*
X963000Y1765000D02*
D03*
X962000Y1844000D02*
D03*
X2042000Y1196000D02*
D03*
X2043000Y1429000D02*
D03*
X1363000Y1383000D02*
D03*
X1364000Y1461000D02*
D03*
X1652000Y1178000D02*
D03*
X1915535Y2048000D02*
D03*
X1659162Y1948125D02*
D03*
X1074000Y1199000D02*
D03*
X1125898Y1264102D02*
D03*
X1282000Y747850D02*
D03*
X1471000Y1082000D02*
D03*
X1050719Y655108D02*
D03*
D43*
X830992Y1711000D02*
D03*
Y1746000D02*
D03*
Y1833000D02*
D03*
Y1930000D02*
D03*
X832000Y872000D02*
D03*
X830992Y1895000D02*
D03*
Y1798000D02*
D03*
X832992Y1107000D02*
D03*
X898000Y2120000D02*
D03*
X923000D02*
D03*
X872000Y2146000D02*
D03*
X898000D02*
D03*
X924000D02*
D03*
X871000Y2173000D02*
D03*
X898000D02*
D03*
X924000D02*
D03*
X1135000Y1795000D02*
D03*
X1081440Y1507737D02*
D03*
X1235000Y1903000D02*
D03*
X1007000Y915000D02*
D03*
Y939992D02*
D03*
X1075118Y920519D02*
D03*
X1313376Y622953D02*
D03*
X1287239Y622788D02*
D03*
X1260316Y623073D02*
D03*
X1232605Y622772D02*
D03*
X1205948Y623525D02*
D03*
X1179441Y623073D02*
D03*
X1500827Y1545000D02*
D03*
X1501827Y1364000D02*
D03*
X1500827Y1454000D02*
D03*
X910000Y1571984D02*
D03*
X2045000Y299000D02*
D03*
X1987000Y297000D02*
D03*
X2045000Y274000D02*
D03*
X2020000D02*
D03*
X1996000D02*
D03*
X1972000D02*
D03*
X1963000Y302000D02*
D03*
X1939000D02*
D03*
X1963000Y327000D02*
D03*
X1939000D02*
D03*
X1963000Y352000D02*
D03*
X1939000D02*
D03*
X1987000Y377000D02*
D03*
X1963000D02*
D03*
X1939000D02*
D03*
X2035000Y402000D02*
D03*
X2011000D02*
D03*
X1987000D02*
D03*
X1963000D02*
D03*
X1939000D02*
D03*
X1914000Y377000D02*
D03*
Y327000D02*
D03*
X1914268Y302000D02*
D03*
Y352000D02*
D03*
X2036000Y907000D02*
D03*
X2012000D02*
D03*
X1988000D02*
D03*
X2038000Y801000D02*
D03*
X1988000Y800000D02*
D03*
X2049000Y778000D02*
D03*
X2024000D02*
D03*
X2000000D02*
D03*
X1976000D02*
D03*
X1964000Y807000D02*
D03*
Y832000D02*
D03*
Y857000D02*
D03*
Y882000D02*
D03*
Y907000D02*
D03*
X1939000D02*
D03*
Y882000D02*
D03*
Y857000D02*
D03*
Y832000D02*
D03*
Y807000D02*
D03*
X1914000Y832000D02*
D03*
Y882000D02*
D03*
X1914268Y807000D02*
D03*
Y907000D02*
D03*
X2032413Y1028761D02*
D03*
X1992194Y1028812D02*
D03*
X2047145Y1008319D02*
D03*
X2023172Y1005244D02*
D03*
X1998018Y1005409D02*
D03*
X2040000Y1112000D02*
D03*
X1974447Y1012414D02*
D03*
X1966000Y1036000D02*
D03*
X1940000D02*
D03*
X1965000Y1061000D02*
D03*
X1940000D02*
D03*
X1965000Y1085000D02*
D03*
X1940000D02*
D03*
X1965000Y1111000D02*
D03*
X1940000D02*
D03*
X2040000Y1136000D02*
D03*
X2015000D02*
D03*
X1990000D02*
D03*
X1965000D02*
D03*
X1940000D02*
D03*
X1915000Y1061000D02*
D03*
Y1111000D02*
D03*
X1915268Y1036000D02*
D03*
Y1136000D02*
D03*
Y1086000D02*
D03*
X2048000Y1339000D02*
D03*
X2038000Y1260000D02*
D03*
X2013000Y1257000D02*
D03*
X2050000Y1238000D02*
D03*
X2026000Y1237000D02*
D03*
X2001000D02*
D03*
X1989000Y1259000D02*
D03*
X1972000Y1239000D02*
D03*
X1965000Y1264000D02*
D03*
X1940000D02*
D03*
X1965000Y1290000D02*
D03*
X1940000D02*
D03*
X1965000Y1314000D02*
D03*
X1940000D02*
D03*
X1965000Y1338000D02*
D03*
X1940000D02*
D03*
X2038000Y1364000D02*
D03*
X2014000D02*
D03*
X1990000D02*
D03*
X1965000D02*
D03*
X1940000D02*
D03*
X1915000Y1290000D02*
D03*
X1916000Y1338000D02*
D03*
X1915268Y1364000D02*
D03*
Y1264000D02*
D03*
X2047000Y1568000D02*
D03*
X1985000Y1491000D02*
D03*
X2046000Y1492000D02*
D03*
Y1466000D02*
D03*
X2021000D02*
D03*
X1997000D02*
D03*
X1972000D02*
D03*
X1959000Y1491000D02*
D03*
X1934000Y1492000D02*
D03*
X1959000Y1516000D02*
D03*
X1934000D02*
D03*
X1959000Y1540000D02*
D03*
X1934000Y1541000D02*
D03*
X1960000Y1565000D02*
D03*
X1934000Y1566000D02*
D03*
X2035000Y1592000D02*
D03*
X2010000D02*
D03*
X1985000D02*
D03*
X1959000D02*
D03*
X1934000D02*
D03*
X1909000Y1516000D02*
D03*
Y1567000D02*
D03*
X1909142Y1542000D02*
D03*
Y1592000D02*
D03*
X1914268Y402000D02*
D03*
X2007980Y950868D02*
D03*
X2046000Y2123000D02*
D03*
X1990000Y2046000D02*
D03*
X2049000Y2048000D02*
D03*
Y2023000D02*
D03*
X2024000D02*
D03*
X1999000D02*
D03*
X1973000D02*
D03*
X1967000Y2048000D02*
D03*
X1942000D02*
D03*
X1966000Y2073000D02*
D03*
X1941000D02*
D03*
X1965000Y2099000D02*
D03*
X1941000D02*
D03*
X1968000Y2124000D02*
D03*
X1941000D02*
D03*
X2045000Y2148000D02*
D03*
X2019000Y2149000D02*
D03*
X1993000D02*
D03*
X1967000D02*
D03*
X1941000D02*
D03*
X1915000Y2073000D02*
D03*
X1916000Y2124000D02*
D03*
X1915268Y2149000D02*
D03*
Y2099000D02*
D03*
X358000Y378000D02*
D03*
X343000Y403000D02*
D03*
X316000D02*
D03*
X290000D02*
D03*
Y376000D02*
D03*
X292000Y304000D02*
D03*
X295000Y226000D02*
D03*
X292000Y252000D02*
D03*
Y278000D02*
D03*
X320000Y277000D02*
D03*
X346000D02*
D03*
Y251000D02*
D03*
X320000D02*
D03*
Y221000D02*
D03*
X346000D02*
D03*
X372000D02*
D03*
Y251000D02*
D03*
Y276000D02*
D03*
Y302000D02*
D03*
Y327000D02*
D03*
X398000Y221000D02*
D03*
X398138Y251673D02*
D03*
X398000Y276000D02*
D03*
Y302000D02*
D03*
Y327000D02*
D03*
X372000Y352000D02*
D03*
X398000D02*
D03*
X422000Y327000D02*
D03*
Y277000D02*
D03*
Y221000D02*
D03*
X422000Y252000D02*
D03*
Y302000D02*
D03*
Y352000D02*
D03*
X1485000Y1930000D02*
D03*
X355000Y853000D02*
D03*
X365000Y876000D02*
D03*
X341000D02*
D03*
X315000Y877000D02*
D03*
X288000D02*
D03*
X289000Y851000D02*
D03*
X378000Y833000D02*
D03*
X374000Y809000D02*
D03*
X363000Y785000D02*
D03*
X288000Y784000D02*
D03*
X369000Y760000D02*
D03*
X344000D02*
D03*
X318000D02*
D03*
X292000D02*
D03*
Y735000D02*
D03*
X318000D02*
D03*
X344000Y736000D02*
D03*
X369000D02*
D03*
X420000Y735000D02*
D03*
X394000Y736000D02*
D03*
X408000Y758000D02*
D03*
Y783000D02*
D03*
Y807000D02*
D03*
Y831000D02*
D03*
X407000Y857000D02*
D03*
X380839Y857028D02*
D03*
X436000Y782000D02*
D03*
Y832000D02*
D03*
X435590Y757000D02*
D03*
Y807000D02*
D03*
Y857000D02*
D03*
X389000Y1099000D02*
D03*
X363000D02*
D03*
X338000D02*
D03*
X313000D02*
D03*
X288000D02*
D03*
X289000Y1072000D02*
D03*
D03*
X400000Y1073000D02*
D03*
X372000Y1072000D02*
D03*
D03*
X400000Y1047000D02*
D03*
X373000D02*
D03*
X400000Y1021000D02*
D03*
X373000D02*
D03*
X400000Y995000D02*
D03*
X374000D02*
D03*
X348000D02*
D03*
X299000D02*
D03*
X298000Y970000D02*
D03*
X323000D02*
D03*
X348000D02*
D03*
X374000D02*
D03*
X400000D02*
D03*
X422000Y1011000D02*
D03*
Y1061000D02*
D03*
X422079Y986000D02*
D03*
Y1036000D02*
D03*
Y1086000D02*
D03*
X372000Y1288000D02*
D03*
X335000Y1204000D02*
D03*
X288000Y1206000D02*
D03*
X316000Y1223000D02*
D03*
X350000Y1227000D02*
D03*
X288000Y1232000D02*
D03*
Y1304000D02*
D03*
X298000Y1328000D02*
D03*
X324000Y1329000D02*
D03*
X350000D02*
D03*
X373000Y1212000D02*
D03*
Y1236000D02*
D03*
X398000Y1213000D02*
D03*
Y1237000D02*
D03*
X372000Y1263000D02*
D03*
X397000D02*
D03*
Y1289000D02*
D03*
X370000Y1313000D02*
D03*
X397000D02*
D03*
X422000Y1289000D02*
D03*
Y1238000D02*
D03*
X422000Y1214000D02*
D03*
Y1264000D02*
D03*
Y1314000D02*
D03*
X390000Y1471000D02*
D03*
X364000D02*
D03*
X339000D02*
D03*
X314000D02*
D03*
X391000Y1444000D02*
D03*
X364000D02*
D03*
X339000D02*
D03*
X314000D02*
D03*
X289000D02*
D03*
Y1471000D02*
D03*
Y1498000D02*
D03*
X393000Y1504000D02*
D03*
X367000D02*
D03*
X400000Y1529000D02*
D03*
X374000D02*
D03*
X396000Y1554000D02*
D03*
X369000Y1555000D02*
D03*
X351000Y1574000D02*
D03*
X290000Y1571000D02*
D03*
X340000Y1598000D02*
D03*
X314000D02*
D03*
X289000D02*
D03*
X422000Y1517000D02*
D03*
Y1467000D02*
D03*
X422000Y1442000D02*
D03*
Y1492000D02*
D03*
Y1542000D02*
D03*
X399000Y1971000D02*
D03*
X371000Y2007000D02*
D03*
X374000Y2035000D02*
D03*
X372000Y2063000D02*
D03*
X356000Y2087000D02*
D03*
X371000Y2111000D02*
D03*
X342000D02*
D03*
X315000D02*
D03*
X289000D02*
D03*
X290000Y2085000D02*
D03*
X349000Y1992000D02*
D03*
X323000D02*
D03*
X297000Y1993000D02*
D03*
X374000Y1964000D02*
D03*
X349000D02*
D03*
X323000Y1965000D02*
D03*
X297000Y1966000D02*
D03*
X397000Y2099000D02*
D03*
Y2074000D02*
D03*
Y2049000D02*
D03*
Y2023000D02*
D03*
Y1998000D02*
D03*
X422000Y2024000D02*
D03*
Y2074000D02*
D03*
X422000Y2099000D02*
D03*
Y2049000D02*
D03*
Y1999000D02*
D03*
X1504759Y865751D02*
D03*
X376000Y1724000D02*
D03*
X351000D02*
D03*
X325000D02*
D03*
X376000Y1753000D02*
D03*
X351000D02*
D03*
X325000D02*
D03*
X375000Y1836000D02*
D03*
X351000D02*
D03*
X326000D02*
D03*
X375000Y1865000D02*
D03*
X351000D02*
D03*
X326000D02*
D03*
X374000Y619000D02*
D03*
X350000Y620000D02*
D03*
X326000Y621000D02*
D03*
X374000Y648000D02*
D03*
X350000D02*
D03*
X326000D02*
D03*
X376000Y508000D02*
D03*
X352000D02*
D03*
X327000D02*
D03*
X377000Y535000D02*
D03*
X354000D02*
D03*
X326000D02*
D03*
X1305000Y1791000D02*
D03*
X1050992Y797000D02*
D03*
X1270000Y894992D02*
D03*
X832992Y1142000D02*
D03*
X810000Y216000D02*
D03*
X1355642Y883880D02*
D03*
X988341Y815972D02*
D03*
X1293000Y1495000D02*
D03*
X297992Y1378000D02*
D03*
X441000Y1646000D02*
D03*
X295992Y2148000D02*
D03*
X1231744Y182378D02*
D03*
X1203000Y181000D02*
D03*
X1205000Y206000D02*
D03*
X1182000Y195000D02*
D03*
X1154000Y197000D02*
D03*
X1180000Y221000D02*
D03*
X1155000Y224000D02*
D03*
X1203000Y231000D02*
D03*
X1204000Y259000D02*
D03*
X1179000Y248000D02*
D03*
X1154000Y249000D02*
D03*
X1179000Y274000D02*
D03*
X1154000Y276000D02*
D03*
X1202000Y286000D02*
D03*
X1205000Y315000D02*
D03*
X1178000Y302000D02*
D03*
X1153000D02*
D03*
X1503008Y1329000D02*
D03*
X1502008Y1419000D02*
D03*
Y1510000D02*
D03*
X1654243Y949567D02*
D03*
X1261000Y1132000D02*
D03*
X439000Y457000D02*
D03*
X296992Y917000D02*
D03*
X833000Y969378D02*
D03*
X832992Y1056000D02*
D03*
X296992Y1136000D02*
D03*
X832992Y935000D02*
D03*
Y1021000D02*
D03*
X1085607Y814226D02*
D03*
X1620119Y214706D02*
D03*
X972000Y939992D02*
D03*
X1825000Y195000D02*
D03*
X1463000Y689000D02*
D03*
X1861000Y701000D02*
D03*
X1659000Y712000D02*
D03*
X1504008Y775000D02*
D03*
X1360000Y790000D02*
D03*
X1914268Y857000D02*
D03*
X1504008Y954000D02*
D03*
Y919000D02*
D03*
Y830000D02*
D03*
Y740000D02*
D03*
X885008Y210000D02*
D03*
X1440000Y180000D02*
D03*
X1410000D02*
D03*
X1380000D02*
D03*
X1350000D02*
D03*
X1320000D02*
D03*
X1290000D02*
D03*
X1260000D02*
D03*
X1470000Y210000D02*
D03*
X1440000D02*
D03*
X1410000D02*
D03*
X1380000D02*
D03*
X1350000D02*
D03*
X1320000D02*
D03*
X1290000D02*
D03*
X1260000D02*
D03*
X1230000D02*
D03*
X1470000Y240000D02*
D03*
X1440000D02*
D03*
X1410000D02*
D03*
X1380000D02*
D03*
X1350000D02*
D03*
X1320000D02*
D03*
X1290000D02*
D03*
X1260000D02*
D03*
X1230000D02*
D03*
X1470000Y270000D02*
D03*
X1440000D02*
D03*
X1410000D02*
D03*
X1380000D02*
D03*
X1350000D02*
D03*
X1320000D02*
D03*
X1290000D02*
D03*
X1260000D02*
D03*
X1230000D02*
D03*
X1470000Y300000D02*
D03*
X1440000D02*
D03*
X1410000D02*
D03*
X1380000D02*
D03*
X1350000D02*
D03*
X1320000D02*
D03*
X1290000D02*
D03*
X1260000D02*
D03*
X1230000D02*
D03*
X1470000Y330000D02*
D03*
X1440000D02*
D03*
X1410000D02*
D03*
X1380000D02*
D03*
X1350000D02*
D03*
X1320000D02*
D03*
X1290000D02*
D03*
X1260000D02*
D03*
X1230000D02*
D03*
X1455000Y360000D02*
D03*
X1425000D02*
D03*
X1395000D02*
D03*
X1365000D02*
D03*
X1335000D02*
D03*
X1305000D02*
D03*
X1275000D02*
D03*
X1249000Y362000D02*
D03*
D44*
X2012000Y2088000D02*
D03*
Y1532000D02*
D03*
Y1304000D02*
D03*
Y1073000D02*
D03*
Y843000D02*
D03*
Y339000D02*
D03*
X325000D02*
D03*
Y816000D02*
D03*
Y1037000D02*
D03*
Y1270000D02*
D03*
Y1532000D02*
D03*
Y2045000D02*
D03*
%TF.MD5,6412f5620807a3d151f7d8758d9df035*%
M02*
