%TF.GenerationSoftware,Altium Limited,Altium Designer,20.2.3 (150)*%
G04 Layer_Color=2752767*
%FSLAX26Y26*%
%MOIN*%
%TF.SameCoordinates,1E0D65CC-F0FE-4DFC-A0D5-6D9DD74121E6*%
%TF.FilePolarity,Positive*%
%TF.FileFunction,Drawing*%
%TF.Part,Single*%
G01*
G75*
%TA.AperFunction,NonConductor*%
%ADD57C,0.005000*%
%ADD98C,0.006667*%
D57*
X1418409Y1991432D02*
Y2031432D01*
X1458409D01*
Y1991432D01*
X1418409D01*
X953535Y1075311D02*
Y1115311D01*
X993535D01*
Y1075311D01*
X953535D01*
X1077000Y954000D02*
Y994000D01*
X1117000D01*
Y954000D01*
X1077000D01*
X1079000Y988000D02*
Y1028000D01*
X1119000D01*
Y988000D01*
X1079000D01*
X860000Y852000D02*
Y892000D01*
X900000D01*
Y852000D01*
X860000D01*
X955000Y1005765D02*
Y1045765D01*
X995000D01*
Y1005765D01*
X955000D01*
X1077910Y1013505D02*
Y1053505D01*
X1117910D01*
Y1013505D01*
X1077910D01*
X976000Y1172000D02*
Y1212000D01*
X1016000D01*
Y1172000D01*
X976000D01*
X1056000Y989000D02*
Y1029000D01*
X1096000D01*
Y989000D01*
X1056000D01*
X812000Y852000D02*
Y892000D01*
X852000D01*
Y852000D01*
X812000D01*
X808212Y774248D02*
Y814248D01*
X848212D01*
Y774248D01*
X808212D01*
X812992Y1087000D02*
Y1127000D01*
X852992D01*
Y1087000D01*
X812992D01*
X839441Y2061245D02*
Y2101245D01*
X879441D01*
Y2061245D01*
X839441D01*
X808254Y2098822D02*
Y2138822D01*
X848254D01*
Y2098822D01*
X808254D01*
X970000Y2038008D02*
Y2078008D01*
X1010000D01*
Y2038008D01*
X970000D01*
X1355652Y1108439D02*
Y1148439D01*
X1395652D01*
Y1108439D01*
X1355652D01*
X1113557Y987171D02*
Y1027171D01*
X1153557D01*
Y987171D01*
X1113557D01*
X988141Y1871300D02*
Y1911300D01*
X1028141D01*
Y1871300D01*
X988141D01*
X1040000Y2038008D02*
Y2078008D01*
X1080000D01*
Y2038008D01*
X1040000D01*
X1061440Y1487737D02*
Y1527737D01*
X1101440D01*
Y1487737D01*
X1061440D01*
X1330462Y1867735D02*
Y1907735D01*
X1370462D01*
Y1867735D01*
X1330462D01*
X1344000Y1060000D02*
Y1100000D01*
X1384000D01*
Y1060000D01*
X1344000D01*
X934808Y1503156D02*
Y1543156D01*
X974808D01*
Y1503156D01*
X934808D01*
X1327000Y2091000D02*
Y2131000D01*
X1367000D01*
Y2091000D01*
X1327000D01*
X1889142Y1472000D02*
Y1512000D01*
X1929142D01*
Y1472000D01*
X1889142D01*
X1398000Y1545000D02*
Y1585000D01*
X1438000D01*
Y1545000D01*
X1398000D01*
X1237385Y1190576D02*
Y1230576D01*
X1277385D01*
Y1190576D01*
X1237385D01*
X1177407Y1167208D02*
Y1207208D01*
X1217407D01*
Y1167208D01*
X1177407D01*
X1240386Y1578765D02*
Y1618765D01*
X1280386D01*
Y1578765D01*
X1240386D01*
X1259000Y1374000D02*
Y1414000D01*
X1299000D01*
Y1374000D01*
X1259000D01*
Y1350000D02*
Y1390000D01*
X1299000D01*
Y1350000D01*
X1259000D01*
X2012000Y2068000D02*
X1992000Y2108000D01*
X2032000D01*
X2012000Y2068000D01*
Y1512000D02*
X1992000Y1552000D01*
X2032000D01*
X2012000Y1512000D01*
Y1284000D02*
X1992000Y1324000D01*
X2032000D01*
X2012000Y1284000D01*
X1895268Y1294000D02*
Y1334000D01*
X1935268D01*
Y1294000D01*
X1895268D01*
X2012000Y1053000D02*
X1992000Y1093000D01*
X2032000D01*
X2012000Y1053000D01*
Y823000D02*
X1992000Y863000D01*
X2032000D01*
X2012000Y823000D01*
Y319000D02*
X1992000Y359000D01*
X2032000D01*
X2012000Y319000D01*
X325000D02*
X305000Y359000D01*
X345000D01*
X325000Y319000D01*
Y796000D02*
X305000Y836000D01*
X345000D01*
X325000Y796000D01*
Y1017000D02*
X305000Y1057000D01*
X345000D01*
X325000Y1017000D01*
Y1250000D02*
X305000Y1290000D01*
X345000D01*
X325000Y1250000D01*
Y1512000D02*
X305000Y1552000D01*
X345000D01*
X325000Y1512000D01*
Y2025000D02*
X305000Y2065000D01*
X345000D01*
X325000Y2025000D01*
X1469000Y974000D02*
Y1014000D01*
X1509000D01*
Y974000D01*
X1469000D01*
X1491787Y973000D02*
Y1013000D01*
X1531787D01*
Y973000D01*
X1491787D01*
X1435721Y1132750D02*
Y1172750D01*
X1475721D01*
Y1132750D01*
X1435721D01*
X1414328Y1258537D02*
Y1298537D01*
X1454328D01*
Y1258537D01*
X1414328D01*
X1382000Y1055000D02*
Y1095000D01*
X1422000D01*
Y1055000D01*
X1382000D01*
X1029078Y1780830D02*
Y1820830D01*
X1069078D01*
Y1780830D01*
X1029078D01*
X1054000Y1781000D02*
Y1821000D01*
X1094000D01*
Y1781000D01*
X1054000D01*
Y1806000D02*
Y1846000D01*
X1094000D01*
Y1806000D01*
X1054000D01*
X1029000D02*
Y1846000D01*
X1069000D01*
Y1806000D01*
X1029000D01*
X1231772Y776139D02*
Y816139D01*
X1271772D01*
Y776139D01*
X1231772D01*
X1231459Y801588D02*
Y841588D01*
X1271459D01*
Y801588D01*
X1231459D01*
X1208235Y775373D02*
Y815373D01*
X1248235D01*
Y775373D01*
X1208235D01*
X1208000Y802000D02*
Y842000D01*
X1248000D01*
Y802000D01*
X1208000D01*
X1286000Y1350000D02*
Y1390000D01*
X1326000D01*
Y1350000D01*
X1286000D01*
Y1374000D02*
Y1414000D01*
X1326000D01*
Y1374000D01*
X1286000D01*
X1487000Y1108000D02*
Y1148000D01*
X1527000D01*
Y1108000D01*
X1487000D01*
X1461000D02*
Y1148000D01*
X1501000D01*
Y1108000D01*
X1461000D01*
X1436000D02*
Y1148000D01*
X1476000D01*
Y1108000D01*
X1436000D01*
X1486809Y1133370D02*
Y1173370D01*
X1526809D01*
Y1133370D01*
X1486809D01*
X1460491Y1133060D02*
Y1173060D01*
X1500491D01*
Y1133060D01*
X1460491D01*
X878000Y1393000D02*
Y1433000D01*
X918000D01*
Y1393000D01*
X878000D01*
X856000D02*
Y1433000D01*
X896000D01*
Y1393000D01*
X856000D01*
X831000D02*
Y1433000D01*
X871000D01*
Y1393000D01*
X831000D01*
X878000Y1422000D02*
Y1462000D01*
X918000D01*
Y1422000D01*
X878000D01*
X856000D02*
Y1462000D01*
X896000D01*
Y1422000D01*
X856000D01*
X831000D02*
Y1462000D01*
X871000D01*
Y1422000D01*
X831000D01*
X1637005Y1385041D02*
Y1425041D01*
X1677005D01*
Y1385041D01*
X1637005D01*
X1869992Y1919000D02*
Y1959000D01*
X1909992D01*
Y1919000D01*
X1869992D01*
X1254000Y1682000D02*
Y1722000D01*
X1294000D01*
Y1682000D01*
X1254000D01*
Y1751000D02*
Y1791000D01*
X1294000D01*
Y1751000D01*
X1254000D01*
X1341000Y1847000D02*
Y1887000D01*
X1381000D01*
Y1847000D01*
X1341000D01*
X1354000Y1866000D02*
Y1906000D01*
X1394000D01*
Y1866000D01*
X1354000D01*
X1469000Y1992000D02*
Y2032000D01*
X1509000D01*
Y1992000D01*
X1469000D01*
X1444000D02*
Y2032000D01*
X1484000D01*
Y1992000D01*
X1444000D01*
X1469000Y2020000D02*
Y2060000D01*
X1509000D01*
Y2020000D01*
X1469000D01*
X1444000D02*
Y2060000D01*
X1484000D01*
Y2020000D01*
X1444000D01*
X1419000D02*
Y2060000D01*
X1459000D01*
Y2020000D01*
X1419000D01*
X789000Y164000D02*
Y204000D01*
X829000D01*
Y164000D01*
X789000D01*
X838591Y279000D02*
Y319000D01*
X878591D01*
Y279000D01*
X838591D01*
X1992000Y486000D02*
Y526000D01*
X2032000D01*
Y486000D01*
X1992000D01*
X1968000D02*
Y526000D01*
X2008000D01*
Y486000D01*
X1968000D01*
X1942000D02*
Y526000D01*
X1982000D01*
Y486000D01*
X1942000D01*
X1992000Y515000D02*
Y555000D01*
X2032000D01*
Y515000D01*
X1992000D01*
X1969000D02*
Y555000D01*
X2009000D01*
Y515000D01*
X1969000D01*
X1942000D02*
Y555000D01*
X1982000D01*
Y515000D01*
X1942000D01*
X1991000Y599000D02*
Y639000D01*
X2031000D01*
Y599000D01*
X1991000D01*
X1966000D02*
Y639000D01*
X2006000D01*
Y599000D01*
X1966000D01*
X1942000D02*
Y639000D01*
X1982000D01*
Y599000D01*
X1942000D01*
X1965783Y627947D02*
Y667947D01*
X2005783D01*
Y627947D01*
X1965783D01*
X1991000Y628000D02*
Y668000D01*
X2031000D01*
Y628000D01*
X1991000D01*
X1941000D02*
Y668000D01*
X1981000D01*
Y628000D01*
X1941000D01*
X1991000Y1704000D02*
Y1744000D01*
X2031000D01*
Y1704000D01*
X1991000D01*
X1967000D02*
Y1744000D01*
X2007000D01*
Y1704000D01*
X1967000D01*
X1943000D02*
Y1744000D01*
X1983000D01*
Y1704000D01*
X1943000D01*
X1991000Y1732000D02*
Y1772000D01*
X2031000D01*
Y1732000D01*
X1991000D01*
X1966000D02*
Y1772000D01*
X2006000D01*
Y1732000D01*
X1966000D01*
X1942000D02*
Y1772000D01*
X1982000D01*
Y1732000D01*
X1942000D01*
X1990000Y1818000D02*
Y1858000D01*
X2030000D01*
Y1818000D01*
X1990000D01*
X1966000D02*
Y1858000D01*
X2006000D01*
Y1818000D01*
X1966000D01*
X1942000D02*
Y1858000D01*
X1982000D01*
Y1818000D01*
X1942000D01*
X1989000Y1845000D02*
Y1885000D01*
X2029000D01*
Y1845000D01*
X1989000D01*
X1966000D02*
Y1885000D01*
X2006000D01*
Y1845000D01*
X1966000D01*
X1941000D02*
Y1885000D01*
X1981000D01*
Y1845000D01*
X1941000D01*
X1332552Y1816698D02*
Y1856698D01*
X1372552D01*
Y1816698D01*
X1332552D01*
X1212000Y879000D02*
Y919000D01*
X1252000D01*
Y879000D01*
X1212000D01*
X1304184Y1194272D02*
Y1234272D01*
X1344184D01*
Y1194272D01*
X1304184D01*
X812992Y1122000D02*
Y1162000D01*
X852992D01*
Y1122000D01*
X812992D01*
X1341000Y1899000D02*
Y1939000D01*
X1381000D01*
Y1899000D01*
X1341000D01*
X1080000Y2083000D02*
Y2123000D01*
X1120000D01*
Y2083000D01*
X1080000D01*
X1160000Y713000D02*
Y753000D01*
X1200000D01*
Y713000D01*
X1160000D01*
X1212000Y2048000D02*
Y2088000D01*
X1252000D01*
Y2048000D01*
X1212000D01*
X1134000Y2080000D02*
Y2120000D01*
X1174000D01*
Y2080000D01*
X1134000D01*
X994000Y1260008D02*
Y1300008D01*
X1034000D01*
Y1260008D01*
X994000D01*
X968341Y795972D02*
Y835972D01*
X1008341D01*
Y795972D01*
X968341D01*
X1092000Y583000D02*
Y623000D01*
X1132000D01*
Y583000D01*
X1092000D01*
X1176000Y2080000D02*
Y2120000D01*
X1216000D01*
Y2080000D01*
X1176000D01*
X1255000Y2048000D02*
Y2088000D01*
X1295000D01*
Y2048000D01*
X1255000D01*
X969000Y1388000D02*
Y1428000D01*
X1009000D01*
Y1388000D01*
X969000D01*
X645905Y432207D02*
Y472207D01*
X685905D01*
Y432207D01*
X645905D01*
X665636Y925787D02*
Y965787D01*
X705636D01*
Y925787D01*
X665636D01*
X662817Y1381642D02*
Y1421642D01*
X702817D01*
Y1381642D01*
X662817D01*
X666917Y1151726D02*
Y1191726D01*
X706917D01*
Y1151726D01*
X666917D01*
X1286405Y1682789D02*
Y1722789D01*
X1326405D01*
Y1682789D01*
X1286405D01*
X1126887Y1599915D02*
Y1639915D01*
X1166887D01*
Y1599915D01*
X1126887D01*
X634134Y1627255D02*
Y1667255D01*
X674134D01*
Y1627255D01*
X634134D01*
X856000Y1639000D02*
Y1679000D01*
X896000D01*
Y1639000D01*
X856000D01*
X943000Y1745000D02*
Y1785000D01*
X983000D01*
Y1745000D01*
X943000D01*
X942000Y1824000D02*
Y1864000D01*
X982000D01*
Y1824000D01*
X942000D01*
X2022000Y1176000D02*
Y1216000D01*
X2062000D01*
Y1176000D01*
X2022000D01*
X2023000Y1409000D02*
Y1449000D01*
X2063000D01*
Y1409000D01*
X2023000D01*
X1343000Y1363000D02*
Y1403000D01*
X1383000D01*
Y1363000D01*
X1343000D01*
X1344000Y1441000D02*
Y1481000D01*
X1384000D01*
Y1441000D01*
X1344000D01*
X1632000Y1158000D02*
Y1198000D01*
X1672000D01*
Y1158000D01*
X1632000D01*
X1895535Y2028000D02*
Y2068000D01*
X1935535D01*
Y2028000D01*
X1895535D01*
X1639162Y1928125D02*
Y1968125D01*
X1679162D01*
Y1928125D01*
X1639162D01*
X1054000Y1179000D02*
Y1219000D01*
X1094000D01*
Y1179000D01*
X1054000D01*
X1105898Y1244102D02*
Y1284102D01*
X1145898D01*
Y1244102D01*
X1105898D01*
X1241000Y1112000D02*
Y1152000D01*
X1281000D01*
Y1112000D01*
X1241000D01*
X1262000Y727850D02*
Y767850D01*
X1302000D01*
Y727850D01*
X1262000D01*
X813000Y949378D02*
Y989378D01*
X853000D01*
Y949378D01*
X813000D01*
X812992Y1036000D02*
Y1076000D01*
X852992D01*
Y1036000D01*
X812992D01*
Y915000D02*
Y955000D01*
X852992D01*
Y915000D01*
X812992D01*
Y1001000D02*
Y1041000D01*
X852992D01*
Y1001000D01*
X812992D01*
X1451000Y1062000D02*
Y1102000D01*
X1491000D01*
Y1062000D01*
X1451000D01*
X1030719Y635108D02*
Y675108D01*
X1070719D01*
Y635108D01*
X1030719D01*
D98*
X850992Y1711000D02*
G03*
X850992Y1711000I-20000J0D01*
G01*
Y1746000D02*
G03*
X850992Y1746000I-20000J0D01*
G01*
Y1833000D02*
G03*
X850992Y1833000I-20000J0D01*
G01*
Y1930000D02*
G03*
X850992Y1930000I-20000J0D01*
G01*
Y1895000D02*
G03*
X850992Y1895000I-20000J0D01*
G01*
Y1798000D02*
G03*
X850992Y1798000I-20000J0D01*
G01*
X918000Y2120000D02*
G03*
X918000Y2120000I-20000J0D01*
G01*
X943000D02*
G03*
X943000Y2120000I-20000J0D01*
G01*
X892000Y2146000D02*
G03*
X892000Y2146000I-20000J0D01*
G01*
X918000D02*
G03*
X918000Y2146000I-20000J0D01*
G01*
X944000D02*
G03*
X944000Y2146000I-20000J0D01*
G01*
X891000Y2173000D02*
G03*
X891000Y2173000I-20000J0D01*
G01*
X918000D02*
G03*
X918000Y2173000I-20000J0D01*
G01*
X944000D02*
G03*
X944000Y2173000I-20000J0D01*
G01*
X1155000Y1795000D02*
G03*
X1155000Y1795000I-20000J0D01*
G01*
X1255000Y1903000D02*
G03*
X1255000Y1903000I-20000J0D01*
G01*
X1027000Y915000D02*
G03*
X1027000Y915000I-20000J0D01*
G01*
Y939992D02*
G03*
X1027000Y939992I-20000J0D01*
G01*
X1095118Y920519D02*
G03*
X1095118Y920519I-20000J0D01*
G01*
X1333376Y622953D02*
G03*
X1333376Y622953I-20000J0D01*
G01*
X1307239Y622788D02*
G03*
X1307239Y622788I-20000J0D01*
G01*
X1280316Y623073D02*
G03*
X1280316Y623073I-20000J0D01*
G01*
X1252605Y622772D02*
G03*
X1252605Y622772I-20000J0D01*
G01*
X1225948Y623525D02*
G03*
X1225948Y623525I-20000J0D01*
G01*
X1199441Y623073D02*
G03*
X1199441Y623073I-20000J0D01*
G01*
X1520827Y1545000D02*
G03*
X1520827Y1545000I-20000J0D01*
G01*
X1521827Y1364000D02*
G03*
X1521827Y1364000I-20000J0D01*
G01*
X1520827Y1454000D02*
G03*
X1520827Y1454000I-20000J0D01*
G01*
X930000Y1571984D02*
G03*
X930000Y1571984I-20000J0D01*
G01*
X2065000Y299000D02*
G03*
X2065000Y299000I-20000J0D01*
G01*
X2007000Y297000D02*
G03*
X2007000Y297000I-20000J0D01*
G01*
X2065000Y274000D02*
G03*
X2065000Y274000I-20000J0D01*
G01*
X2040000D02*
G03*
X2040000Y274000I-20000J0D01*
G01*
X2016000D02*
G03*
X2016000Y274000I-20000J0D01*
G01*
X1992000D02*
G03*
X1992000Y274000I-20000J0D01*
G01*
X1983000Y302000D02*
G03*
X1983000Y302000I-20000J0D01*
G01*
X1959000D02*
G03*
X1959000Y302000I-20000J0D01*
G01*
X1983000Y327000D02*
G03*
X1983000Y327000I-20000J0D01*
G01*
X1959000D02*
G03*
X1959000Y327000I-20000J0D01*
G01*
X1983000Y352000D02*
G03*
X1983000Y352000I-20000J0D01*
G01*
X1959000D02*
G03*
X1959000Y352000I-20000J0D01*
G01*
X2007000Y377000D02*
G03*
X2007000Y377000I-20000J0D01*
G01*
X1983000D02*
G03*
X1983000Y377000I-20000J0D01*
G01*
X1959000D02*
G03*
X1959000Y377000I-20000J0D01*
G01*
X2055000Y402000D02*
G03*
X2055000Y402000I-20000J0D01*
G01*
X2031000D02*
G03*
X2031000Y402000I-20000J0D01*
G01*
X2007000D02*
G03*
X2007000Y402000I-20000J0D01*
G01*
X1983000D02*
G03*
X1983000Y402000I-20000J0D01*
G01*
X1959000D02*
G03*
X1959000Y402000I-20000J0D01*
G01*
X1934000Y377000D02*
G03*
X1934000Y377000I-20000J0D01*
G01*
Y327000D02*
G03*
X1934000Y327000I-20000J0D01*
G01*
X1934268Y302000D02*
G03*
X1934268Y302000I-20000J0D01*
G01*
Y352000D02*
G03*
X1934268Y352000I-20000J0D01*
G01*
X2056000Y907000D02*
G03*
X2056000Y907000I-20000J0D01*
G01*
X2032000D02*
G03*
X2032000Y907000I-20000J0D01*
G01*
X2008000D02*
G03*
X2008000Y907000I-20000J0D01*
G01*
X2058000Y801000D02*
G03*
X2058000Y801000I-20000J0D01*
G01*
X2008000Y800000D02*
G03*
X2008000Y800000I-20000J0D01*
G01*
X2069000Y778000D02*
G03*
X2069000Y778000I-20000J0D01*
G01*
X2044000D02*
G03*
X2044000Y778000I-20000J0D01*
G01*
X2020000D02*
G03*
X2020000Y778000I-20000J0D01*
G01*
X1996000D02*
G03*
X1996000Y778000I-20000J0D01*
G01*
X1984000Y807000D02*
G03*
X1984000Y807000I-20000J0D01*
G01*
Y832000D02*
G03*
X1984000Y832000I-20000J0D01*
G01*
Y857000D02*
G03*
X1984000Y857000I-20000J0D01*
G01*
Y882000D02*
G03*
X1984000Y882000I-20000J0D01*
G01*
Y907000D02*
G03*
X1984000Y907000I-20000J0D01*
G01*
X1959000D02*
G03*
X1959000Y907000I-20000J0D01*
G01*
Y882000D02*
G03*
X1959000Y882000I-20000J0D01*
G01*
Y857000D02*
G03*
X1959000Y857000I-20000J0D01*
G01*
Y832000D02*
G03*
X1959000Y832000I-20000J0D01*
G01*
Y807000D02*
G03*
X1959000Y807000I-20000J0D01*
G01*
X1934000Y832000D02*
G03*
X1934000Y832000I-20000J0D01*
G01*
Y882000D02*
G03*
X1934000Y882000I-20000J0D01*
G01*
X1934268Y807000D02*
G03*
X1934268Y807000I-20000J0D01*
G01*
Y907000D02*
G03*
X1934268Y907000I-20000J0D01*
G01*
X2052413Y1028761D02*
G03*
X2052413Y1028761I-20000J0D01*
G01*
X2012194Y1028812D02*
G03*
X2012194Y1028812I-20000J0D01*
G01*
X2067145Y1008319D02*
G03*
X2067145Y1008319I-20000J0D01*
G01*
X2043172Y1005244D02*
G03*
X2043172Y1005244I-20000J0D01*
G01*
X2018018Y1005409D02*
G03*
X2018018Y1005409I-20000J0D01*
G01*
X2060000Y1112000D02*
G03*
X2060000Y1112000I-20000J0D01*
G01*
X1994447Y1012414D02*
G03*
X1994447Y1012414I-20000J0D01*
G01*
X1986000Y1036000D02*
G03*
X1986000Y1036000I-20000J0D01*
G01*
X1960000D02*
G03*
X1960000Y1036000I-20000J0D01*
G01*
X1985000Y1061000D02*
G03*
X1985000Y1061000I-20000J0D01*
G01*
X1960000D02*
G03*
X1960000Y1061000I-20000J0D01*
G01*
X1985000Y1085000D02*
G03*
X1985000Y1085000I-20000J0D01*
G01*
X1960000D02*
G03*
X1960000Y1085000I-20000J0D01*
G01*
X1985000Y1111000D02*
G03*
X1985000Y1111000I-20000J0D01*
G01*
X1960000D02*
G03*
X1960000Y1111000I-20000J0D01*
G01*
X2060000Y1136000D02*
G03*
X2060000Y1136000I-20000J0D01*
G01*
X2035000D02*
G03*
X2035000Y1136000I-20000J0D01*
G01*
X2010000D02*
G03*
X2010000Y1136000I-20000J0D01*
G01*
X1985000D02*
G03*
X1985000Y1136000I-20000J0D01*
G01*
X1960000D02*
G03*
X1960000Y1136000I-20000J0D01*
G01*
X1935000Y1061000D02*
G03*
X1935000Y1061000I-20000J0D01*
G01*
Y1111000D02*
G03*
X1935000Y1111000I-20000J0D01*
G01*
X1935268Y1036000D02*
G03*
X1935268Y1036000I-20000J0D01*
G01*
Y1136000D02*
G03*
X1935268Y1136000I-20000J0D01*
G01*
Y1086000D02*
G03*
X1935268Y1086000I-20000J0D01*
G01*
X2068000Y1339000D02*
G03*
X2068000Y1339000I-20000J0D01*
G01*
X2058000Y1260000D02*
G03*
X2058000Y1260000I-20000J0D01*
G01*
X2033000Y1257000D02*
G03*
X2033000Y1257000I-20000J0D01*
G01*
X2070000Y1238000D02*
G03*
X2070000Y1238000I-20000J0D01*
G01*
X2046000Y1237000D02*
G03*
X2046000Y1237000I-20000J0D01*
G01*
X2021000D02*
G03*
X2021000Y1237000I-20000J0D01*
G01*
X2009000Y1259000D02*
G03*
X2009000Y1259000I-20000J0D01*
G01*
X1992000Y1239000D02*
G03*
X1992000Y1239000I-20000J0D01*
G01*
X1985000Y1264000D02*
G03*
X1985000Y1264000I-20000J0D01*
G01*
X1960000D02*
G03*
X1960000Y1264000I-20000J0D01*
G01*
X1985000Y1290000D02*
G03*
X1985000Y1290000I-20000J0D01*
G01*
X1960000D02*
G03*
X1960000Y1290000I-20000J0D01*
G01*
X1985000Y1314000D02*
G03*
X1985000Y1314000I-20000J0D01*
G01*
X1960000D02*
G03*
X1960000Y1314000I-20000J0D01*
G01*
X1985000Y1338000D02*
G03*
X1985000Y1338000I-20000J0D01*
G01*
X1960000D02*
G03*
X1960000Y1338000I-20000J0D01*
G01*
X2058000Y1364000D02*
G03*
X2058000Y1364000I-20000J0D01*
G01*
X2034000D02*
G03*
X2034000Y1364000I-20000J0D01*
G01*
X2010000D02*
G03*
X2010000Y1364000I-20000J0D01*
G01*
X1985000D02*
G03*
X1985000Y1364000I-20000J0D01*
G01*
X1960000D02*
G03*
X1960000Y1364000I-20000J0D01*
G01*
X1935000Y1290000D02*
G03*
X1935000Y1290000I-20000J0D01*
G01*
X1936000Y1338000D02*
G03*
X1936000Y1338000I-20000J0D01*
G01*
X1935268Y1364000D02*
G03*
X1935268Y1364000I-20000J0D01*
G01*
Y1264000D02*
G03*
X1935268Y1264000I-20000J0D01*
G01*
X2067000Y1568000D02*
G03*
X2067000Y1568000I-20000J0D01*
G01*
X2005000Y1491000D02*
G03*
X2005000Y1491000I-20000J0D01*
G01*
X2066000Y1492000D02*
G03*
X2066000Y1492000I-20000J0D01*
G01*
Y1466000D02*
G03*
X2066000Y1466000I-20000J0D01*
G01*
X2041000D02*
G03*
X2041000Y1466000I-20000J0D01*
G01*
X2017000D02*
G03*
X2017000Y1466000I-20000J0D01*
G01*
X1992000D02*
G03*
X1992000Y1466000I-20000J0D01*
G01*
X1979000Y1491000D02*
G03*
X1979000Y1491000I-20000J0D01*
G01*
X1954000Y1492000D02*
G03*
X1954000Y1492000I-20000J0D01*
G01*
X1979000Y1516000D02*
G03*
X1979000Y1516000I-20000J0D01*
G01*
X1954000D02*
G03*
X1954000Y1516000I-20000J0D01*
G01*
X1979000Y1540000D02*
G03*
X1979000Y1540000I-20000J0D01*
G01*
X1954000Y1541000D02*
G03*
X1954000Y1541000I-20000J0D01*
G01*
X1980000Y1565000D02*
G03*
X1980000Y1565000I-20000J0D01*
G01*
X1954000Y1566000D02*
G03*
X1954000Y1566000I-20000J0D01*
G01*
X2055000Y1592000D02*
G03*
X2055000Y1592000I-20000J0D01*
G01*
X2030000D02*
G03*
X2030000Y1592000I-20000J0D01*
G01*
X2005000D02*
G03*
X2005000Y1592000I-20000J0D01*
G01*
X1979000D02*
G03*
X1979000Y1592000I-20000J0D01*
G01*
X1954000D02*
G03*
X1954000Y1592000I-20000J0D01*
G01*
X1929000Y1516000D02*
G03*
X1929000Y1516000I-20000J0D01*
G01*
Y1567000D02*
G03*
X1929000Y1567000I-20000J0D01*
G01*
X1929142Y1542000D02*
G03*
X1929142Y1542000I-20000J0D01*
G01*
Y1592000D02*
G03*
X1929142Y1592000I-20000J0D01*
G01*
X1934268Y402000D02*
G03*
X1934268Y402000I-20000J0D01*
G01*
X2027980Y950868D02*
G03*
X2027980Y950868I-20000J0D01*
G01*
X2066000Y2123000D02*
G03*
X2066000Y2123000I-20000J0D01*
G01*
X2010000Y2046000D02*
G03*
X2010000Y2046000I-20000J0D01*
G01*
X2069000Y2048000D02*
G03*
X2069000Y2048000I-20000J0D01*
G01*
Y2023000D02*
G03*
X2069000Y2023000I-20000J0D01*
G01*
X2044000D02*
G03*
X2044000Y2023000I-20000J0D01*
G01*
X2019000D02*
G03*
X2019000Y2023000I-20000J0D01*
G01*
X1993000D02*
G03*
X1993000Y2023000I-20000J0D01*
G01*
X1987000Y2048000D02*
G03*
X1987000Y2048000I-20000J0D01*
G01*
X1962000D02*
G03*
X1962000Y2048000I-20000J0D01*
G01*
X1986000Y2073000D02*
G03*
X1986000Y2073000I-20000J0D01*
G01*
X1961000D02*
G03*
X1961000Y2073000I-20000J0D01*
G01*
X1985000Y2099000D02*
G03*
X1985000Y2099000I-20000J0D01*
G01*
X1961000D02*
G03*
X1961000Y2099000I-20000J0D01*
G01*
X1988000Y2124000D02*
G03*
X1988000Y2124000I-20000J0D01*
G01*
X1961000D02*
G03*
X1961000Y2124000I-20000J0D01*
G01*
X2065000Y2148000D02*
G03*
X2065000Y2148000I-20000J0D01*
G01*
X2039000Y2149000D02*
G03*
X2039000Y2149000I-20000J0D01*
G01*
X2013000D02*
G03*
X2013000Y2149000I-20000J0D01*
G01*
X1987000D02*
G03*
X1987000Y2149000I-20000J0D01*
G01*
X1961000D02*
G03*
X1961000Y2149000I-20000J0D01*
G01*
X1935000Y2073000D02*
G03*
X1935000Y2073000I-20000J0D01*
G01*
X1936000Y2124000D02*
G03*
X1936000Y2124000I-20000J0D01*
G01*
X1935268Y2149000D02*
G03*
X1935268Y2149000I-20000J0D01*
G01*
Y2099000D02*
G03*
X1935268Y2099000I-20000J0D01*
G01*
X378000Y378000D02*
G03*
X378000Y378000I-20000J0D01*
G01*
X363000Y403000D02*
G03*
X363000Y403000I-20000J0D01*
G01*
X336000D02*
G03*
X336000Y403000I-20000J0D01*
G01*
X310000D02*
G03*
X310000Y403000I-20000J0D01*
G01*
Y376000D02*
G03*
X310000Y376000I-20000J0D01*
G01*
X312000Y304000D02*
G03*
X312000Y304000I-20000J0D01*
G01*
X315000Y226000D02*
G03*
X315000Y226000I-20000J0D01*
G01*
X312000Y252000D02*
G03*
X312000Y252000I-20000J0D01*
G01*
Y278000D02*
G03*
X312000Y278000I-20000J0D01*
G01*
X340000Y277000D02*
G03*
X340000Y277000I-20000J0D01*
G01*
X366000D02*
G03*
X366000Y277000I-20000J0D01*
G01*
Y251000D02*
G03*
X366000Y251000I-20000J0D01*
G01*
X340000D02*
G03*
X340000Y251000I-20000J0D01*
G01*
Y221000D02*
G03*
X340000Y221000I-20000J0D01*
G01*
X366000D02*
G03*
X366000Y221000I-20000J0D01*
G01*
X392000D02*
G03*
X392000Y221000I-20000J0D01*
G01*
Y251000D02*
G03*
X392000Y251000I-20000J0D01*
G01*
Y276000D02*
G03*
X392000Y276000I-20000J0D01*
G01*
Y302000D02*
G03*
X392000Y302000I-20000J0D01*
G01*
Y327000D02*
G03*
X392000Y327000I-20000J0D01*
G01*
X418000Y221000D02*
G03*
X418000Y221000I-20000J0D01*
G01*
X418138Y251673D02*
G03*
X418138Y251673I-20000J0D01*
G01*
X418000Y276000D02*
G03*
X418000Y276000I-20000J0D01*
G01*
Y302000D02*
G03*
X418000Y302000I-20000J0D01*
G01*
Y327000D02*
G03*
X418000Y327000I-20000J0D01*
G01*
X392000Y352000D02*
G03*
X392000Y352000I-20000J0D01*
G01*
X418000D02*
G03*
X418000Y352000I-20000J0D01*
G01*
X442000Y327000D02*
G03*
X442000Y327000I-20000J0D01*
G01*
Y277000D02*
G03*
X442000Y277000I-20000J0D01*
G01*
Y221000D02*
G03*
X442000Y221000I-20000J0D01*
G01*
X442000Y252000D02*
G03*
X442000Y252000I-20000J0D01*
G01*
Y302000D02*
G03*
X442000Y302000I-20000J0D01*
G01*
Y352000D02*
G03*
X442000Y352000I-20000J0D01*
G01*
X1505000Y1930000D02*
G03*
X1505000Y1930000I-20000J0D01*
G01*
X375000Y853000D02*
G03*
X375000Y853000I-20000J0D01*
G01*
X385000Y876000D02*
G03*
X385000Y876000I-20000J0D01*
G01*
X361000D02*
G03*
X361000Y876000I-20000J0D01*
G01*
X335000Y877000D02*
G03*
X335000Y877000I-20000J0D01*
G01*
X308000D02*
G03*
X308000Y877000I-20000J0D01*
G01*
X309000Y851000D02*
G03*
X309000Y851000I-20000J0D01*
G01*
X398000Y833000D02*
G03*
X398000Y833000I-20000J0D01*
G01*
X394000Y809000D02*
G03*
X394000Y809000I-20000J0D01*
G01*
X383000Y785000D02*
G03*
X383000Y785000I-20000J0D01*
G01*
X308000Y784000D02*
G03*
X308000Y784000I-20000J0D01*
G01*
X389000Y760000D02*
G03*
X389000Y760000I-20000J0D01*
G01*
X364000D02*
G03*
X364000Y760000I-20000J0D01*
G01*
X338000D02*
G03*
X338000Y760000I-20000J0D01*
G01*
X312000D02*
G03*
X312000Y760000I-20000J0D01*
G01*
Y735000D02*
G03*
X312000Y735000I-20000J0D01*
G01*
X338000D02*
G03*
X338000Y735000I-20000J0D01*
G01*
X364000Y736000D02*
G03*
X364000Y736000I-20000J0D01*
G01*
X389000D02*
G03*
X389000Y736000I-20000J0D01*
G01*
X440000Y735000D02*
G03*
X440000Y735000I-20000J0D01*
G01*
X414000Y736000D02*
G03*
X414000Y736000I-20000J0D01*
G01*
X428000Y758000D02*
G03*
X428000Y758000I-20000J0D01*
G01*
Y783000D02*
G03*
X428000Y783000I-20000J0D01*
G01*
Y807000D02*
G03*
X428000Y807000I-20000J0D01*
G01*
Y831000D02*
G03*
X428000Y831000I-20000J0D01*
G01*
X427000Y857000D02*
G03*
X427000Y857000I-20000J0D01*
G01*
X400839Y857028D02*
G03*
X400839Y857028I-20000J0D01*
G01*
X456000Y782000D02*
G03*
X456000Y782000I-20000J0D01*
G01*
Y832000D02*
G03*
X456000Y832000I-20000J0D01*
G01*
X455590Y757000D02*
G03*
X455590Y757000I-20000J0D01*
G01*
Y807000D02*
G03*
X455590Y807000I-20000J0D01*
G01*
Y857000D02*
G03*
X455590Y857000I-20000J0D01*
G01*
X409000Y1099000D02*
G03*
X409000Y1099000I-20000J0D01*
G01*
X383000D02*
G03*
X383000Y1099000I-20000J0D01*
G01*
X358000D02*
G03*
X358000Y1099000I-20000J0D01*
G01*
X333000D02*
G03*
X333000Y1099000I-20000J0D01*
G01*
X308000D02*
G03*
X308000Y1099000I-20000J0D01*
G01*
X309000Y1072000D02*
G03*
X309000Y1072000I-20000J0D01*
G01*
D02*
G03*
X309000Y1072000I-20000J0D01*
G01*
X420000Y1073000D02*
G03*
X420000Y1073000I-20000J0D01*
G01*
X392000Y1072000D02*
G03*
X392000Y1072000I-20000J0D01*
G01*
D02*
G03*
X392000Y1072000I-20000J0D01*
G01*
X420000Y1047000D02*
G03*
X420000Y1047000I-20000J0D01*
G01*
X393000D02*
G03*
X393000Y1047000I-20000J0D01*
G01*
X420000Y1021000D02*
G03*
X420000Y1021000I-20000J0D01*
G01*
X393000D02*
G03*
X393000Y1021000I-20000J0D01*
G01*
X420000Y995000D02*
G03*
X420000Y995000I-20000J0D01*
G01*
X394000D02*
G03*
X394000Y995000I-20000J0D01*
G01*
X368000D02*
G03*
X368000Y995000I-20000J0D01*
G01*
X319000D02*
G03*
X319000Y995000I-20000J0D01*
G01*
X318000Y970000D02*
G03*
X318000Y970000I-20000J0D01*
G01*
X343000D02*
G03*
X343000Y970000I-20000J0D01*
G01*
X368000D02*
G03*
X368000Y970000I-20000J0D01*
G01*
X394000D02*
G03*
X394000Y970000I-20000J0D01*
G01*
X420000D02*
G03*
X420000Y970000I-20000J0D01*
G01*
X442000Y1011000D02*
G03*
X442000Y1011000I-20000J0D01*
G01*
Y1061000D02*
G03*
X442000Y1061000I-20000J0D01*
G01*
X442079Y986000D02*
G03*
X442079Y986000I-20000J0D01*
G01*
Y1036000D02*
G03*
X442079Y1036000I-20000J0D01*
G01*
Y1086000D02*
G03*
X442079Y1086000I-20000J0D01*
G01*
X392000Y1288000D02*
G03*
X392000Y1288000I-20000J0D01*
G01*
X355000Y1204000D02*
G03*
X355000Y1204000I-20000J0D01*
G01*
X308000Y1206000D02*
G03*
X308000Y1206000I-20000J0D01*
G01*
X336000Y1223000D02*
G03*
X336000Y1223000I-20000J0D01*
G01*
X370000Y1227000D02*
G03*
X370000Y1227000I-20000J0D01*
G01*
X308000Y1232000D02*
G03*
X308000Y1232000I-20000J0D01*
G01*
Y1304000D02*
G03*
X308000Y1304000I-20000J0D01*
G01*
X318000Y1328000D02*
G03*
X318000Y1328000I-20000J0D01*
G01*
X344000Y1329000D02*
G03*
X344000Y1329000I-20000J0D01*
G01*
X370000D02*
G03*
X370000Y1329000I-20000J0D01*
G01*
X393000Y1212000D02*
G03*
X393000Y1212000I-20000J0D01*
G01*
Y1236000D02*
G03*
X393000Y1236000I-20000J0D01*
G01*
X418000Y1213000D02*
G03*
X418000Y1213000I-20000J0D01*
G01*
Y1237000D02*
G03*
X418000Y1237000I-20000J0D01*
G01*
X392000Y1263000D02*
G03*
X392000Y1263000I-20000J0D01*
G01*
X417000D02*
G03*
X417000Y1263000I-20000J0D01*
G01*
Y1289000D02*
G03*
X417000Y1289000I-20000J0D01*
G01*
X390000Y1313000D02*
G03*
X390000Y1313000I-20000J0D01*
G01*
X417000D02*
G03*
X417000Y1313000I-20000J0D01*
G01*
X442000Y1289000D02*
G03*
X442000Y1289000I-20000J0D01*
G01*
Y1238000D02*
G03*
X442000Y1238000I-20000J0D01*
G01*
X442000Y1214000D02*
G03*
X442000Y1214000I-20000J0D01*
G01*
Y1264000D02*
G03*
X442000Y1264000I-20000J0D01*
G01*
Y1314000D02*
G03*
X442000Y1314000I-20000J0D01*
G01*
X410000Y1471000D02*
G03*
X410000Y1471000I-20000J0D01*
G01*
X384000D02*
G03*
X384000Y1471000I-20000J0D01*
G01*
X359000D02*
G03*
X359000Y1471000I-20000J0D01*
G01*
X334000D02*
G03*
X334000Y1471000I-20000J0D01*
G01*
X411000Y1444000D02*
G03*
X411000Y1444000I-20000J0D01*
G01*
X384000D02*
G03*
X384000Y1444000I-20000J0D01*
G01*
X359000D02*
G03*
X359000Y1444000I-20000J0D01*
G01*
X334000D02*
G03*
X334000Y1444000I-20000J0D01*
G01*
X309000D02*
G03*
X309000Y1444000I-20000J0D01*
G01*
Y1471000D02*
G03*
X309000Y1471000I-20000J0D01*
G01*
Y1498000D02*
G03*
X309000Y1498000I-20000J0D01*
G01*
X413000Y1504000D02*
G03*
X413000Y1504000I-20000J0D01*
G01*
X387000D02*
G03*
X387000Y1504000I-20000J0D01*
G01*
X420000Y1529000D02*
G03*
X420000Y1529000I-20000J0D01*
G01*
X394000D02*
G03*
X394000Y1529000I-20000J0D01*
G01*
X416000Y1554000D02*
G03*
X416000Y1554000I-20000J0D01*
G01*
X389000Y1555000D02*
G03*
X389000Y1555000I-20000J0D01*
G01*
X371000Y1574000D02*
G03*
X371000Y1574000I-20000J0D01*
G01*
X310000Y1571000D02*
G03*
X310000Y1571000I-20000J0D01*
G01*
X360000Y1598000D02*
G03*
X360000Y1598000I-20000J0D01*
G01*
X334000D02*
G03*
X334000Y1598000I-20000J0D01*
G01*
X309000D02*
G03*
X309000Y1598000I-20000J0D01*
G01*
X442000Y1517000D02*
G03*
X442000Y1517000I-20000J0D01*
G01*
Y1467000D02*
G03*
X442000Y1467000I-20000J0D01*
G01*
X442000Y1442000D02*
G03*
X442000Y1442000I-20000J0D01*
G01*
Y1492000D02*
G03*
X442000Y1492000I-20000J0D01*
G01*
Y1542000D02*
G03*
X442000Y1542000I-20000J0D01*
G01*
X419000Y1971000D02*
G03*
X419000Y1971000I-20000J0D01*
G01*
X391000Y2007000D02*
G03*
X391000Y2007000I-20000J0D01*
G01*
X394000Y2035000D02*
G03*
X394000Y2035000I-20000J0D01*
G01*
X392000Y2063000D02*
G03*
X392000Y2063000I-20000J0D01*
G01*
X376000Y2087000D02*
G03*
X376000Y2087000I-20000J0D01*
G01*
X391000Y2111000D02*
G03*
X391000Y2111000I-20000J0D01*
G01*
X362000D02*
G03*
X362000Y2111000I-20000J0D01*
G01*
X335000D02*
G03*
X335000Y2111000I-20000J0D01*
G01*
X309000D02*
G03*
X309000Y2111000I-20000J0D01*
G01*
X310000Y2085000D02*
G03*
X310000Y2085000I-20000J0D01*
G01*
X369000Y1992000D02*
G03*
X369000Y1992000I-20000J0D01*
G01*
X343000D02*
G03*
X343000Y1992000I-20000J0D01*
G01*
X317000Y1993000D02*
G03*
X317000Y1993000I-20000J0D01*
G01*
X394000Y1964000D02*
G03*
X394000Y1964000I-20000J0D01*
G01*
X369000D02*
G03*
X369000Y1964000I-20000J0D01*
G01*
X343000Y1965000D02*
G03*
X343000Y1965000I-20000J0D01*
G01*
X317000Y1966000D02*
G03*
X317000Y1966000I-20000J0D01*
G01*
X417000Y2099000D02*
G03*
X417000Y2099000I-20000J0D01*
G01*
Y2074000D02*
G03*
X417000Y2074000I-20000J0D01*
G01*
Y2049000D02*
G03*
X417000Y2049000I-20000J0D01*
G01*
Y2023000D02*
G03*
X417000Y2023000I-20000J0D01*
G01*
Y1998000D02*
G03*
X417000Y1998000I-20000J0D01*
G01*
X442000Y2024000D02*
G03*
X442000Y2024000I-20000J0D01*
G01*
Y2074000D02*
G03*
X442000Y2074000I-20000J0D01*
G01*
X442000Y2099000D02*
G03*
X442000Y2099000I-20000J0D01*
G01*
Y2049000D02*
G03*
X442000Y2049000I-20000J0D01*
G01*
Y1999000D02*
G03*
X442000Y1999000I-20000J0D01*
G01*
X1524759Y865751D02*
G03*
X1524759Y865751I-20000J0D01*
G01*
X396000Y1724000D02*
G03*
X396000Y1724000I-20000J0D01*
G01*
X371000D02*
G03*
X371000Y1724000I-20000J0D01*
G01*
X345000D02*
G03*
X345000Y1724000I-20000J0D01*
G01*
X396000Y1753000D02*
G03*
X396000Y1753000I-20000J0D01*
G01*
X371000D02*
G03*
X371000Y1753000I-20000J0D01*
G01*
X345000D02*
G03*
X345000Y1753000I-20000J0D01*
G01*
X395000Y1836000D02*
G03*
X395000Y1836000I-20000J0D01*
G01*
X371000D02*
G03*
X371000Y1836000I-20000J0D01*
G01*
X346000D02*
G03*
X346000Y1836000I-20000J0D01*
G01*
X395000Y1865000D02*
G03*
X395000Y1865000I-20000J0D01*
G01*
X371000D02*
G03*
X371000Y1865000I-20000J0D01*
G01*
X346000D02*
G03*
X346000Y1865000I-20000J0D01*
G01*
X394000Y619000D02*
G03*
X394000Y619000I-20000J0D01*
G01*
X370000Y620000D02*
G03*
X370000Y620000I-20000J0D01*
G01*
X346000Y621000D02*
G03*
X346000Y621000I-20000J0D01*
G01*
X394000Y648000D02*
G03*
X394000Y648000I-20000J0D01*
G01*
X370000D02*
G03*
X370000Y648000I-20000J0D01*
G01*
X346000D02*
G03*
X346000Y648000I-20000J0D01*
G01*
X396000Y508000D02*
G03*
X396000Y508000I-20000J0D01*
G01*
X372000D02*
G03*
X372000Y508000I-20000J0D01*
G01*
X347000D02*
G03*
X347000Y508000I-20000J0D01*
G01*
X397000Y535000D02*
G03*
X397000Y535000I-20000J0D01*
G01*
X374000D02*
G03*
X374000Y535000I-20000J0D01*
G01*
X346000D02*
G03*
X346000Y535000I-20000J0D01*
G01*
X1325000Y1791000D02*
G03*
X1325000Y1791000I-20000J0D01*
G01*
X1070992Y797000D02*
G03*
X1070992Y797000I-20000J0D01*
G01*
X1290000Y894992D02*
G03*
X1290000Y894992I-20000J0D01*
G01*
X830000Y216000D02*
G03*
X830000Y216000I-20000J0D01*
G01*
X1375642Y883880D02*
G03*
X1375642Y883880I-20000J0D01*
G01*
X1313000Y1495000D02*
G03*
X1313000Y1495000I-20000J0D01*
G01*
X317992Y1378000D02*
G03*
X317992Y1378000I-20000J0D01*
G01*
X461000Y1646000D02*
G03*
X461000Y1646000I-20000J0D01*
G01*
X315992Y2148000D02*
G03*
X315992Y2148000I-20000J0D01*
G01*
X1251744Y182378D02*
G03*
X1251744Y182378I-20000J0D01*
G01*
X1223000Y181000D02*
G03*
X1223000Y181000I-20000J0D01*
G01*
X1225000Y206000D02*
G03*
X1225000Y206000I-20000J0D01*
G01*
X1202000Y195000D02*
G03*
X1202000Y195000I-20000J0D01*
G01*
X1174000Y197000D02*
G03*
X1174000Y197000I-20000J0D01*
G01*
X1200000Y221000D02*
G03*
X1200000Y221000I-20000J0D01*
G01*
X1175000Y224000D02*
G03*
X1175000Y224000I-20000J0D01*
G01*
X1223000Y231000D02*
G03*
X1223000Y231000I-20000J0D01*
G01*
X1224000Y259000D02*
G03*
X1224000Y259000I-20000J0D01*
G01*
X1199000Y248000D02*
G03*
X1199000Y248000I-20000J0D01*
G01*
X1174000Y249000D02*
G03*
X1174000Y249000I-20000J0D01*
G01*
X1199000Y274000D02*
G03*
X1199000Y274000I-20000J0D01*
G01*
X1174000Y276000D02*
G03*
X1174000Y276000I-20000J0D01*
G01*
X1222000Y286000D02*
G03*
X1222000Y286000I-20000J0D01*
G01*
X1225000Y315000D02*
G03*
X1225000Y315000I-20000J0D01*
G01*
X1198000Y302000D02*
G03*
X1198000Y302000I-20000J0D01*
G01*
X1173000D02*
G03*
X1173000Y302000I-20000J0D01*
G01*
X1523008Y1329000D02*
G03*
X1523008Y1329000I-20000J0D01*
G01*
X1522008Y1419000D02*
G03*
X1522008Y1419000I-20000J0D01*
G01*
Y1510000D02*
G03*
X1522008Y1510000I-20000J0D01*
G01*
X1674243Y949567D02*
G03*
X1674243Y949567I-20000J0D01*
G01*
X459000Y457000D02*
G03*
X459000Y457000I-20000J0D01*
G01*
X316992Y917000D02*
G03*
X316992Y917000I-20000J0D01*
G01*
Y1136000D02*
G03*
X316992Y1136000I-20000J0D01*
G01*
X1105607Y814226D02*
G03*
X1105607Y814226I-20000J0D01*
G01*
X1640119Y214706D02*
G03*
X1640119Y214706I-20000J0D01*
G01*
X992000Y939992D02*
G03*
X992000Y939992I-20000J0D01*
G01*
X1845000Y195000D02*
G03*
X1845000Y195000I-20000J0D01*
G01*
X1483000Y689000D02*
G03*
X1483000Y689000I-20000J0D01*
G01*
X1881000Y701000D02*
G03*
X1881000Y701000I-20000J0D01*
G01*
X1679000Y712000D02*
G03*
X1679000Y712000I-20000J0D01*
G01*
X1524008Y775000D02*
G03*
X1524008Y775000I-20000J0D01*
G01*
X1380000Y790000D02*
G03*
X1380000Y790000I-20000J0D01*
G01*
X1934268Y857000D02*
G03*
X1934268Y857000I-20000J0D01*
G01*
X1524008Y954000D02*
G03*
X1524008Y954000I-20000J0D01*
G01*
Y919000D02*
G03*
X1524008Y919000I-20000J0D01*
G01*
Y830000D02*
G03*
X1524008Y830000I-20000J0D01*
G01*
Y740000D02*
G03*
X1524008Y740000I-20000J0D01*
G01*
X905008Y210000D02*
G03*
X905008Y210000I-20000J0D01*
G01*
X1460000Y180000D02*
G03*
X1460000Y180000I-20000J0D01*
G01*
X1430000D02*
G03*
X1430000Y180000I-20000J0D01*
G01*
X1400000D02*
G03*
X1400000Y180000I-20000J0D01*
G01*
X1370000D02*
G03*
X1370000Y180000I-20000J0D01*
G01*
X1340000D02*
G03*
X1340000Y180000I-20000J0D01*
G01*
X1310000D02*
G03*
X1310000Y180000I-20000J0D01*
G01*
X1280000D02*
G03*
X1280000Y180000I-20000J0D01*
G01*
X1490000Y210000D02*
G03*
X1490000Y210000I-20000J0D01*
G01*
X1460000D02*
G03*
X1460000Y210000I-20000J0D01*
G01*
X1430000D02*
G03*
X1430000Y210000I-20000J0D01*
G01*
X1400000D02*
G03*
X1400000Y210000I-20000J0D01*
G01*
X1370000D02*
G03*
X1370000Y210000I-20000J0D01*
G01*
X1340000D02*
G03*
X1340000Y210000I-20000J0D01*
G01*
X1310000D02*
G03*
X1310000Y210000I-20000J0D01*
G01*
X1280000D02*
G03*
X1280000Y210000I-20000J0D01*
G01*
X1250000D02*
G03*
X1250000Y210000I-20000J0D01*
G01*
X1490000Y240000D02*
G03*
X1490000Y240000I-20000J0D01*
G01*
X1460000D02*
G03*
X1460000Y240000I-20000J0D01*
G01*
X1430000D02*
G03*
X1430000Y240000I-20000J0D01*
G01*
X1400000D02*
G03*
X1400000Y240000I-20000J0D01*
G01*
X1370000D02*
G03*
X1370000Y240000I-20000J0D01*
G01*
X1340000D02*
G03*
X1340000Y240000I-20000J0D01*
G01*
X1310000D02*
G03*
X1310000Y240000I-20000J0D01*
G01*
X1280000D02*
G03*
X1280000Y240000I-20000J0D01*
G01*
X1250000D02*
G03*
X1250000Y240000I-20000J0D01*
G01*
X1490000Y270000D02*
G03*
X1490000Y270000I-20000J0D01*
G01*
X1460000D02*
G03*
X1460000Y270000I-20000J0D01*
G01*
X1430000D02*
G03*
X1430000Y270000I-20000J0D01*
G01*
X1400000D02*
G03*
X1400000Y270000I-20000J0D01*
G01*
X1370000D02*
G03*
X1370000Y270000I-20000J0D01*
G01*
X1340000D02*
G03*
X1340000Y270000I-20000J0D01*
G01*
X1310000D02*
G03*
X1310000Y270000I-20000J0D01*
G01*
X1280000D02*
G03*
X1280000Y270000I-20000J0D01*
G01*
X1250000D02*
G03*
X1250000Y270000I-20000J0D01*
G01*
X1490000Y300000D02*
G03*
X1490000Y300000I-20000J0D01*
G01*
X1460000D02*
G03*
X1460000Y300000I-20000J0D01*
G01*
X1430000D02*
G03*
X1430000Y300000I-20000J0D01*
G01*
X1400000D02*
G03*
X1400000Y300000I-20000J0D01*
G01*
X1370000D02*
G03*
X1370000Y300000I-20000J0D01*
G01*
X1340000D02*
G03*
X1340000Y300000I-20000J0D01*
G01*
X1310000D02*
G03*
X1310000Y300000I-20000J0D01*
G01*
X1280000D02*
G03*
X1280000Y300000I-20000J0D01*
G01*
X1250000D02*
G03*
X1250000Y300000I-20000J0D01*
G01*
X1490000Y330000D02*
G03*
X1490000Y330000I-20000J0D01*
G01*
X1460000D02*
G03*
X1460000Y330000I-20000J0D01*
G01*
X1430000D02*
G03*
X1430000Y330000I-20000J0D01*
G01*
X1400000D02*
G03*
X1400000Y330000I-20000J0D01*
G01*
X1370000D02*
G03*
X1370000Y330000I-20000J0D01*
G01*
X1340000D02*
G03*
X1340000Y330000I-20000J0D01*
G01*
X1310000D02*
G03*
X1310000Y330000I-20000J0D01*
G01*
X1280000D02*
G03*
X1280000Y330000I-20000J0D01*
G01*
X1250000D02*
G03*
X1250000Y330000I-20000J0D01*
G01*
X1475000Y360000D02*
G03*
X1475000Y360000I-20000J0D01*
G01*
X1445000D02*
G03*
X1445000Y360000I-20000J0D01*
G01*
X1415000D02*
G03*
X1415000Y360000I-20000J0D01*
G01*
X1385000D02*
G03*
X1385000Y360000I-20000J0D01*
G01*
X1355000D02*
G03*
X1355000Y360000I-20000J0D01*
G01*
X1325000D02*
G03*
X1325000Y360000I-20000J0D01*
G01*
X1295000D02*
G03*
X1295000Y360000I-20000J0D01*
G01*
X1269000Y362000D02*
G03*
X1269000Y362000I-20000J0D01*
G01*
%TF.MD5,797a030c16188ced07ce884fe45adb05*%
M02*
