%TF.GenerationSoftware,Altium Limited,Altium Designer,20.2.3 (150)*%
G04 Layer_Color=255*
%FSLAX26Y26*%
%MOIN*%
%TF.SameCoordinates,1E0D65CC-F0FE-4DFC-A0D5-6D9DD74121E6*%
%TF.FilePolarity,Positive*%
%TF.FileFunction,Pads,Bot*%
%TF.Part,Single*%
G01*
G75*
%TA.AperFunction,SMDPad,SMDef*%
G04:AMPARAMS|DCode=10|XSize=98.425mil|YSize=1811.024mil|CornerRadius=24.606mil|HoleSize=0mil|Usage=FLASHONLY|Rotation=0.000|XOffset=0mil|YOffset=0mil|HoleType=Round|Shape=RoundedRectangle|*
%AMROUNDEDRECTD10*
21,1,0.098425,1.761811,0,0,0.0*
21,1,0.049213,1.811024,0,0,0.0*
1,1,0.049213,0.024606,-0.880905*
1,1,0.049213,-0.024606,-0.880905*
1,1,0.049213,-0.024606,0.880905*
1,1,0.049213,0.024606,0.880905*
%
%ADD10ROUNDEDRECTD10*%
%TA.AperFunction,SMDPad,CuDef*%
%ADD12R,0.023622X0.021260*%
%ADD13R,0.075197X0.053937*%
%TA.AperFunction,SMDPad,SMDef*%
G04:AMPARAMS|DCode=15|XSize=31.496mil|YSize=31.496mil|CornerRadius=7.874mil|HoleSize=0mil|Usage=FLASHONLY|Rotation=90.000|XOffset=0mil|YOffset=0mil|HoleType=Round|Shape=RoundedRectangle|*
%AMROUNDEDRECTD15*
21,1,0.031496,0.015748,0,0,90.0*
21,1,0.015748,0.031496,0,0,90.0*
1,1,0.015748,0.007874,0.007874*
1,1,0.015748,0.007874,-0.007874*
1,1,0.015748,-0.007874,-0.007874*
1,1,0.015748,-0.007874,0.007874*
%
%ADD15ROUNDEDRECTD15*%
%TA.AperFunction,SMDPad,CuDef*%
%ADD16R,0.020000X0.036614*%
%ADD17R,0.147638X0.185039*%
%ADD18R,0.041339X0.033465*%
%ADD19R,0.057087X0.033465*%
%TA.AperFunction,SMDPad,SMDef*%
G04:AMPARAMS|DCode=20|XSize=98.425mil|YSize=1850.394mil|CornerRadius=24.606mil|HoleSize=0mil|Usage=FLASHONLY|Rotation=0.000|XOffset=0mil|YOffset=0mil|HoleType=Round|Shape=RoundedRectangle|*
%AMROUNDEDRECTD20*
21,1,0.098425,1.801181,0,0,0.0*
21,1,0.049213,1.850394,0,0,0.0*
1,1,0.049213,0.024606,-0.900591*
1,1,0.049213,-0.024606,-0.900591*
1,1,0.049213,-0.024606,0.900591*
1,1,0.049213,0.024606,0.900591*
%
%ADD20ROUNDEDRECTD20*%
%TA.AperFunction,SMDPad,CuDef*%
%ADD24R,0.016000X0.023622*%
%ADD25R,0.033465X0.011811*%
%ADD26R,0.011811X0.033465*%
%ADD27R,0.106299X0.106299*%
%ADD28R,0.106000X0.039000*%
%ADD30R,0.023622X0.016000*%
%ADD31R,0.021260X0.023622*%
%TA.AperFunction,SMDPad,SMDef*%
G04:AMPARAMS|DCode=45|XSize=98.425mil|YSize=196.85mil|CornerRadius=24.606mil|HoleSize=0mil|Usage=FLASHONLY|Rotation=270.000|XOffset=0mil|YOffset=0mil|HoleType=Round|Shape=RoundedRectangle|*
%AMROUNDEDRECTD45*
21,1,0.098425,0.147638,0,0,270.0*
21,1,0.049213,0.196850,0,0,270.0*
1,1,0.049213,-0.073819,-0.024606*
1,1,0.049213,-0.073819,0.024606*
1,1,0.049213,0.073819,0.024606*
1,1,0.049213,0.073819,-0.024606*
%
%ADD45ROUNDEDRECTD45*%
%TA.AperFunction,SMDPad,CuDef*%
%ADD46R,0.053937X0.075197*%
%ADD47R,0.041339X0.019685*%
%ADD48R,0.036614X0.020000*%
G04:AMPARAMS|DCode=49|XSize=47.638mil|YSize=23.228mil|CornerRadius=5.807mil|HoleSize=0mil|Usage=FLASHONLY|Rotation=0.000|XOffset=0mil|YOffset=0mil|HoleType=Round|Shape=RoundedRectangle|*
%AMROUNDEDRECTD49*
21,1,0.047638,0.011614,0,0,0.0*
21,1,0.036024,0.023228,0,0,0.0*
1,1,0.011614,0.018012,-0.005807*
1,1,0.011614,-0.018012,-0.005807*
1,1,0.011614,-0.018012,0.005807*
1,1,0.011614,0.018012,0.005807*
%
%ADD49ROUNDEDRECTD49*%
%ADD50R,0.136220X0.101575*%
D10*
X760000Y1181102D02*
D03*
D12*
X1185000Y1614008D02*
D03*
Y1579992D02*
D03*
X990000Y2023992D02*
D03*
Y2058008D02*
D03*
X910000Y1571984D02*
D03*
Y1606000D02*
D03*
X875000D02*
D03*
Y1571984D02*
D03*
X945000D02*
D03*
Y1606000D02*
D03*
X1320000Y1955008D02*
D03*
Y1920992D02*
D03*
X1285000D02*
D03*
Y1955008D02*
D03*
X1250000Y1920992D02*
D03*
Y1955008D02*
D03*
X1025000Y2023992D02*
D03*
Y2058008D02*
D03*
X1060000D02*
D03*
Y2023992D02*
D03*
X1095000Y2058008D02*
D03*
Y2023992D02*
D03*
X950000Y783992D02*
D03*
Y818008D02*
D03*
X915000Y783984D02*
D03*
Y818000D02*
D03*
X880000Y818008D02*
D03*
Y783992D02*
D03*
X1331000Y1166016D02*
D03*
Y1132000D02*
D03*
X1261000Y1131992D02*
D03*
Y1166008D02*
D03*
X1296000Y1131992D02*
D03*
Y1166008D02*
D03*
X1084000Y1280008D02*
D03*
Y1245992D02*
D03*
X1049000Y1280008D02*
D03*
Y1245992D02*
D03*
X1014000D02*
D03*
Y1280008D02*
D03*
X979000Y1245992D02*
D03*
Y1280008D02*
D03*
X1161000Y826008D02*
D03*
Y791992D02*
D03*
D13*
X1071000Y1340055D02*
D03*
Y1451945D02*
D03*
X887000Y653945D02*
D03*
Y542055D02*
D03*
X975000Y1340055D02*
D03*
Y1451945D02*
D03*
X881000Y1340055D02*
D03*
Y1451945D02*
D03*
X980000Y653945D02*
D03*
Y542055D02*
D03*
X1114000Y653945D02*
D03*
Y542055D02*
D03*
X1205000Y653945D02*
D03*
Y542055D02*
D03*
X1299000Y653945D02*
D03*
Y542055D02*
D03*
X1387000Y653945D02*
D03*
Y542055D02*
D03*
X351000Y1849945D02*
D03*
Y1738055D02*
D03*
X1987000Y1849945D02*
D03*
Y1738055D02*
D03*
Y632945D02*
D03*
Y521055D02*
D03*
X351000Y632945D02*
D03*
Y521055D02*
D03*
D15*
X858000Y1196000D02*
D03*
X861000Y1246000D02*
D03*
X869000Y2037000D02*
D03*
X867000Y1986000D02*
D03*
D16*
X1317315Y1864000D02*
D03*
X1256685D02*
D03*
X1249685Y1075000D02*
D03*
X1310315D02*
D03*
X1220685Y825000D02*
D03*
X1281315D02*
D03*
D17*
X551922Y1289000D02*
D03*
Y1517000D02*
D03*
Y2074000D02*
D03*
X1785347Y1289000D02*
D03*
Y1517000D02*
D03*
Y2074000D02*
D03*
X552000Y1061000D02*
D03*
X551922Y832000D02*
D03*
Y327000D02*
D03*
X1784347Y832000D02*
D03*
X1785347Y1061000D02*
D03*
X1784347Y327000D02*
D03*
D18*
X646410Y1442000D02*
D03*
Y1492000D02*
D03*
Y1542000D02*
D03*
Y1592000D02*
D03*
Y1214000D02*
D03*
Y1264000D02*
D03*
Y1314000D02*
D03*
Y1364000D02*
D03*
Y1999000D02*
D03*
Y2049000D02*
D03*
Y2099000D02*
D03*
Y2149000D02*
D03*
X1690858Y1364000D02*
D03*
Y1314000D02*
D03*
Y1264000D02*
D03*
Y1214000D02*
D03*
Y1592000D02*
D03*
Y1542000D02*
D03*
Y1492000D02*
D03*
Y1442000D02*
D03*
Y2149000D02*
D03*
Y2099000D02*
D03*
Y2049000D02*
D03*
Y1999000D02*
D03*
X646488Y986000D02*
D03*
Y1036000D02*
D03*
Y1086000D02*
D03*
Y1136000D02*
D03*
X646410Y757000D02*
D03*
Y807000D02*
D03*
Y857000D02*
D03*
Y907000D02*
D03*
Y252000D02*
D03*
Y302000D02*
D03*
Y352000D02*
D03*
Y402000D02*
D03*
X1689858Y757000D02*
D03*
Y807000D02*
D03*
Y857000D02*
D03*
Y907000D02*
D03*
X1690858Y986000D02*
D03*
Y1036000D02*
D03*
Y1086000D02*
D03*
Y1136000D02*
D03*
X1689858Y252000D02*
D03*
Y302000D02*
D03*
Y352000D02*
D03*
Y402000D02*
D03*
D19*
X422000Y1592000D02*
D03*
Y1542000D02*
D03*
Y1492000D02*
D03*
Y1442000D02*
D03*
Y1364000D02*
D03*
Y1314000D02*
D03*
Y1264000D02*
D03*
Y1214000D02*
D03*
Y2149000D02*
D03*
Y2099000D02*
D03*
Y2049000D02*
D03*
Y1999000D02*
D03*
X1915268Y1214000D02*
D03*
Y1264000D02*
D03*
Y1314000D02*
D03*
Y1364000D02*
D03*
Y1442000D02*
D03*
Y1492000D02*
D03*
Y1542000D02*
D03*
Y1592000D02*
D03*
Y1999000D02*
D03*
Y2049000D02*
D03*
Y2099000D02*
D03*
Y2149000D02*
D03*
X422079Y1136000D02*
D03*
Y1086000D02*
D03*
Y1036000D02*
D03*
Y986000D02*
D03*
X422000Y907000D02*
D03*
Y857000D02*
D03*
Y807000D02*
D03*
Y757000D02*
D03*
Y402000D02*
D03*
Y352000D02*
D03*
Y302000D02*
D03*
Y252000D02*
D03*
X1914268Y907000D02*
D03*
Y857000D02*
D03*
Y807000D02*
D03*
Y757000D02*
D03*
X1915268Y1136000D02*
D03*
Y1086000D02*
D03*
Y1036000D02*
D03*
Y986000D02*
D03*
X1914268Y402000D02*
D03*
Y352000D02*
D03*
Y302000D02*
D03*
Y252000D02*
D03*
D20*
X1580000Y1181102D02*
D03*
D24*
X1239992Y1702000D02*
D03*
X1274008D02*
D03*
X1254992Y1822000D02*
D03*
X1289008D02*
D03*
X1239992Y1769000D02*
D03*
X1274008D02*
D03*
X865008Y1711000D02*
D03*
X830992D02*
D03*
X865008Y1798000D02*
D03*
X830992D02*
D03*
X865008Y1895000D02*
D03*
X830992D02*
D03*
X1248992Y1036000D02*
D03*
X1283008D02*
D03*
X1247992Y988000D02*
D03*
X1282008D02*
D03*
X867008Y935000D02*
D03*
X832992D02*
D03*
X867008Y1021000D02*
D03*
X832992D02*
D03*
X867008Y1107000D02*
D03*
X832992D02*
D03*
X930992Y213000D02*
D03*
X965008D02*
D03*
D25*
X1192827Y1121268D02*
D03*
Y1101583D02*
D03*
Y1081898D02*
D03*
Y1062213D02*
D03*
Y1042528D02*
D03*
Y1022842D02*
D03*
Y1003158D02*
D03*
Y983472D02*
D03*
Y963787D02*
D03*
Y944102D02*
D03*
Y924417D02*
D03*
Y904732D02*
D03*
X921173D02*
D03*
Y924417D02*
D03*
Y944102D02*
D03*
Y963787D02*
D03*
Y983472D02*
D03*
Y1003158D02*
D03*
Y1022842D02*
D03*
Y1042528D02*
D03*
Y1062213D02*
D03*
Y1081898D02*
D03*
Y1101583D02*
D03*
Y1121268D02*
D03*
Y1903094D02*
D03*
Y1883409D02*
D03*
Y1863724D02*
D03*
Y1844039D02*
D03*
Y1824354D02*
D03*
Y1804669D02*
D03*
Y1784984D02*
D03*
Y1765299D02*
D03*
Y1745614D02*
D03*
Y1725929D02*
D03*
Y1706244D02*
D03*
Y1686559D02*
D03*
X1192827D02*
D03*
Y1706244D02*
D03*
Y1725929D02*
D03*
Y1745614D02*
D03*
Y1765299D02*
D03*
Y1784984D02*
D03*
Y1804669D02*
D03*
Y1824354D02*
D03*
Y1844039D02*
D03*
Y1863724D02*
D03*
Y1883409D02*
D03*
Y1903094D02*
D03*
D26*
X1165268Y877173D02*
D03*
X1145583D02*
D03*
X1125898D02*
D03*
X1106213D02*
D03*
X1086528D02*
D03*
X1066842D02*
D03*
X1047158D02*
D03*
X1027472D02*
D03*
X1007787D02*
D03*
X988102D02*
D03*
X968417D02*
D03*
X948732D02*
D03*
Y1148827D02*
D03*
X968417D02*
D03*
X988102D02*
D03*
X1007787D02*
D03*
X1027472D02*
D03*
X1047158D02*
D03*
X1066842D02*
D03*
X1086528D02*
D03*
X1106213D02*
D03*
X1125898D02*
D03*
X1145583D02*
D03*
X1165268D02*
D03*
Y1930654D02*
D03*
X1145583D02*
D03*
X1125898D02*
D03*
X1106213D02*
D03*
X1086528D02*
D03*
X1066842D02*
D03*
X1047158D02*
D03*
X1027472D02*
D03*
X1007787D02*
D03*
X988102D02*
D03*
X968417D02*
D03*
X948732D02*
D03*
Y1659000D02*
D03*
X968417D02*
D03*
X988102D02*
D03*
X1007787D02*
D03*
X1027472D02*
D03*
X1047158D02*
D03*
X1066842D02*
D03*
X1086528D02*
D03*
X1106213D02*
D03*
X1125898D02*
D03*
X1145583D02*
D03*
X1165268D02*
D03*
D27*
X1057000Y1013000D02*
D03*
Y1794827D02*
D03*
D28*
X1378000Y1650000D02*
D03*
Y1736000D02*
D03*
X1362000Y842000D02*
D03*
Y928000D02*
D03*
D30*
X1165000Y1992992D02*
D03*
Y2027008D02*
D03*
X1270000Y929008D02*
D03*
Y894992D02*
D03*
X1167000Y1214992D02*
D03*
Y1249008D02*
D03*
D31*
X865008Y1746000D02*
D03*
X830992D02*
D03*
X865008Y1833000D02*
D03*
X830992D02*
D03*
X865008Y1930000D02*
D03*
X830992D02*
D03*
X297992Y1378000D02*
D03*
X332008D02*
D03*
X406008Y1648000D02*
D03*
X371992D02*
D03*
X295992Y2148000D02*
D03*
X330008D02*
D03*
X2008008Y1196000D02*
D03*
X1973992D02*
D03*
X2008008Y1428000D02*
D03*
X1973992D02*
D03*
X1889992Y1939000D02*
D03*
X1924008D02*
D03*
X406008Y457000D02*
D03*
X371992D02*
D03*
X296992Y917000D02*
D03*
X331008D02*
D03*
X296992Y1136000D02*
D03*
X331008D02*
D03*
X867008Y1056000D02*
D03*
X832992D02*
D03*
X867008Y1142000D02*
D03*
X832992D02*
D03*
X867016Y970000D02*
D03*
X833000D02*
D03*
X1911008Y197000D02*
D03*
X1876992D02*
D03*
X1932008Y702000D02*
D03*
X1897992D02*
D03*
X1973992Y970000D02*
D03*
X2008008D02*
D03*
X775992Y216000D02*
D03*
X810008D02*
D03*
X850992Y210000D02*
D03*
X885008D02*
D03*
D45*
X1427000Y441000D02*
D03*
X916000Y447000D02*
D03*
D46*
X1379055Y1251000D02*
D03*
X1490945D02*
D03*
D47*
X1449653Y1800000D02*
D03*
X1356347D02*
D03*
X1455653Y993000D02*
D03*
X1362347D02*
D03*
D48*
X1371000Y1540685D02*
D03*
Y1601315D02*
D03*
D49*
X858591Y261598D02*
D03*
Y299000D02*
D03*
Y336402D02*
D03*
X957409D02*
D03*
Y261598D02*
D03*
D50*
X1254000Y260819D02*
D03*
Y443181D02*
D03*
X1104000Y260819D02*
D03*
Y443181D02*
D03*
%TF.MD5,7236f49dfd98ca70489312966b36bc54*%
M02*
