%TF.GenerationSoftware,Altium Limited,Altium Designer,20.2.3 (150)*%
G04 Layer_Color=255*
%FSLAX26Y26*%
%MOIN*%
%TF.SameCoordinates,1E0D65CC-F0FE-4DFC-A0D5-6D9DD74121E6*%
%TF.FilePolarity,Positive*%
%TF.FileFunction,Pads,Top*%
%TF.Part,Single*%
G01*
G75*
%TA.AperFunction,SMDPad,SMDef*%
G04:AMPARAMS|DCode=10|XSize=98.425mil|YSize=1811.024mil|CornerRadius=24.606mil|HoleSize=0mil|Usage=FLASHONLY|Rotation=0.000|XOffset=0mil|YOffset=0mil|HoleType=Round|Shape=RoundedRectangle|*
%AMROUNDEDRECTD10*
21,1,0.098425,1.761811,0,0,0.0*
21,1,0.049213,1.811024,0,0,0.0*
1,1,0.049213,0.024606,-0.880905*
1,1,0.049213,-0.024606,-0.880905*
1,1,0.049213,-0.024606,0.880905*
1,1,0.049213,0.024606,0.880905*
%
%ADD10ROUNDEDRECTD10*%
G04:AMPARAMS|DCode=11|XSize=98.425mil|YSize=590.551mil|CornerRadius=24.606mil|HoleSize=0mil|Usage=FLASHONLY|Rotation=90.000|XOffset=0mil|YOffset=0mil|HoleType=Round|Shape=RoundedRectangle|*
%AMROUNDEDRECTD11*
21,1,0.098425,0.541339,0,0,90.0*
21,1,0.049213,0.590551,0,0,90.0*
1,1,0.049213,0.270669,0.024606*
1,1,0.049213,0.270669,-0.024606*
1,1,0.049213,-0.270669,-0.024606*
1,1,0.049213,-0.270669,0.024606*
%
%ADD11ROUNDEDRECTD11*%
%TA.AperFunction,SMDPad,CuDef*%
%ADD12R,0.023622X0.021260*%
%ADD13R,0.075197X0.053937*%
%TA.AperFunction,SMDPad,SMDef*%
G04:AMPARAMS|DCode=14|XSize=98.425mil|YSize=157.48mil|CornerRadius=24.606mil|HoleSize=0mil|Usage=FLASHONLY|Rotation=180.000|XOffset=0mil|YOffset=0mil|HoleType=Round|Shape=RoundedRectangle|*
%AMROUNDEDRECTD14*
21,1,0.098425,0.108268,0,0,180.0*
21,1,0.049213,0.157480,0,0,180.0*
1,1,0.049213,-0.024606,0.054134*
1,1,0.049213,0.024606,0.054134*
1,1,0.049213,0.024606,-0.054134*
1,1,0.049213,-0.024606,-0.054134*
%
%ADD14ROUNDEDRECTD14*%
G04:AMPARAMS|DCode=15|XSize=31.496mil|YSize=31.496mil|CornerRadius=7.874mil|HoleSize=0mil|Usage=FLASHONLY|Rotation=90.000|XOffset=0mil|YOffset=0mil|HoleType=Round|Shape=RoundedRectangle|*
%AMROUNDEDRECTD15*
21,1,0.031496,0.015748,0,0,90.0*
21,1,0.015748,0.031496,0,0,90.0*
1,1,0.015748,0.007874,0.007874*
1,1,0.015748,0.007874,-0.007874*
1,1,0.015748,-0.007874,-0.007874*
1,1,0.015748,-0.007874,0.007874*
%
%ADD15ROUNDEDRECTD15*%
%TA.AperFunction,SMDPad,CuDef*%
%ADD16R,0.020000X0.036614*%
%ADD17R,0.147638X0.185039*%
%ADD18R,0.041339X0.033465*%
%ADD19R,0.057087X0.033465*%
%TA.AperFunction,SMDPad,SMDef*%
G04:AMPARAMS|DCode=20|XSize=98.425mil|YSize=1850.394mil|CornerRadius=24.606mil|HoleSize=0mil|Usage=FLASHONLY|Rotation=0.000|XOffset=0mil|YOffset=0mil|HoleType=Round|Shape=RoundedRectangle|*
%AMROUNDEDRECTD20*
21,1,0.098425,1.801181,0,0,0.0*
21,1,0.049213,1.850394,0,0,0.0*
1,1,0.049213,0.024606,-0.900591*
1,1,0.049213,-0.024606,-0.900591*
1,1,0.049213,-0.024606,0.900591*
1,1,0.049213,0.024606,0.900591*
%
%ADD20ROUNDEDRECTD20*%
G04:AMPARAMS|DCode=21|XSize=196.85mil|YSize=275.591mil|CornerRadius=49.213mil|HoleSize=0mil|Usage=FLASHONLY|Rotation=90.000|XOffset=0mil|YOffset=0mil|HoleType=Round|Shape=RoundedRectangle|*
%AMROUNDEDRECTD21*
21,1,0.196850,0.177165,0,0,90.0*
21,1,0.098425,0.275591,0,0,90.0*
1,1,0.098425,0.088583,0.049213*
1,1,0.098425,0.088583,-0.049213*
1,1,0.098425,-0.088583,-0.049213*
1,1,0.098425,-0.088583,0.049213*
%
%ADD21ROUNDEDRECTD21*%
%TA.AperFunction,SMDPad,CuDef*%
%ADD22R,0.047244X0.070866*%
%ADD23R,0.023622X0.061024*%
%ADD24R,0.016000X0.023622*%
%ADD25R,0.033465X0.011811*%
%ADD26R,0.011811X0.033465*%
%ADD27R,0.106299X0.106299*%
%ADD28R,0.106000X0.039000*%
%ADD29R,0.019685X0.041339*%
%ADD30R,0.023622X0.016000*%
%ADD31R,0.021260X0.023622*%
D10*
X760000Y1181102D02*
D03*
D11*
X1165000Y511000D02*
D03*
D12*
X1316000Y1868992D02*
D03*
Y1903008D02*
D03*
X1441000Y1183992D02*
D03*
Y1218008D02*
D03*
X1371000Y1218016D02*
D03*
Y1184000D02*
D03*
X986000Y1540984D02*
D03*
Y1575000D02*
D03*
X1058000Y1575008D02*
D03*
Y1540992D02*
D03*
X1302000Y1671000D02*
D03*
Y1636984D02*
D03*
X1232000Y1636992D02*
D03*
Y1671008D02*
D03*
X1337000D02*
D03*
Y1636992D02*
D03*
X1406000Y1218008D02*
D03*
Y1183992D02*
D03*
X1022000Y1575008D02*
D03*
Y1540992D02*
D03*
X1267000Y1636992D02*
D03*
Y1671008D02*
D03*
X1144000Y1180992D02*
D03*
Y1215008D02*
D03*
X1443000Y602992D02*
D03*
Y637008D02*
D03*
X1373000D02*
D03*
Y602992D02*
D03*
X972000Y939992D02*
D03*
Y974008D02*
D03*
X1043000D02*
D03*
Y939992D02*
D03*
X1296000Y1069008D02*
D03*
Y1034992D02*
D03*
X1226000D02*
D03*
Y1069008D02*
D03*
X1331000D02*
D03*
Y1034992D02*
D03*
X1408000Y637008D02*
D03*
Y602992D02*
D03*
X1007000Y974008D02*
D03*
Y939992D02*
D03*
X1261000Y1034992D02*
D03*
Y1069008D02*
D03*
D13*
X1987000Y1849945D02*
D03*
Y1738055D02*
D03*
X351000Y1849945D02*
D03*
Y1738055D02*
D03*
Y632945D02*
D03*
Y521055D02*
D03*
X1987000Y632945D02*
D03*
Y521055D02*
D03*
X1464000Y2136945D02*
D03*
Y2025055D02*
D03*
X877000Y1538945D02*
D03*
Y1427055D02*
D03*
D14*
X325000Y2045000D02*
D03*
Y339000D02*
D03*
Y816000D02*
D03*
Y1037000D02*
D03*
Y1270000D02*
D03*
Y1532000D02*
D03*
X2012000Y2088000D02*
D03*
Y1532000D02*
D03*
Y1304000D02*
D03*
Y339000D02*
D03*
Y843000D02*
D03*
Y1073000D02*
D03*
D15*
X1459275Y1648338D02*
D03*
X1417000Y1649000D02*
D03*
X1439000Y1040000D02*
D03*
X1479000D02*
D03*
D16*
X1052315Y1484000D02*
D03*
X991685D02*
D03*
X1043315Y888000D02*
D03*
X982685D02*
D03*
X965315Y1171000D02*
D03*
X904685D02*
D03*
X979315Y612000D02*
D03*
X918685D02*
D03*
D17*
X530078Y1061000D02*
D03*
Y832000D02*
D03*
X530079Y327000D02*
D03*
X1814921Y1061000D02*
D03*
X530078Y1289000D02*
D03*
Y1517000D02*
D03*
Y2074000D02*
D03*
X1814653Y1289000D02*
D03*
Y1517000D02*
D03*
X1814921Y2074000D02*
D03*
X1806653Y327000D02*
D03*
X1814653Y832000D02*
D03*
D18*
X435590Y986000D02*
D03*
Y1036000D02*
D03*
Y1086000D02*
D03*
Y1136000D02*
D03*
Y757000D02*
D03*
Y807000D02*
D03*
Y857000D02*
D03*
Y907000D02*
D03*
X435591Y252000D02*
D03*
Y302000D02*
D03*
Y352000D02*
D03*
Y402000D02*
D03*
X1909409Y986000D02*
D03*
Y1036000D02*
D03*
Y1086000D02*
D03*
Y1136000D02*
D03*
X435590Y1364000D02*
D03*
Y1314000D02*
D03*
Y1264000D02*
D03*
Y1214000D02*
D03*
Y1592000D02*
D03*
Y1542000D02*
D03*
Y1492000D02*
D03*
Y1442000D02*
D03*
Y2149000D02*
D03*
Y2099000D02*
D03*
Y2049000D02*
D03*
Y1999000D02*
D03*
X1909142Y1214000D02*
D03*
Y1264000D02*
D03*
Y1314000D02*
D03*
Y1364000D02*
D03*
Y1442000D02*
D03*
Y1492000D02*
D03*
Y1542000D02*
D03*
Y1592000D02*
D03*
X1909409Y1999000D02*
D03*
Y2049000D02*
D03*
Y2099000D02*
D03*
Y2149000D02*
D03*
X1901142Y252000D02*
D03*
Y302000D02*
D03*
Y352000D02*
D03*
Y402000D02*
D03*
X1909142Y757000D02*
D03*
Y807000D02*
D03*
Y857000D02*
D03*
Y907000D02*
D03*
D19*
X660000Y1136000D02*
D03*
Y1086000D02*
D03*
Y1036000D02*
D03*
Y986000D02*
D03*
Y907000D02*
D03*
Y857000D02*
D03*
Y807000D02*
D03*
Y757000D02*
D03*
X660000Y402000D02*
D03*
Y352000D02*
D03*
Y302000D02*
D03*
Y252000D02*
D03*
X1685000Y1136000D02*
D03*
Y1086000D02*
D03*
Y1036000D02*
D03*
Y986000D02*
D03*
X660000Y1214000D02*
D03*
Y1264000D02*
D03*
Y1314000D02*
D03*
Y1364000D02*
D03*
Y1442000D02*
D03*
Y1492000D02*
D03*
Y1542000D02*
D03*
Y1592000D02*
D03*
Y1999000D02*
D03*
Y2049000D02*
D03*
Y2099000D02*
D03*
Y2149000D02*
D03*
X1684732Y1364000D02*
D03*
Y1314000D02*
D03*
Y1264000D02*
D03*
Y1214000D02*
D03*
Y1592000D02*
D03*
Y1542000D02*
D03*
Y1492000D02*
D03*
Y1442000D02*
D03*
X1685000Y2149000D02*
D03*
Y2099000D02*
D03*
Y2049000D02*
D03*
Y1999000D02*
D03*
X1676732Y402000D02*
D03*
Y352000D02*
D03*
Y302000D02*
D03*
Y252000D02*
D03*
X1684732Y907000D02*
D03*
Y857000D02*
D03*
Y807000D02*
D03*
Y757000D02*
D03*
D20*
X1580000Y1220472D02*
D03*
D21*
X980000Y275000D02*
D03*
X1356000D02*
D03*
D22*
X987598Y2152559D02*
D03*
X1365551D02*
D03*
D23*
X1314370Y2000000D02*
D03*
X1275000D02*
D03*
X1235630D02*
D03*
X1196260D02*
D03*
X1156890D02*
D03*
X1117520D02*
D03*
X1078150D02*
D03*
X1038780D02*
D03*
D24*
X1021992Y1443000D02*
D03*
X1056008D02*
D03*
X1035992Y1390000D02*
D03*
X1070008D02*
D03*
X1111992Y1596000D02*
D03*
X1146008D02*
D03*
X1502008Y1510000D02*
D03*
X1467992D02*
D03*
X1502008Y1419000D02*
D03*
X1467992D02*
D03*
X1503008Y1329000D02*
D03*
X1468992D02*
D03*
X1008992Y847000D02*
D03*
X1043008D02*
D03*
X1050992Y797000D02*
D03*
X1085008D02*
D03*
X1099992Y1007000D02*
D03*
X1134008D02*
D03*
X1504008Y919000D02*
D03*
X1469992D02*
D03*
X1504008Y830000D02*
D03*
X1469992D02*
D03*
X1504008Y740000D02*
D03*
X1469992D02*
D03*
D25*
X1132173Y1520094D02*
D03*
Y1500409D02*
D03*
Y1480724D02*
D03*
Y1461039D02*
D03*
Y1441354D02*
D03*
Y1421669D02*
D03*
Y1401984D02*
D03*
Y1382299D02*
D03*
Y1362614D02*
D03*
Y1342929D02*
D03*
Y1323244D02*
D03*
Y1303559D02*
D03*
X1403827D02*
D03*
Y1323244D02*
D03*
Y1342929D02*
D03*
Y1362614D02*
D03*
Y1382299D02*
D03*
Y1401984D02*
D03*
Y1421669D02*
D03*
Y1441354D02*
D03*
Y1461039D02*
D03*
Y1480724D02*
D03*
Y1500409D02*
D03*
Y1520094D02*
D03*
X1132173Y928268D02*
D03*
Y908583D02*
D03*
Y888898D02*
D03*
Y869213D02*
D03*
Y849528D02*
D03*
Y829842D02*
D03*
Y810158D02*
D03*
Y790472D02*
D03*
Y770787D02*
D03*
Y751102D02*
D03*
Y731417D02*
D03*
Y711732D02*
D03*
X1403827D02*
D03*
Y731417D02*
D03*
Y751102D02*
D03*
Y770787D02*
D03*
Y790472D02*
D03*
Y810158D02*
D03*
Y829842D02*
D03*
Y849528D02*
D03*
Y869213D02*
D03*
Y888898D02*
D03*
Y908583D02*
D03*
Y928268D02*
D03*
D26*
X1159732Y1276000D02*
D03*
X1179417D02*
D03*
X1199102D02*
D03*
X1218787D02*
D03*
X1238472D02*
D03*
X1258158D02*
D03*
X1277842D02*
D03*
X1297528D02*
D03*
X1317213D02*
D03*
X1336898D02*
D03*
X1356583D02*
D03*
X1376268D02*
D03*
Y1547654D02*
D03*
X1356583D02*
D03*
X1336898D02*
D03*
X1317213D02*
D03*
X1297528D02*
D03*
X1277842D02*
D03*
X1258158D02*
D03*
X1238472D02*
D03*
X1218787D02*
D03*
X1199102D02*
D03*
X1179417D02*
D03*
X1159732D02*
D03*
Y684173D02*
D03*
X1179417D02*
D03*
X1199102D02*
D03*
X1218787D02*
D03*
X1238472D02*
D03*
X1258158D02*
D03*
X1277842D02*
D03*
X1297528D02*
D03*
X1317213D02*
D03*
X1336898D02*
D03*
X1356583D02*
D03*
X1376268D02*
D03*
Y955827D02*
D03*
X1356583D02*
D03*
X1336898D02*
D03*
X1317213D02*
D03*
X1297528D02*
D03*
X1277842D02*
D03*
X1258158D02*
D03*
X1238472D02*
D03*
X1218787D02*
D03*
X1199102D02*
D03*
X1179417D02*
D03*
X1159732D02*
D03*
D27*
X1268000Y1411827D02*
D03*
Y820000D02*
D03*
D28*
X974000Y1326000D02*
D03*
Y1240000D02*
D03*
X965000Y770000D02*
D03*
Y684000D02*
D03*
D29*
X849385Y1320366D02*
D03*
Y1227059D02*
D03*
X847000Y755654D02*
D03*
Y662346D02*
D03*
D30*
X1082000Y1276992D02*
D03*
Y1311008D02*
D03*
X1084000Y690992D02*
D03*
Y725008D02*
D03*
D31*
X1503008Y1364000D02*
D03*
X1468992D02*
D03*
X1502008Y1454000D02*
D03*
X1467992D02*
D03*
X1502008Y1545000D02*
D03*
X1467992D02*
D03*
X1111992Y636000D02*
D03*
X1146008D02*
D03*
X1504008Y775000D02*
D03*
X1469992D02*
D03*
X1504008Y865000D02*
D03*
X1469992D02*
D03*
X1504008Y954000D02*
D03*
X1469992D02*
D03*
%TF.MD5,be6958481bfa368372544c3d94e4e663*%
M02*
