%TF.GenerationSoftware,Altium Limited,Altium Designer,20.2.3 (150)*%
G04 Layer_Color=0*
%FSLAX26Y26*%
%MOIN*%
%TF.SameCoordinates,1E0D65CC-F0FE-4DFC-A0D5-6D9DD74121E6*%
%TF.FilePolarity,Positive*%
%TF.FileFunction,Plated,1,4,PTH,Drill*%
%TF.Part,Single*%
G01*
G75*
%TA.AperFunction,ViaDrill,NotFilled*%
%ADD94C,0.010000*%
%ADD95C,0.011811*%
%ADD96C,0.059055*%
D94*
X1438409Y2011432D02*
D03*
X973535Y1095311D02*
D03*
X1097000Y974000D02*
D03*
X1099000Y1008000D02*
D03*
X880000Y872000D02*
D03*
X975000Y1025765D02*
D03*
X1097910Y1033505D02*
D03*
X996000Y1192000D02*
D03*
X1076000Y1009000D02*
D03*
X832000Y872000D02*
D03*
X828212Y794248D02*
D03*
X832992Y1107000D02*
D03*
X859441Y2081245D02*
D03*
X828254Y2118822D02*
D03*
X990000Y2058008D02*
D03*
X1375652Y1128439D02*
D03*
X1133557Y1007171D02*
D03*
X1008141Y1891300D02*
D03*
X1060000Y2058008D02*
D03*
X1081440Y1507737D02*
D03*
X1350462Y1887735D02*
D03*
X1364000Y1080000D02*
D03*
X954808Y1523156D02*
D03*
X1347000Y2111000D02*
D03*
X1909142Y1492000D02*
D03*
X1418000Y1565000D02*
D03*
X1257385Y1210576D02*
D03*
X1197407Y1187208D02*
D03*
X1260386Y1598765D02*
D03*
X1279000Y1394000D02*
D03*
Y1370000D02*
D03*
X1915268Y1314000D02*
D03*
X1489000Y994000D02*
D03*
X1511787Y993000D02*
D03*
X1455721Y1152750D02*
D03*
X1434328Y1278537D02*
D03*
X1402000Y1075000D02*
D03*
X1049078Y1800830D02*
D03*
X1074000Y1801000D02*
D03*
Y1826000D02*
D03*
X1049000D02*
D03*
X1251772Y796139D02*
D03*
X1251459Y821588D02*
D03*
X1228235Y795373D02*
D03*
X1228000Y822000D02*
D03*
X1306000Y1370000D02*
D03*
Y1394000D02*
D03*
X1507000Y1128000D02*
D03*
X1481000D02*
D03*
X1456000D02*
D03*
X1506809Y1153370D02*
D03*
X1480491Y1153060D02*
D03*
X898000Y1413000D02*
D03*
X876000D02*
D03*
X851000D02*
D03*
X898000Y1442000D02*
D03*
X876000D02*
D03*
X851000D02*
D03*
X1657005Y1405041D02*
D03*
X1889992Y1939000D02*
D03*
X1274000Y1702000D02*
D03*
Y1771000D02*
D03*
X1361000Y1867000D02*
D03*
X1374000Y1886000D02*
D03*
X1489000Y2012000D02*
D03*
X1464000D02*
D03*
X1489000Y2040000D02*
D03*
X1464000D02*
D03*
X1439000D02*
D03*
X809000Y184000D02*
D03*
X858591Y299000D02*
D03*
X2012000Y506000D02*
D03*
X1988000D02*
D03*
X1962000D02*
D03*
X2012000Y535000D02*
D03*
X1989000D02*
D03*
X1962000D02*
D03*
X2011000Y619000D02*
D03*
X1986000D02*
D03*
X1962000D02*
D03*
X1985783Y647947D02*
D03*
X2011000Y648000D02*
D03*
X1961000D02*
D03*
X2011000Y1724000D02*
D03*
X1987000D02*
D03*
X1963000D02*
D03*
X2011000Y1752000D02*
D03*
X1986000D02*
D03*
X1962000D02*
D03*
X2010000Y1838000D02*
D03*
X1986000D02*
D03*
X1962000D02*
D03*
X2009000Y1865000D02*
D03*
X1986000D02*
D03*
X1961000D02*
D03*
X1352552Y1836698D02*
D03*
X1232000Y899000D02*
D03*
X1324184Y1214272D02*
D03*
X832992Y1142000D02*
D03*
X1361000Y1919000D02*
D03*
X1100000Y2103000D02*
D03*
X1180000Y733000D02*
D03*
X1232000Y2068000D02*
D03*
X1154000Y2100000D02*
D03*
X1014000Y1280008D02*
D03*
X988341Y815972D02*
D03*
X1112000Y603000D02*
D03*
X1196000Y2100000D02*
D03*
X1275000Y2068000D02*
D03*
X989000Y1408000D02*
D03*
X665905Y452207D02*
D03*
X685636Y945787D02*
D03*
X682817Y1401642D02*
D03*
X686917Y1171726D02*
D03*
X1306405Y1702789D02*
D03*
X1146887Y1619915D02*
D03*
X654134Y1647255D02*
D03*
X876000Y1659000D02*
D03*
X963000Y1765000D02*
D03*
X962000Y1844000D02*
D03*
X2042000Y1196000D02*
D03*
X2043000Y1429000D02*
D03*
X1363000Y1383000D02*
D03*
X1364000Y1461000D02*
D03*
X1652000Y1178000D02*
D03*
X1915535Y2048000D02*
D03*
X1659162Y1948125D02*
D03*
X1074000Y1199000D02*
D03*
X1125898Y1264102D02*
D03*
X1261000Y1132000D02*
D03*
X1282000Y747850D02*
D03*
X833000Y969378D02*
D03*
X832992Y1056000D02*
D03*
Y935000D02*
D03*
Y1021000D02*
D03*
X1471000Y1082000D02*
D03*
X1050719Y655108D02*
D03*
D95*
X830992Y1711000D02*
D03*
Y1746000D02*
D03*
Y1833000D02*
D03*
Y1930000D02*
D03*
Y1895000D02*
D03*
Y1798000D02*
D03*
X898000Y2120000D02*
D03*
X923000D02*
D03*
X872000Y2146000D02*
D03*
X898000D02*
D03*
X924000D02*
D03*
X871000Y2173000D02*
D03*
X898000D02*
D03*
X924000D02*
D03*
X1135000Y1795000D02*
D03*
X1235000Y1903000D02*
D03*
X1007000Y915000D02*
D03*
Y939992D02*
D03*
X1075118Y920519D02*
D03*
X1313376Y622953D02*
D03*
X1287239Y622788D02*
D03*
X1260316Y623073D02*
D03*
X1232605Y622772D02*
D03*
X1205948Y623525D02*
D03*
X1179441Y623073D02*
D03*
X1500827Y1545000D02*
D03*
X1501827Y1364000D02*
D03*
X1500827Y1454000D02*
D03*
X910000Y1571984D02*
D03*
X2045000Y299000D02*
D03*
X1987000Y297000D02*
D03*
X2045000Y274000D02*
D03*
X2020000D02*
D03*
X1996000D02*
D03*
X1972000D02*
D03*
X1963000Y302000D02*
D03*
X1939000D02*
D03*
X1963000Y327000D02*
D03*
X1939000D02*
D03*
X1963000Y352000D02*
D03*
X1939000D02*
D03*
X1987000Y377000D02*
D03*
X1963000D02*
D03*
X1939000D02*
D03*
X2035000Y402000D02*
D03*
X2011000D02*
D03*
X1987000D02*
D03*
X1963000D02*
D03*
X1939000D02*
D03*
X1914000Y377000D02*
D03*
Y327000D02*
D03*
X1914268Y302000D02*
D03*
Y352000D02*
D03*
X2036000Y907000D02*
D03*
X2012000D02*
D03*
X1988000D02*
D03*
X2038000Y801000D02*
D03*
X1988000Y800000D02*
D03*
X2049000Y778000D02*
D03*
X2024000D02*
D03*
X2000000D02*
D03*
X1976000D02*
D03*
X1964000Y807000D02*
D03*
Y832000D02*
D03*
Y857000D02*
D03*
Y882000D02*
D03*
Y907000D02*
D03*
X1939000D02*
D03*
Y882000D02*
D03*
Y857000D02*
D03*
Y832000D02*
D03*
Y807000D02*
D03*
X1914000Y832000D02*
D03*
Y882000D02*
D03*
X1914268Y807000D02*
D03*
Y907000D02*
D03*
X2032413Y1028761D02*
D03*
X1992194Y1028812D02*
D03*
X2047145Y1008319D02*
D03*
X2023172Y1005244D02*
D03*
X1998018Y1005409D02*
D03*
X2040000Y1112000D02*
D03*
X1974447Y1012414D02*
D03*
X1966000Y1036000D02*
D03*
X1940000D02*
D03*
X1965000Y1061000D02*
D03*
X1940000D02*
D03*
X1965000Y1085000D02*
D03*
X1940000D02*
D03*
X1965000Y1111000D02*
D03*
X1940000D02*
D03*
X2040000Y1136000D02*
D03*
X2015000D02*
D03*
X1990000D02*
D03*
X1965000D02*
D03*
X1940000D02*
D03*
X1915000Y1061000D02*
D03*
Y1111000D02*
D03*
X1915268Y1036000D02*
D03*
Y1136000D02*
D03*
Y1086000D02*
D03*
X2048000Y1339000D02*
D03*
X2038000Y1260000D02*
D03*
X2013000Y1257000D02*
D03*
X2050000Y1238000D02*
D03*
X2026000Y1237000D02*
D03*
X2001000D02*
D03*
X1989000Y1259000D02*
D03*
X1972000Y1239000D02*
D03*
X1965000Y1264000D02*
D03*
X1940000D02*
D03*
X1965000Y1290000D02*
D03*
X1940000D02*
D03*
X1965000Y1314000D02*
D03*
X1940000D02*
D03*
X1965000Y1338000D02*
D03*
X1940000D02*
D03*
X2038000Y1364000D02*
D03*
X2014000D02*
D03*
X1990000D02*
D03*
X1965000D02*
D03*
X1940000D02*
D03*
X1915000Y1290000D02*
D03*
X1916000Y1338000D02*
D03*
X1915268Y1364000D02*
D03*
Y1264000D02*
D03*
X2047000Y1568000D02*
D03*
X1985000Y1491000D02*
D03*
X2046000Y1492000D02*
D03*
Y1466000D02*
D03*
X2021000D02*
D03*
X1997000D02*
D03*
X1972000D02*
D03*
X1959000Y1491000D02*
D03*
X1934000Y1492000D02*
D03*
X1959000Y1516000D02*
D03*
X1934000D02*
D03*
X1959000Y1540000D02*
D03*
X1934000Y1541000D02*
D03*
X1960000Y1565000D02*
D03*
X1934000Y1566000D02*
D03*
X2035000Y1592000D02*
D03*
X2010000D02*
D03*
X1985000D02*
D03*
X1959000D02*
D03*
X1934000D02*
D03*
X1909000Y1516000D02*
D03*
Y1567000D02*
D03*
X1909142Y1542000D02*
D03*
Y1592000D02*
D03*
X1914268Y402000D02*
D03*
X2007980Y950868D02*
D03*
X2046000Y2123000D02*
D03*
X1990000Y2046000D02*
D03*
X2049000Y2048000D02*
D03*
Y2023000D02*
D03*
X2024000D02*
D03*
X1999000D02*
D03*
X1973000D02*
D03*
X1967000Y2048000D02*
D03*
X1942000D02*
D03*
X1966000Y2073000D02*
D03*
X1941000D02*
D03*
X1965000Y2099000D02*
D03*
X1941000D02*
D03*
X1968000Y2124000D02*
D03*
X1941000D02*
D03*
X2045000Y2148000D02*
D03*
X2019000Y2149000D02*
D03*
X1993000D02*
D03*
X1967000D02*
D03*
X1941000D02*
D03*
X1915000Y2073000D02*
D03*
X1916000Y2124000D02*
D03*
X1915268Y2149000D02*
D03*
Y2099000D02*
D03*
X358000Y378000D02*
D03*
X343000Y403000D02*
D03*
X316000D02*
D03*
X290000D02*
D03*
Y376000D02*
D03*
X292000Y304000D02*
D03*
X295000Y226000D02*
D03*
X292000Y252000D02*
D03*
Y278000D02*
D03*
X320000Y277000D02*
D03*
X346000D02*
D03*
Y251000D02*
D03*
X320000D02*
D03*
Y221000D02*
D03*
X346000D02*
D03*
X372000D02*
D03*
Y251000D02*
D03*
Y276000D02*
D03*
Y302000D02*
D03*
Y327000D02*
D03*
X398000Y221000D02*
D03*
X398138Y251673D02*
D03*
X398000Y276000D02*
D03*
Y302000D02*
D03*
Y327000D02*
D03*
X372000Y352000D02*
D03*
X398000D02*
D03*
X422000Y327000D02*
D03*
Y277000D02*
D03*
Y221000D02*
D03*
X422000Y252000D02*
D03*
Y302000D02*
D03*
Y352000D02*
D03*
X1485000Y1930000D02*
D03*
X355000Y853000D02*
D03*
X365000Y876000D02*
D03*
X341000D02*
D03*
X315000Y877000D02*
D03*
X288000D02*
D03*
X289000Y851000D02*
D03*
X378000Y833000D02*
D03*
X374000Y809000D02*
D03*
X363000Y785000D02*
D03*
X288000Y784000D02*
D03*
X369000Y760000D02*
D03*
X344000D02*
D03*
X318000D02*
D03*
X292000D02*
D03*
Y735000D02*
D03*
X318000D02*
D03*
X344000Y736000D02*
D03*
X369000D02*
D03*
X420000Y735000D02*
D03*
X394000Y736000D02*
D03*
X408000Y758000D02*
D03*
Y783000D02*
D03*
Y807000D02*
D03*
Y831000D02*
D03*
X407000Y857000D02*
D03*
X380839Y857028D02*
D03*
X436000Y782000D02*
D03*
Y832000D02*
D03*
X435590Y757000D02*
D03*
Y807000D02*
D03*
Y857000D02*
D03*
X389000Y1099000D02*
D03*
X363000D02*
D03*
X338000D02*
D03*
X313000D02*
D03*
X288000D02*
D03*
X289000Y1072000D02*
D03*
D03*
X400000Y1073000D02*
D03*
X372000Y1072000D02*
D03*
D03*
X400000Y1047000D02*
D03*
X373000D02*
D03*
X400000Y1021000D02*
D03*
X373000D02*
D03*
X400000Y995000D02*
D03*
X374000D02*
D03*
X348000D02*
D03*
X299000D02*
D03*
X298000Y970000D02*
D03*
X323000D02*
D03*
X348000D02*
D03*
X374000D02*
D03*
X400000D02*
D03*
X422000Y1011000D02*
D03*
Y1061000D02*
D03*
X422079Y986000D02*
D03*
Y1036000D02*
D03*
Y1086000D02*
D03*
X372000Y1288000D02*
D03*
X335000Y1204000D02*
D03*
X288000Y1206000D02*
D03*
X316000Y1223000D02*
D03*
X350000Y1227000D02*
D03*
X288000Y1232000D02*
D03*
Y1304000D02*
D03*
X298000Y1328000D02*
D03*
X324000Y1329000D02*
D03*
X350000D02*
D03*
X373000Y1212000D02*
D03*
Y1236000D02*
D03*
X398000Y1213000D02*
D03*
Y1237000D02*
D03*
X372000Y1263000D02*
D03*
X397000D02*
D03*
Y1289000D02*
D03*
X370000Y1313000D02*
D03*
X397000D02*
D03*
X422000Y1289000D02*
D03*
Y1238000D02*
D03*
X422000Y1214000D02*
D03*
Y1264000D02*
D03*
Y1314000D02*
D03*
X390000Y1471000D02*
D03*
X364000D02*
D03*
X339000D02*
D03*
X314000D02*
D03*
X391000Y1444000D02*
D03*
X364000D02*
D03*
X339000D02*
D03*
X314000D02*
D03*
X289000D02*
D03*
Y1471000D02*
D03*
Y1498000D02*
D03*
X393000Y1504000D02*
D03*
X367000D02*
D03*
X400000Y1529000D02*
D03*
X374000D02*
D03*
X396000Y1554000D02*
D03*
X369000Y1555000D02*
D03*
X351000Y1574000D02*
D03*
X290000Y1571000D02*
D03*
X340000Y1598000D02*
D03*
X314000D02*
D03*
X289000D02*
D03*
X422000Y1517000D02*
D03*
Y1467000D02*
D03*
X422000Y1442000D02*
D03*
Y1492000D02*
D03*
Y1542000D02*
D03*
X399000Y1971000D02*
D03*
X371000Y2007000D02*
D03*
X374000Y2035000D02*
D03*
X372000Y2063000D02*
D03*
X356000Y2087000D02*
D03*
X371000Y2111000D02*
D03*
X342000D02*
D03*
X315000D02*
D03*
X289000D02*
D03*
X290000Y2085000D02*
D03*
X349000Y1992000D02*
D03*
X323000D02*
D03*
X297000Y1993000D02*
D03*
X374000Y1964000D02*
D03*
X349000D02*
D03*
X323000Y1965000D02*
D03*
X297000Y1966000D02*
D03*
X397000Y2099000D02*
D03*
Y2074000D02*
D03*
Y2049000D02*
D03*
Y2023000D02*
D03*
Y1998000D02*
D03*
X422000Y2024000D02*
D03*
Y2074000D02*
D03*
X422000Y2099000D02*
D03*
Y2049000D02*
D03*
Y1999000D02*
D03*
X1504759Y865751D02*
D03*
X376000Y1724000D02*
D03*
X351000D02*
D03*
X325000D02*
D03*
X376000Y1753000D02*
D03*
X351000D02*
D03*
X325000D02*
D03*
X375000Y1836000D02*
D03*
X351000D02*
D03*
X326000D02*
D03*
X375000Y1865000D02*
D03*
X351000D02*
D03*
X326000D02*
D03*
X374000Y619000D02*
D03*
X350000Y620000D02*
D03*
X326000Y621000D02*
D03*
X374000Y648000D02*
D03*
X350000D02*
D03*
X326000D02*
D03*
X376000Y508000D02*
D03*
X352000D02*
D03*
X327000D02*
D03*
X377000Y535000D02*
D03*
X354000D02*
D03*
X326000D02*
D03*
X1305000Y1791000D02*
D03*
X1050992Y797000D02*
D03*
X1270000Y894992D02*
D03*
X810000Y216000D02*
D03*
X1355642Y883880D02*
D03*
X1293000Y1495000D02*
D03*
X297992Y1378000D02*
D03*
X441000Y1646000D02*
D03*
X295992Y2148000D02*
D03*
X1231744Y182378D02*
D03*
X1203000Y181000D02*
D03*
X1205000Y206000D02*
D03*
X1182000Y195000D02*
D03*
X1154000Y197000D02*
D03*
X1180000Y221000D02*
D03*
X1155000Y224000D02*
D03*
X1203000Y231000D02*
D03*
X1204000Y259000D02*
D03*
X1179000Y248000D02*
D03*
X1154000Y249000D02*
D03*
X1179000Y274000D02*
D03*
X1154000Y276000D02*
D03*
X1202000Y286000D02*
D03*
X1205000Y315000D02*
D03*
X1178000Y302000D02*
D03*
X1153000D02*
D03*
X1503008Y1329000D02*
D03*
X1502008Y1419000D02*
D03*
Y1510000D02*
D03*
X1654243Y949567D02*
D03*
X439000Y457000D02*
D03*
X296992Y917000D02*
D03*
Y1136000D02*
D03*
X1085607Y814226D02*
D03*
X1620119Y214706D02*
D03*
X972000Y939992D02*
D03*
X1825000Y195000D02*
D03*
X1463000Y689000D02*
D03*
X1861000Y701000D02*
D03*
X1659000Y712000D02*
D03*
X1504008Y775000D02*
D03*
X1360000Y790000D02*
D03*
X1914268Y857000D02*
D03*
X1504008Y954000D02*
D03*
Y919000D02*
D03*
Y830000D02*
D03*
Y740000D02*
D03*
X885008Y210000D02*
D03*
X1440000Y180000D02*
D03*
X1410000D02*
D03*
X1380000D02*
D03*
X1350000D02*
D03*
X1320000D02*
D03*
X1290000D02*
D03*
X1260000D02*
D03*
X1470000Y210000D02*
D03*
X1440000D02*
D03*
X1410000D02*
D03*
X1380000D02*
D03*
X1350000D02*
D03*
X1320000D02*
D03*
X1290000D02*
D03*
X1260000D02*
D03*
X1230000D02*
D03*
X1470000Y240000D02*
D03*
X1440000D02*
D03*
X1410000D02*
D03*
X1380000D02*
D03*
X1350000D02*
D03*
X1320000D02*
D03*
X1290000D02*
D03*
X1260000D02*
D03*
X1230000D02*
D03*
X1470000Y270000D02*
D03*
X1440000D02*
D03*
X1410000D02*
D03*
X1380000D02*
D03*
X1350000D02*
D03*
X1320000D02*
D03*
X1290000D02*
D03*
X1260000D02*
D03*
X1230000D02*
D03*
X1470000Y300000D02*
D03*
X1440000D02*
D03*
X1410000D02*
D03*
X1380000D02*
D03*
X1350000D02*
D03*
X1320000D02*
D03*
X1290000D02*
D03*
X1260000D02*
D03*
X1230000D02*
D03*
X1470000Y330000D02*
D03*
X1440000D02*
D03*
X1410000D02*
D03*
X1380000D02*
D03*
X1350000D02*
D03*
X1320000D02*
D03*
X1290000D02*
D03*
X1260000D02*
D03*
X1230000D02*
D03*
X1455000Y360000D02*
D03*
X1425000D02*
D03*
X1395000D02*
D03*
X1365000D02*
D03*
X1335000D02*
D03*
X1305000D02*
D03*
X1275000D02*
D03*
X1249000Y362000D02*
D03*
D96*
X2012000Y2088000D02*
D03*
Y1532000D02*
D03*
Y1304000D02*
D03*
Y1073000D02*
D03*
Y843000D02*
D03*
Y339000D02*
D03*
X325000D02*
D03*
Y816000D02*
D03*
Y1037000D02*
D03*
Y1270000D02*
D03*
Y1532000D02*
D03*
Y2045000D02*
D03*
%TF.MD5,f51648e90794b09d46b45de445bdf89a*%
M02*
